<svg width="22" height="41" viewBox="0 0 22 41" fill="none" xmlns="http://www.w3.org/2000/svg">
<mask id="path-1-inside-1_6464_472509" fill="white">
<path d="M11.0001 15.0723L16.0001 20.0723L11.0001 25.0723L9.93945 24.0116L13.8788 20.0723L9.93945 16.1329L11.0001 15.0723Z"/>
</mask>
<path d="M11.0001 15.0723L16.0001 20.0723L11.0001 25.0723L9.93945 24.0116L13.8788 20.0723L9.93945 16.1329L11.0001 15.0723Z" fill="white"/>
<path d="M16.0001 20.0723L17.0608 21.1329L18.1214 20.0723L17.0608 19.0116L16.0001 20.0723ZM11.0001 15.0723L12.0608 14.0116L11.0001 12.9509L9.93945 14.0116L11.0001 15.0723ZM11.0001 25.0723L9.93945 26.1329L11.0001 27.1936L12.0608 26.1329L11.0001 25.0723ZM9.93945 16.1329L8.87879 15.0723L7.81813 16.1329L8.87879 17.1936L9.93945 16.1329ZM9.93945 24.0116L8.87879 22.9509L7.81813 24.0116L8.87879 25.0723L9.93945 24.0116ZM13.8788 20.0723L14.9395 21.1329L16.0001 20.0723L14.9395 19.0116L13.8788 20.0723ZM17.0608 19.0116L12.0608 14.0116L9.93945 16.1329L14.9395 21.1329L17.0608 19.0116ZM12.0608 26.1329L17.0608 21.1329L14.9395 19.0116L9.93945 24.0116L12.0608 26.1329ZM9.93945 14.0116L8.87879 15.0723L11.0001 17.1936L12.0608 16.1329L9.93945 14.0116ZM8.87879 25.0723L9.93945 26.1329L12.0608 24.0116L11.0001 22.9509L8.87879 25.0723ZM12.8181 19.0116L8.87879 22.9509L11.0001 25.0723L14.9395 21.1329L12.8181 19.0116ZM8.87879 17.1936L12.8181 21.1329L14.9395 19.0116L11.0001 15.0723L8.87879 17.1936Z" fill="#CED4DA" mask="url(#path-1-inside-1_6464_472509)"/>
</svg>
