<svg width="14" height="15" viewBox="0 0 14 15" fill="none" xmlns="http://www.w3.org/2000/svg">
<g clip-path="url(#clip0_6464_473927)">
<path d="M13.9998 7.49902C13.9998 9.35554 13.2623 11.136 11.9495 12.4488C10.6367 13.7615 8.85627 14.499 6.99976 14.499C5.14324 14.499 3.36276 13.7615 2.05001 12.4488C0.737254 11.136 -0.000244141 9.35554 -0.000244141 7.49902C-0.000244141 5.64251 0.737254 3.86203 2.05001 2.54928C3.36276 1.23652 5.14324 0.499023 6.99976 0.499023C8.85627 0.499023 10.6367 1.23652 11.9495 2.54928C13.2623 3.86203 13.9998 5.64251 13.9998 7.49902V7.49902ZM4.68451 4.56427C4.60236 4.48212 4.49093 4.43597 4.37476 4.43597C4.25858 4.43597 4.14716 4.48212 4.06501 4.56427C3.98285 4.64642 3.9367 4.75784 3.9367 4.87402C3.9367 4.9902 3.98285 5.10162 4.06501 5.18377L6.38113 7.49902L4.06501 9.81427C4.02433 9.85495 3.99206 9.90324 3.97005 9.95639C3.94803 10.0095 3.9367 10.0665 3.9367 10.124C3.9367 10.1815 3.94803 10.2385 3.97005 10.2917C3.99206 10.3448 4.02433 10.3931 4.06501 10.4338C4.14716 10.5159 4.25858 10.5621 4.37476 10.5621C4.43228 10.5621 4.48924 10.5507 4.54239 10.5287C4.59554 10.5067 4.64383 10.4745 4.68451 10.4338L6.99976 8.11765L9.31501 10.4338C9.35568 10.4745 9.40397 10.5067 9.45712 10.5287C9.51027 10.5507 9.56723 10.5621 9.62476 10.5621C9.68228 10.5621 9.73924 10.5507 9.79239 10.5287C9.84554 10.5067 9.89383 10.4745 9.93451 10.4338C9.97518 10.3931 10.0074 10.3448 10.0295 10.2917C10.0515 10.2385 10.0628 10.1815 10.0628 10.124C10.0628 10.0665 10.0515 10.0095 10.0295 9.95639C10.0074 9.90324 9.97518 9.85495 9.93451 9.81427L7.61838 7.49902L9.93451 5.18377C9.97518 5.1431 10.0074 5.09481 10.0295 5.04166C10.0515 4.98851 10.0628 4.93155 10.0628 4.87402C10.0628 4.8165 10.0515 4.75953 10.0295 4.70639C10.0074 4.65324 9.97518 4.60495 9.93451 4.56427C9.89383 4.5236 9.84554 4.49133 9.79239 4.46932C9.73924 4.4473 9.68228 4.43597 9.62476 4.43597C9.56723 4.43597 9.51027 4.4473 9.45712 4.46932C9.40397 4.49133 9.35568 4.5236 9.31501 4.56427L6.99976 6.8804L4.68451 4.56427Z" fill="#6C757D"/>
</g>
<defs>
<clipPath id="clip0_6464_473927">
<rect width="14" height="14" fill="white" transform="translate(0 0.5)"/>
</clipPath>
</defs>
</svg>
