<svg width="12" height="12" viewBox="0 0 12 12" fill="none" xmlns="http://www.w3.org/2000/svg">
<g clip-path="url(#clip0_6464_480746)">
<path d="M5.99951 11.2492C4.60713 11.2492 3.27177 10.6961 2.2872 9.71152C1.30264 8.72695 0.749512 7.39159 0.749512 5.99921C0.749512 4.60682 1.30264 3.27146 2.2872 2.2869C3.27177 1.30233 4.60713 0.749207 5.99951 0.749207C7.3919 0.749207 8.72726 1.30233 9.71182 2.2869C10.6964 3.27146 11.2495 4.60682 11.2495 5.99921C11.2495 7.39159 10.6964 8.72695 9.71182 9.71152C8.72726 10.6961 7.3919 11.2492 5.99951 11.2492ZM5.99951 11.9992C7.59081 11.9992 9.11693 11.3671 10.2422 10.2418C11.3674 9.11663 11.9995 7.59051 11.9995 5.99921C11.9995 4.40791 11.3674 2.88178 10.2422 1.75657C9.11693 0.631348 7.59081 -0.000793457 5.99951 -0.000793457C4.40821 -0.000793457 2.88209 0.631348 1.75687 1.75657C0.631653 2.88178 -0.000488281 4.40791 -0.000488281 5.99921C-0.000488281 7.59051 0.631653 9.11663 1.75687 10.2418C2.88209 11.3671 4.40821 11.9992 5.99951 11.9992Z" fill="#6C757D"/>
<path d="M6.69701 4.94021L4.97951 5.15546L4.91801 5.44046L5.25551 5.50271C5.47601 5.55521 5.51951 5.63471 5.47151 5.85446L4.91801 8.45546C4.77251 9.12821 4.99676 9.44471 5.52401 9.44471C5.93276 9.44471 6.40751 9.25571 6.62276 8.99621L6.68876 8.68421C6.53876 8.81621 6.31976 8.86871 6.17426 8.86871C5.96801 8.86871 5.89301 8.72396 5.94626 8.46896L6.69701 4.94021ZM6.74951 3.37421C6.74951 3.57312 6.67049 3.76388 6.52984 3.90454C6.38919 4.04519 6.19842 4.12421 5.99951 4.12421C5.8006 4.12421 5.60983 4.04519 5.46918 3.90454C5.32853 3.76388 5.24951 3.57312 5.24951 3.37421C5.24951 3.17529 5.32853 2.98453 5.46918 2.84388C5.60983 2.70322 5.8006 2.62421 5.99951 2.62421C6.19842 2.62421 6.38919 2.70322 6.52984 2.84388C6.67049 2.98453 6.74951 3.17529 6.74951 3.37421Z" fill="#6C757D"/>
</g>
<defs>
<clipPath id="clip0_6464_480746">
<rect width="12" height="12" fill="white"/>
</clipPath>
</defs>
</svg>
