<svg width="16" height="17" viewBox="0 0 16 17" fill="none" xmlns="http://www.w3.org/2000/svg">
<g clip-path="url(#clip0_6464_470723)">
<path d="M7.99951 15.5713C6.143 15.5713 4.36252 14.8338 3.04976 13.521C1.73701 12.2083 0.999512 10.4278 0.999512 8.57126C0.999512 6.71475 1.73701 4.93427 3.04976 3.62151C4.36252 2.30876 6.143 1.57126 7.99951 1.57126C9.85603 1.57126 11.6365 2.30876 12.9493 3.62151C14.262 4.93427 14.9995 6.71475 14.9995 8.57126C14.9995 10.4278 14.262 12.2083 12.9493 13.521C11.6365 14.8338 9.85603 15.5713 7.99951 15.5713ZM7.99951 16.5713C10.1212 16.5713 12.1561 15.7284 13.6564 14.2281C15.1567 12.7278 15.9995 10.693 15.9995 8.57126C15.9995 6.44953 15.1567 4.4147 13.6564 2.91441C12.1561 1.41412 10.1212 0.57126 7.99951 0.57126C5.87778 0.57126 3.84295 1.41412 2.34266 2.91441C0.842367 4.4147 -0.000488281 6.44953 -0.000488281 8.57126C-0.000488281 10.693 0.842367 12.7278 2.34266 14.2281C3.84295 15.7284 5.87778 16.5713 7.99951 16.5713Z" fill="white"/>
<path d="M7.99951 4.57126C8.13212 4.57126 8.2593 4.62394 8.35307 4.71771C8.44683 4.81148 8.49951 4.93865 8.49951 5.07126V8.07126H11.4995C11.6321 8.07126 11.7593 8.12394 11.8531 8.21771C11.9468 8.31148 11.9995 8.43865 11.9995 8.57126C11.9995 8.70387 11.9468 8.83105 11.8531 8.92481C11.7593 9.01858 11.6321 9.07126 11.4995 9.07126H8.49951V12.0713C8.49951 12.2039 8.44683 12.331 8.35307 12.4248C8.2593 12.5186 8.13212 12.5713 7.99951 12.5713C7.8669 12.5713 7.73973 12.5186 7.64596 12.4248C7.55219 12.331 7.49951 12.2039 7.49951 12.0713V9.07126H4.49951C4.3669 9.07126 4.23973 9.01858 4.14596 8.92481C4.05219 8.83105 3.99951 8.70387 3.99951 8.57126C3.99951 8.43865 4.05219 8.31148 4.14596 8.21771C4.23973 8.12394 4.3669 8.07126 4.49951 8.07126H7.49951V5.07126C7.49951 4.93865 7.55219 4.81148 7.64596 4.71771C7.73973 4.62394 7.8669 4.57126 7.99951 4.57126Z" fill="white"/>
</g>
<defs>
<clipPath id="clip0_6464_470723">
<rect width="16" height="16" fill="white" transform="translate(0 0.572083)"/>
</clipPath>
</defs>
</svg>
