<svg width="16" height="16" viewBox="0 0 16 16" fill="none" xmlns="http://www.w3.org/2000/svg">
<g clip-path="url(#clip0_6464_474577)">
<path d="M13.9998 0.999023C14.265 0.999023 14.5193 1.10438 14.7069 1.29192C14.8944 1.47945 14.9998 1.73381 14.9998 1.99902V13.999C14.9998 14.2642 14.8944 14.5186 14.7069 14.7061C14.5193 14.8937 14.265 14.999 13.9998 14.999H1.99976C1.73454 14.999 1.48019 14.8937 1.29265 14.7061C1.10511 14.5186 0.999756 14.2642 0.999756 13.999V1.99902C0.999756 1.73381 1.10511 1.47945 1.29265 1.29192C1.48019 1.10438 1.73454 0.999023 1.99976 0.999023H13.9998ZM1.99976 -0.000976562C1.46932 -0.000976562 0.960615 0.209737 0.585542 0.58481C0.21047 0.959883 -0.000244141 1.46859 -0.000244141 1.99902V13.999C-0.000244141 14.5295 0.21047 15.0382 0.585542 15.4132C0.960615 15.7883 1.46932 15.999 1.99976 15.999H13.9998C14.5302 15.999 15.0389 15.7883 15.414 15.4132C15.789 15.0382 15.9998 14.5295 15.9998 13.999V1.99902C15.9998 1.46859 15.789 0.959883 15.414 0.58481C15.0389 0.209737 14.5302 -0.000976562 13.9998 -0.000976562H1.99976Z" fill="white"/>
<path d="M7.99976 3.99902C8.13236 3.99902 8.25954 4.0517 8.35331 4.14547C8.44708 4.23924 8.49976 4.36642 8.49976 4.49902V7.49902H11.4998C11.6324 7.49902 11.7595 7.5517 11.8533 7.64547C11.9471 7.73924 11.9998 7.86642 11.9998 7.99902C11.9998 8.13163 11.9471 8.25881 11.8533 8.35258C11.7595 8.44635 11.6324 8.49902 11.4998 8.49902H8.49976V11.499C8.49976 11.6316 8.44708 11.7588 8.35331 11.8526C8.25954 11.9463 8.13236 11.999 7.99976 11.999C7.86715 11.999 7.73997 11.9463 7.6462 11.8526C7.55243 11.7588 7.49976 11.6316 7.49976 11.499V8.49902H4.49976C4.36715 8.49902 4.23997 8.44635 4.1462 8.35258C4.05243 8.25881 3.99976 8.13163 3.99976 7.99902C3.99976 7.86642 4.05243 7.73924 4.1462 7.64547C4.23997 7.5517 4.36715 7.49902 4.49976 7.49902H7.49976V4.49902C7.49976 4.36642 7.55243 4.23924 7.6462 4.14547C7.73997 4.0517 7.86715 3.99902 7.99976 3.99902Z" fill="white"/>
</g>
<defs>
<clipPath id="clip0_6464_474577">
<rect width="16" height="16" fill="white"/>
</clipPath>
</defs>
</svg>
