<svg width="14" height="14" viewBox="0 0 14 14" fill="none" xmlns="http://www.w3.org/2000/svg">
<g clip-path="url(#clip0_6464_477140)">
<path d="M13.9998 6.99915C13.9998 8.85566 13.2623 10.6361 11.9495 11.9489C10.6367 13.2616 8.85627 13.9991 6.99976 13.9991C5.14324 13.9991 3.36276 13.2616 2.05001 11.9489C0.737254 10.6361 -0.000244141 8.85566 -0.000244141 6.99915C-0.000244141 5.14263 0.737254 3.36215 2.05001 2.0494C3.36276 0.736644 5.14324 -0.000854492 6.99976 -0.000854492C8.85627 -0.000854492 10.6367 0.736644 11.9495 2.0494C13.2623 3.36215 13.9998 5.14263 13.9998 6.99915V6.99915ZM4.68451 4.0644C4.60236 3.98224 4.49093 3.93609 4.37476 3.93609C4.25858 3.93609 4.14716 3.98224 4.06501 4.0644C3.98285 4.14655 3.9367 4.25797 3.9367 4.37415C3.9367 4.49032 3.98285 4.60174 4.06501 4.6839L6.38113 6.99915L4.06501 9.3144C4.02433 9.35507 3.99206 9.40336 3.97005 9.45651C3.94803 9.50966 3.9367 9.56662 3.9367 9.62415C3.9367 9.68167 3.94803 9.73863 3.97005 9.79178C3.99206 9.84493 4.02433 9.89322 4.06501 9.9339C4.14716 10.016 4.25858 10.0622 4.37476 10.0622C4.43228 10.0622 4.48924 10.0509 4.54239 10.0289C4.59554 10.0068 4.64383 9.97457 4.68451 9.9339L6.99976 7.61777L9.31501 9.9339C9.35568 9.97457 9.40397 10.0068 9.45712 10.0289C9.51027 10.0509 9.56723 10.0622 9.62476 10.0622C9.68228 10.0622 9.73924 10.0509 9.79239 10.0289C9.84554 10.0068 9.89383 9.97457 9.93451 9.9339C9.97518 9.89322 10.0074 9.84493 10.0295 9.79178C10.0515 9.73863 10.0628 9.68167 10.0628 9.62415C10.0628 9.56662 10.0515 9.50966 10.0295 9.45651C10.0074 9.40336 9.97518 9.35507 9.93451 9.3144L7.61838 6.99915L9.93451 4.6839C9.97518 4.64322 10.0074 4.59493 10.0295 4.54178C10.0515 4.48863 10.0628 4.43167 10.0628 4.37415C10.0628 4.31662 10.0515 4.25966 10.0295 4.20651C10.0074 4.15336 9.97518 4.10507 9.93451 4.0644C9.89383 4.02372 9.84554 3.99145 9.79239 3.96944C9.73924 3.94742 9.68228 3.93609 9.62476 3.93609C9.56723 3.93609 9.51027 3.94742 9.45712 3.96944C9.40397 3.99145 9.35568 4.02372 9.31501 4.0644L6.99976 6.38052L4.68451 4.0644Z" fill="#6C757D"/>
</g>
<defs>
<clipPath id="clip0_6464_477140">
<rect width="14" height="14" fill="white"/>
</clipPath>
</defs>
</svg>
