<svg width="12" height="12" viewBox="0 0 12 12" fill="none" xmlns="http://www.w3.org/2000/svg">
<g clip-path="url(#clip0_6464_477718)">
<path d="M5.99976 11.2491C4.60737 11.2491 3.27201 10.696 2.28745 9.71146C1.30288 8.72689 0.749756 7.39153 0.749756 5.99915C0.749756 4.60676 1.30288 3.2714 2.28745 2.28683C3.27201 1.30227 4.60737 0.749146 5.99976 0.749146C7.39214 0.749146 8.7275 1.30227 9.71207 2.28683C10.6966 3.2714 11.2498 4.60676 11.2498 5.99915C11.2498 7.39153 10.6966 8.72689 9.71207 9.71146C8.7275 10.696 7.39214 11.2491 5.99976 11.2491ZM5.99976 11.9991C7.59105 11.9991 9.11718 11.367 10.2424 10.2418C11.3676 9.11657 11.9998 7.59044 11.9998 5.99915C11.9998 4.40785 11.3676 2.88172 10.2424 1.7565C9.11718 0.631287 7.59105 -0.000854492 5.99976 -0.000854492C4.40846 -0.000854492 2.88233 0.631287 1.75712 1.7565C0.631897 2.88172 -0.000244141 4.40785 -0.000244141 5.99915C-0.000244141 7.59044 0.631897 9.11657 1.75712 10.2418C2.88233 11.367 4.40846 11.9991 5.99976 11.9991Z" fill="#6C757D"/>
<path d="M6.69726 4.94015L4.97976 5.1554L4.91826 5.4404L5.25576 5.50265C5.47626 5.55515 5.51976 5.63465 5.47176 5.8544L4.91826 8.4554C4.77276 9.12815 4.99701 9.44465 5.52426 9.44465C5.93301 9.44465 6.40776 9.25565 6.62301 8.99615L6.68901 8.68415C6.53901 8.81615 6.32001 8.86865 6.17451 8.86865C5.96826 8.86865 5.89326 8.7239 5.94651 8.4689L6.69726 4.94015ZM6.74976 3.37415C6.74976 3.57306 6.67074 3.76382 6.53009 3.90448C6.38943 4.04513 6.19867 4.12415 5.99976 4.12415C5.80084 4.12415 5.61008 4.04513 5.46943 3.90448C5.32877 3.76382 5.24976 3.57306 5.24976 3.37415C5.24976 3.17523 5.32877 2.98447 5.46943 2.84382C5.61008 2.70316 5.80084 2.62415 5.99976 2.62415C6.19867 2.62415 6.38943 2.70316 6.53009 2.84382C6.67074 2.98447 6.74976 3.17523 6.74976 3.37415Z" fill="#6C757D"/>
</g>
<defs>
<clipPath id="clip0_6464_477718">
<rect width="12" height="12" fill="white"/>
</clipPath>
</defs>
</svg>
