<svg width="14" height="14" viewBox="0 0 14 14" fill="none" xmlns="http://www.w3.org/2000/svg">
<g clip-path="url(#clip0_6464_481781)">
<path d="M11.6888 9.83245C13.1771 8.5042 13.9996 6.9992 13.9996 6.9992C13.9996 6.9992 11.3746 2.1867 6.99963 2.1867C6.15928 2.1896 5.32843 2.3647 4.55838 2.7012L5.23213 3.37583C5.79864 3.16946 6.39671 3.06317 6.99963 3.0617C8.85463 3.0617 10.3938 4.0837 11.5216 5.21158C12.0644 5.75731 12.5511 6.35619 12.9741 6.9992C12.9234 7.07533 12.8674 7.15933 12.8035 7.2512C12.5104 7.6712 12.0773 8.2312 11.5216 8.78683C11.3773 8.9312 11.2268 9.07383 11.0693 9.21208L11.6888 9.83245Z" fill="#6C757D"/>
<path d="M9.88451 8.0282C10.0798 7.48206 10.1159 6.89171 9.98878 6.32582C9.86164 5.75993 9.57641 5.24179 9.16629 4.83167C8.75617 4.42155 8.23803 4.13633 7.67214 4.00918C7.10625 3.88203 6.5159 3.91819 5.96976 4.11345L6.68988 4.83358C7.02615 4.78545 7.36902 4.81629 7.6913 4.92367C8.01358 5.03105 8.30642 5.21201 8.54662 5.45221C8.78683 5.69242 8.96779 5.98526 9.07517 6.30754C9.18254 6.62982 9.21339 6.97268 9.16526 7.30895L9.88451 8.0282ZM7.30938 9.16483L8.02863 9.88408C7.4825 10.0793 6.89214 10.1155 6.32625 9.98835C5.76037 9.86121 5.24222 9.57598 4.8321 9.16586C4.42198 8.75574 4.13676 8.2376 4.00961 7.67171C3.88246 7.10582 3.91862 6.51547 4.11388 5.96933L4.83401 6.68945C4.78588 7.02572 4.81672 7.36858 4.9241 7.69087C5.03148 8.01315 5.21244 8.30599 5.45264 8.54619C5.69285 8.7864 5.98569 8.96736 6.30797 9.07474C6.63025 9.18211 6.97311 9.21296 7.30938 9.16483Z" fill="#6C757D"/>
<path d="M2.93088 4.78545C2.77338 4.92545 2.62201 5.0672 2.47763 5.21158C1.93482 5.75731 1.44821 6.35619 1.02513 6.9992L1.19576 7.2512C1.48888 7.6712 1.92201 8.2312 2.47763 8.78683C3.60551 9.9147 5.14551 10.9367 6.99963 10.9367C7.62613 10.9367 8.21588 10.8203 8.76713 10.6217L9.44088 11.2972C8.67083 11.6337 7.83999 11.8088 6.99963 11.8117C2.62463 11.8117 -0.000366211 6.9992 -0.000366211 6.9992C-0.000366211 6.9992 0.821259 5.49333 2.31051 4.16595L2.93001 4.78633L2.93088 4.78545ZM11.9399 12.559L1.43988 2.05895L2.05938 1.43945L12.5594 11.9395L11.9399 12.559Z" fill="#6C757D"/>
</g>
<defs>
<clipPath id="clip0_6464_481781">
<rect width="14" height="14" fill="white"/>
</clipPath>
</defs>
</svg>
