<svg width="20" height="20" viewBox="0 0 20 20" fill="none" xmlns="http://www.w3.org/2000/svg">
<path d="M9.99976 9.99927C10.9943 9.99927 11.9481 9.60418 12.6514 8.90092C13.3547 8.19766 13.7498 7.24383 13.7498 6.24927C13.7498 5.25471 13.3547 4.30088 12.6514 3.59762C11.9481 2.89436 10.9943 2.49927 9.99976 2.49927C9.00519 2.49927 8.05137 2.89436 7.34811 3.59762C6.64484 4.30088 6.24976 5.25471 6.24976 6.24927C6.24976 7.24383 6.64484 8.19766 7.34811 8.90092C8.05137 9.60418 9.00519 9.99927 9.99976 9.99927ZM12.4998 6.24927C12.4998 6.91231 12.2364 7.54819 11.7675 8.01703C11.2987 8.48588 10.6628 8.74927 9.99976 8.74927C9.33671 8.74927 8.70083 8.48588 8.23199 8.01703C7.76315 7.54819 7.49976 6.91231 7.49976 6.24927C7.49976 5.58623 7.76315 4.95034 8.23199 4.4815C8.70083 4.01266 9.33671 3.74927 9.99976 3.74927C10.6628 3.74927 11.2987 4.01266 11.7675 4.4815C12.2364 4.95034 12.4998 5.58623 12.4998 6.24927ZM17.4998 16.2493C17.4998 17.4993 16.2498 17.4993 16.2498 17.4993H3.74976C3.74976 17.4993 2.49976 17.4993 2.49976 16.2493C2.49976 14.9993 3.74976 11.2493 9.99976 11.2493C16.2498 11.2493 17.4998 14.9993 17.4998 16.2493ZM16.2498 16.2443C16.2485 15.9368 16.0573 15.0118 15.2098 14.1643C14.3948 13.3493 12.861 12.4993 9.99976 12.4993C7.13726 12.4993 5.60476 13.3493 4.78976 14.1643C3.94226 15.0118 3.75226 15.9368 3.74976 16.2443H16.2498Z" fill="white"/>
</svg>
