<svg width="20" height="20" viewBox="0 0 20 20" fill="none" xmlns="http://www.w3.org/2000/svg">
<path d="M9.99951 9.99915C10.9941 9.99915 11.9479 9.60406 12.6512 8.9008C13.3544 8.19753 13.7495 7.24371 13.7495 6.24915C13.7495 5.25458 13.3544 4.30076 12.6512 3.5975C11.9479 2.89423 10.9941 2.49915 9.99951 2.49915C9.00495 2.49915 8.05112 2.89423 7.34786 3.5975C6.6446 4.30076 6.24951 5.25458 6.24951 6.24915C6.24951 7.24371 6.6446 8.19753 7.34786 8.9008C8.05112 9.60406 9.00495 9.99915 9.99951 9.99915ZM12.4995 6.24915C12.4995 6.91219 12.2361 7.54807 11.7673 8.01691C11.2984 8.48575 10.6626 8.74915 9.99951 8.74915C9.33647 8.74915 8.70059 8.48575 8.23174 8.01691C7.7629 7.54807 7.49951 6.91219 7.49951 6.24915C7.49951 5.5861 7.7629 4.95022 8.23174 4.48138C8.70059 4.01254 9.33647 3.74915 9.99951 3.74915C10.6626 3.74915 11.2984 4.01254 11.7673 4.48138C12.2361 4.95022 12.4995 5.5861 12.4995 6.24915ZM17.4995 16.2491C17.4995 17.4991 16.2495 17.4991 16.2495 17.4991H3.74951C3.74951 17.4991 2.49951 17.4991 2.49951 16.2491C2.49951 14.9991 3.74951 11.2491 9.99951 11.2491C16.2495 11.2491 17.4995 14.9991 17.4995 16.2491ZM16.2495 16.2441C16.2483 15.9366 16.057 15.0116 15.2095 14.1641C14.3945 13.3491 12.8608 12.4991 9.99951 12.4991C7.13701 12.4991 5.60451 13.3491 4.78951 14.1641C3.94201 15.0116 3.75201 15.9366 3.74951 16.2441H16.2495Z" fill="white"/>
</svg>
