<svg width="16" height="17" viewBox="0 0 16 17" fill="none" xmlns="http://www.w3.org/2000/svg">
<g clip-path="url(#clip0_6464_472427)">
<path d="M13.9995 1.50098C14.2647 1.50098 14.5191 1.60633 14.7066 1.79387C14.8942 1.98141 14.9995 2.23576 14.9995 2.50098V14.501C14.9995 14.7662 14.8942 15.0205 14.7066 15.2081C14.5191 15.3956 14.2647 15.501 13.9995 15.501H1.99951C1.7343 15.501 1.47994 15.3956 1.2924 15.2081C1.10487 15.0205 0.999512 14.7662 0.999512 14.501V2.50098C0.999512 2.23576 1.10487 1.98141 1.2924 1.79387C1.47994 1.60633 1.7343 1.50098 1.99951 1.50098H13.9995ZM1.99951 0.500977C1.46908 0.500977 0.960371 0.71169 0.585298 1.08676C0.210225 1.46184 -0.000488281 1.97054 -0.000488281 2.50098V14.501C-0.000488281 15.0314 0.210225 15.5401 0.585298 15.9152C0.960371 16.2903 1.46908 16.501 1.99951 16.501H13.9995C14.5299 16.501 15.0387 16.2903 15.4137 15.9152C15.7888 15.5401 15.9995 15.0314 15.9995 14.501V2.50098C15.9995 1.97054 15.7888 1.46184 15.4137 1.08676C15.0387 0.71169 14.5299 0.500977 13.9995 0.500977H1.99951Z" fill="white"/>
<path d="M7.99951 4.50098C8.13212 4.50098 8.2593 4.55366 8.35307 4.64742C8.44683 4.74119 8.49951 4.86837 8.49951 5.00098V8.00098H11.4995C11.6321 8.00098 11.7593 8.05366 11.8531 8.14742C11.9468 8.24119 11.9995 8.36837 11.9995 8.50098C11.9995 8.63358 11.9468 8.76076 11.8531 8.85453C11.7593 8.9483 11.6321 9.00098 11.4995 9.00098H8.49951V12.001C8.49951 12.1336 8.44683 12.2608 8.35307 12.3545C8.2593 12.4483 8.13212 12.501 7.99951 12.501C7.8669 12.501 7.73973 12.4483 7.64596 12.3545C7.55219 12.2608 7.49951 12.1336 7.49951 12.001V9.00098H4.49951C4.3669 9.00098 4.23973 8.9483 4.14596 8.85453C4.05219 8.76076 3.99951 8.63358 3.99951 8.50098C3.99951 8.36837 4.05219 8.24119 4.14596 8.14742C4.23973 8.05366 4.3669 8.00098 4.49951 8.00098H7.49951V5.00098C7.49951 4.86837 7.55219 4.74119 7.64596 4.64742C7.73973 4.55366 7.8669 4.50098 7.99951 4.50098Z" fill="white"/>
</g>
<defs>
<clipPath id="clip0_6464_472427">
<rect width="16" height="16" fill="white" transform="translate(0 0.501953)"/>
</clipPath>
</defs>
</svg>
