<svg width="16" height="17" viewBox="0 0 16 17" fill="none" xmlns="http://www.w3.org/2000/svg">
<g clip-path="url(#clip0_6464_476067)">
<path d="M7.99963 15.5712C6.14312 15.5712 4.36264 14.8337 3.04989 13.521C1.73713 12.2082 0.999634 10.4277 0.999634 8.57123C0.999634 6.71471 1.73713 4.93424 3.04989 3.62148C4.36264 2.30873 6.14312 1.57123 7.99963 1.57123C9.85615 1.57123 11.6366 2.30873 12.9494 3.62148C14.2621 4.93424 14.9996 6.71471 14.9996 8.57123C14.9996 10.4277 14.2621 12.2082 12.9494 13.521C11.6366 14.8337 9.85615 15.5712 7.99963 15.5712ZM7.99963 16.5712C10.1214 16.5712 12.1562 15.7284 13.6565 14.2281C15.1568 12.7278 15.9996 10.693 15.9996 8.57123C15.9996 6.4495 15.1568 4.41466 13.6565 2.91437C12.1562 1.41408 10.1214 0.571228 7.99963 0.571228C5.8779 0.571228 3.84307 1.41408 2.34278 2.91437C0.842489 4.41466 -0.000366211 6.4495 -0.000366211 8.57123C-0.000366211 10.693 0.842489 12.7278 2.34278 14.2281C3.84307 15.7284 5.8779 16.5712 7.99963 16.5712Z" fill="white"/>
<path d="M7.99963 4.57123C8.13224 4.57123 8.25942 4.62391 8.35319 4.71767C8.44696 4.81144 8.49963 4.93862 8.49963 5.07123V8.07123H11.4996C11.6322 8.07123 11.7594 8.12391 11.8532 8.21767C11.947 8.31144 11.9996 8.43862 11.9996 8.57123C11.9996 8.70384 11.947 8.83101 11.8532 8.92478C11.7594 9.01855 11.6322 9.07123 11.4996 9.07123H8.49963V12.0712C8.49963 12.2038 8.44696 12.331 8.35319 12.4248C8.25942 12.5185 8.13224 12.5712 7.99963 12.5712C7.86703 12.5712 7.73985 12.5185 7.64608 12.4248C7.55231 12.331 7.49963 12.2038 7.49963 12.0712V9.07123H4.49963C4.36703 9.07123 4.23985 9.01855 4.14608 8.92478C4.05231 8.83101 3.99963 8.70384 3.99963 8.57123C3.99963 8.43862 4.05231 8.31144 4.14608 8.21767C4.23985 8.12391 4.36703 8.07123 4.49963 8.07123H7.49963V5.07123C7.49963 4.93862 7.55231 4.81144 7.64608 4.71767C7.73985 4.62391 7.86703 4.57123 7.99963 4.57123Z" fill="white"/>
</g>
<defs>
<clipPath id="clip0_6464_476067">
<rect width="16" height="16" fill="white" transform="translate(0 0.572021)"/>
</clipPath>
</defs>
</svg>
