<svg width="15" height="15" viewBox="0 0 15 15" fill="none" xmlns="http://www.w3.org/2000/svg">
<path d="M7.34253 7.58496C8.03872 7.58496 8.7064 7.3084 9.19868 6.81612C9.69097 6.32383 9.96753 5.65615 9.96753 4.95996C9.96753 4.26377 9.69097 3.59609 9.19868 3.10381C8.7064 2.61152 8.03872 2.33496 7.34253 2.33496C6.64634 2.33496 5.97866 2.61152 5.48637 3.10381C4.99409 3.59609 4.71753 4.26377 4.71753 4.95996C4.71753 5.65615 4.99409 6.32383 5.48637 6.81612C5.97866 7.3084 6.64634 7.58496 7.34253 7.58496V7.58496ZM9.09253 4.95996C9.09253 5.42409 8.90815 5.86921 8.57997 6.1974C8.25178 6.52559 7.80666 6.70996 7.34253 6.70996C6.8784 6.70996 6.43328 6.52559 6.10509 6.1974C5.7769 5.86921 5.59253 5.42409 5.59253 4.95996C5.59253 4.49583 5.7769 4.05071 6.10509 3.72252C6.43328 3.39434 6.8784 3.20996 7.34253 3.20996C7.80666 3.20996 8.25178 3.39434 8.57997 3.72252C8.90815 4.05071 9.09253 4.49583 9.09253 4.95996V4.95996ZM12.5925 11.96C12.5925 12.835 11.7175 12.835 11.7175 12.835H2.96753C2.96753 12.835 2.09253 12.835 2.09253 11.96C2.09253 11.085 2.96753 8.45996 7.34253 8.45996C11.7175 8.45996 12.5925 11.085 12.5925 11.96ZM11.7175 11.9565C11.7167 11.7412 11.5828 11.0937 10.9895 10.5005C10.419 9.92996 9.3454 9.33496 7.34253 9.33496C5.33878 9.33496 4.26603 9.92996 3.69553 10.5005C3.10228 11.0937 2.96928 11.7412 2.96753 11.9565H11.7175Z" fill="#6C757D"/>
</svg>
