<svg width="16" height="16" viewBox="0 0 16 16" fill="none" xmlns="http://www.w3.org/2000/svg">
<path d="M3.55556 5.33317H12.4444V10.6665H3.55556V5.33317ZM14.6667 7.99984C14.6667 8.73623 15.2636 9.33317 16 9.33317V11.9998C16 12.7362 15.4031 13.3332 14.6667 13.3332H1.33333C0.596944 13.3332 0 12.7362 0 11.9998V9.33317C0.736389 9.33317 1.33333 8.73623 1.33333 7.99984C1.33333 7.26345 0.736389 6.6665 0 6.6665V3.99984C0 3.26345 0.596944 2.6665 1.33333 2.6665H14.6667C15.4031 2.6665 16 3.26345 16 3.99984V6.6665C15.2636 6.6665 14.6667 7.26345 14.6667 7.99984ZM13.3333 5.11095C13.3333 4.74275 13.0349 4.44428 12.6667 4.44428H3.33333C2.96514 4.44428 2.66667 4.74275 2.66667 5.11095V10.8887C2.66667 11.2569 2.96514 11.5554 3.33333 11.5554H12.6667C13.0349 11.5554 13.3333 11.2569 13.3333 10.8887V5.11095Z" fill="#DDE2FF"/>
</svg>
