<svg width="14" height="14" viewBox="0 0 14 14" fill="none" xmlns="http://www.w3.org/2000/svg">
<g clip-path="url(#clip0_6464_93343)">
<path d="M12.2495 3.93652V12.249C12.2495 12.7132 12.0651 13.1583 11.7369 13.4865C11.4088 13.8146 10.9636 13.999 10.4995 13.999H3.49951C3.03538 13.999 2.59026 13.8146 2.26207 13.4865C1.93389 13.1583 1.74951 12.7132 1.74951 12.249V1.74902C1.74951 1.28489 1.93389 0.839775 2.26207 0.511587C2.59026 0.183398 3.03538 -0.000976562 3.49951 -0.000976562H8.31201L12.2495 3.93652ZM9.62451 3.93652C9.27641 3.93652 8.94258 3.79824 8.69643 3.5521C8.45029 3.30596 8.31201 2.97212 8.31201 2.62402V0.874023H3.49951C3.26745 0.874023 3.04489 0.966211 2.88079 1.1303C2.7167 1.2944 2.62451 1.51696 2.62451 1.74902V12.249C2.62451 12.4811 2.7167 12.7036 2.88079 12.8677C3.04489 13.0318 3.26745 13.124 3.49951 13.124H10.4995C10.7316 13.124 10.9541 13.0318 11.1182 12.8677C11.2823 12.7036 11.3745 12.4811 11.3745 12.249V3.93652H9.62451Z" fill="#0D6EFD"/>
</g>
<defs>
<clipPath id="clip0_6464_93343">
<rect width="14" height="14" fill="white"/>
</clipPath>
</defs>
</svg>
