<svg width="14" height="15" viewBox="0 0 14 15" fill="none" xmlns="http://www.w3.org/2000/svg">
<path d="M3.49976 9.9324C3.62926 11.391 4.82363 12.4261 6.64188 12.56V13.624H7.55451V12.56C9.54076 12.4034 10.7728 11.3018 10.7728 9.67252C10.7728 8.28127 9.94413 7.47627 8.18626 7.02302L7.55451 6.8594V3.53265C8.53626 3.6289 9.19863 4.1574 9.36576 4.94665H10.652C10.5068 3.54665 9.30451 2.54215 7.55451 2.43102V1.37402H6.64188V2.4529C4.94526 2.65415 3.78063 3.7409 3.78063 5.2144C3.78063 6.48665 4.62588 7.38702 6.10901 7.76677L6.64276 7.90852V11.4356C5.63738 11.2869 4.94526 10.7356 4.77813 9.9324H3.49976V9.9324ZM6.46688 6.5759C5.55426 6.34577 5.06688 5.85402 5.06688 5.1619C5.06688 4.3359 5.68288 3.72602 6.64188 3.5624V6.62052L6.46688 6.57677V6.5759ZM7.85901 8.2139C8.98513 8.49652 9.47951 8.96552 9.47951 9.76177C9.47951 10.7216 8.75676 11.3613 7.55451 11.4584V8.13777L7.85901 8.21302V8.2139Z" fill="#6C757D"/>
</svg>
