<svg width="9" height="17" viewBox="0 0 9 17" fill="none" xmlns="http://www.w3.org/2000/svg">
<g clip-path="url(#clip0_6464_477809)">
<path d="M6.99976 1.49915C7.26497 1.49915 7.51933 1.6045 7.70686 1.79204C7.8944 1.97958 7.99976 2.23393 7.99976 2.49915V14.4991C7.99976 14.7644 7.8944 15.0187 7.70686 15.2063C7.51933 15.3938 7.26497 15.4991 6.99976 15.4991H-5.00024C-5.26546 15.4991 -5.51981 15.3938 -5.70735 15.2063C-5.89489 15.0187 -6.00024 14.7644 -6.00024 14.4991V2.49915C-6.00024 2.23393 -5.89489 1.97958 -5.70735 1.79204C-5.51981 1.6045 -5.26546 1.49915 -5.00024 1.49915H6.99976ZM-5.00024 0.499146C-5.53068 0.499146 -6.03938 0.709859 -6.41446 1.08493C-6.78953 1.46 -7.00024 1.96871 -7.00024 2.49915V14.4991C-7.00024 15.0296 -6.78953 15.5383 -6.41446 15.9134C-6.03938 16.2884 -5.53068 16.4991 -5.00024 16.4991H6.99976C7.53019 16.4991 8.0389 16.2884 8.41397 15.9134C8.78904 15.5383 8.99976 15.0296 8.99976 14.4991V2.49915C8.99976 1.96871 8.78904 1.46 8.41397 1.08493C8.0389 0.709859 7.53019 0.499146 6.99976 0.499146H-5.00024Z" fill="white"/>
<path d="M0.999756 4.49915C1.13236 4.49915 1.25954 4.55182 1.35331 4.64559C1.44708 4.73936 1.49976 4.86654 1.49976 4.99915V7.99915H4.49976C4.63236 7.99915 4.75954 8.05182 4.85331 8.14559C4.94708 8.23936 4.99976 8.36654 4.99976 8.49915C4.99976 8.63175 4.94708 8.75893 4.85331 8.8527C4.75954 8.94647 4.63236 8.99915 4.49976 8.99915H1.49976V11.9991C1.49976 12.1318 1.44708 12.2589 1.35331 12.3527C1.25954 12.4465 1.13236 12.4991 0.999756 12.4991C0.867148 12.4991 0.739971 12.4465 0.646203 12.3527C0.552434 12.2589 0.499756 12.1318 0.499756 11.9991V8.99915H-2.50024C-2.63285 8.99915 -2.76003 8.94647 -2.8538 8.8527C-2.94757 8.75893 -3.00024 8.63175 -3.00024 8.49915C-3.00024 8.36654 -2.94757 8.23936 -2.8538 8.14559C-2.76003 8.05182 -2.63285 7.99915 -2.50024 7.99915H0.499756V4.99915C0.499756 4.86654 0.552434 4.73936 0.646203 4.64559C0.739971 4.55182 0.867148 4.49915 0.999756 4.49915Z" fill="white"/>
</g>
<defs>
<clipPath id="clip0_6464_477809">
<rect width="16" height="16" fill="white" transform="translate(-7 0.5)"/>
</clipPath>
</defs>
</svg>
