<svg width="14" height="14" viewBox="0 0 14 14" fill="none" xmlns="http://www.w3.org/2000/svg">
<g clip-path="url(#clip0_6464_87324)">
<path d="M6.99963 13.1251C5.37518 13.1251 3.81727 12.4798 2.6686 11.3312C1.51994 10.1825 0.874634 8.62457 0.874634 7.00012C0.874634 5.37567 1.51994 3.81775 2.6686 2.66909C3.81727 1.52043 5.37518 0.875122 6.99963 0.875122C8.62409 0.875122 10.182 1.52043 11.3307 2.66909C12.4793 3.81775 13.1246 5.37567 13.1246 7.00012C13.1246 8.62457 12.4793 10.1825 11.3307 11.3312C10.182 12.4798 8.62409 13.1251 6.99963 13.1251ZM6.99963 14.0001C8.85615 14.0001 10.6366 13.2626 11.9494 11.9499C13.2621 10.6371 13.9996 8.85664 13.9996 7.00012C13.9996 5.14361 13.2621 3.36313 11.9494 2.05037C10.6366 0.73762 8.85615 0.00012207 6.99963 0.00012207C5.14312 0.00012207 3.36264 0.73762 2.04989 2.05037C0.737132 3.36313 -0.000366211 5.14361 -0.000366211 7.00012C-0.000366211 8.85664 0.737132 10.6371 2.04989 11.9499C3.36264 13.2626 5.14312 14.0001 6.99963 14.0001Z" fill="#6C757D"/>
<path d="M7.81338 5.76462L5.80963 6.01575L5.73788 6.34825L6.13163 6.42087C6.38888 6.48212 6.43963 6.57487 6.38363 6.83125L5.73788 9.86575C5.56813 10.6506 5.82976 11.0199 6.44488 11.0199C6.92176 11.0199 7.47563 10.7994 7.72676 10.4966L7.80376 10.1326C7.62876 10.2866 7.37326 10.3479 7.20351 10.3479C6.96288 10.3479 6.87538 10.179 6.93751 9.8815L7.81338 5.76462ZM7.87463 3.93762C7.87463 4.16969 7.78245 4.39225 7.61835 4.55634C7.45426 4.72043 7.2317 4.81262 6.99963 4.81262C6.76757 4.81262 6.54501 4.72043 6.38092 4.55634C6.21682 4.39225 6.12463 4.16969 6.12463 3.93762C6.12463 3.70556 6.21682 3.483 6.38092 3.3189C6.54501 3.15481 6.76757 3.06262 6.99963 3.06262C7.2317 3.06262 7.45426 3.15481 7.61835 3.3189C7.78245 3.483 7.87463 3.70556 7.87463 3.93762Z" fill="#6C757D"/>
</g>
<defs>
<clipPath id="clip0_6464_87324">
<rect width="14" height="14" fill="white" transform="translate(0 0.000976562)"/>
</clipPath>
</defs>
</svg>
