<svg width="16" height="16" viewBox="0 0 16 16" fill="none" xmlns="http://www.w3.org/2000/svg">
<g clip-path="url(#clip0_6464_481826)">
<path d="M7.99962 4.75301C7.57335 4.75301 7.15125 4.83697 6.75743 5.0001C6.36361 5.16323 6.00577 5.40232 5.70435 5.70374C5.40293 6.00516 5.16384 6.363 5.00071 6.75682C4.83758 7.15064 4.75362 7.57274 4.75362 7.99901C4.75362 8.42528 4.83758 8.84738 5.00071 9.2412C5.16384 9.63503 5.40293 9.99286 5.70435 10.2943C6.00577 10.5957 6.36361 10.8348 6.75743 10.9979C7.15125 11.1611 7.57335 11.245 7.99962 11.245C8.86051 11.245 9.68615 10.903 10.2949 10.2943C10.9036 9.68554 11.2456 8.8599 11.2456 7.99901C11.2456 7.13812 10.9036 6.31249 10.2949 5.70374C9.68615 5.095 8.86051 4.75301 7.99962 4.75301ZM5.75362 7.99901C5.75362 7.40334 5.99025 6.83206 6.41146 6.41085C6.83267 5.98964 7.40395 5.75301 7.99962 5.75301C8.5953 5.75301 9.16658 5.98964 9.58778 6.41085C10.009 6.83206 10.2456 7.40334 10.2456 7.99901C10.2456 8.59469 10.009 9.16597 9.58778 9.58717C9.16658 10.0084 8.5953 10.245 7.99962 10.245C7.40395 10.245 6.83267 10.0084 6.41146 9.58717C5.99025 9.16597 5.75362 8.59469 5.75362 7.99901Z" fill="#212529"/>
<path d="M9.79562 1.34201C9.26862 -0.447988 6.73062 -0.447988 6.20362 1.34201L6.10962 1.66101C6.07282 1.78596 6.00852 1.9011 5.92144 1.99797C5.83436 2.09484 5.7267 2.171 5.60636 2.22086C5.48602 2.27073 5.35605 2.29303 5.22598 2.28613C5.0959 2.27923 4.96901 2.24332 4.85462 2.18101L4.56262 2.02101C2.92262 1.12901 1.12962 2.92301 2.02262 4.56201L2.18162 4.85401C2.24393 4.9684 2.27984 5.09529 2.28674 5.22537C2.29364 5.35544 2.27134 5.48541 2.22147 5.60575C2.17161 5.72609 2.09545 5.83375 1.99858 5.92083C1.90171 6.00791 1.78657 6.07221 1.66162 6.10901L1.34262 6.20301C-0.447378 6.73001 -0.447378 9.26801 1.34262 9.79501L1.66162 9.88901C1.78657 9.92582 1.90171 9.99011 1.99858 10.0772C2.09545 10.1643 2.17161 10.2719 2.22147 10.3923C2.27134 10.5126 2.29364 10.6426 2.28674 10.7727C2.27984 10.9027 2.24393 11.0296 2.18162 11.144L2.02162 11.436C1.12962 13.076 2.92262 14.87 4.56262 13.976L4.85462 13.817C4.96901 13.7547 5.0959 13.7188 5.22598 13.7119C5.35605 13.705 5.48602 13.7273 5.60636 13.7772C5.7267 13.827 5.83436 13.9032 5.92144 14.0001C6.00852 14.0969 6.07282 14.2121 6.10962 14.337L6.20362 14.656C6.73062 16.446 9.26862 16.446 9.79562 14.656L9.88962 14.337C9.92643 14.2121 9.99072 14.0969 10.0778 14.0001C10.1649 13.9032 10.2725 13.827 10.3929 13.7772C10.5132 13.7273 10.6432 13.705 10.7733 13.7119C10.9033 13.7188 11.0302 13.7547 11.1446 13.817L11.4366 13.977C13.0766 14.87 14.8706 13.075 13.9766 11.436L13.8176 11.144C13.7553 11.0296 13.7194 10.9027 13.7125 10.7727C13.7056 10.6426 13.7279 10.5126 13.7778 10.3923C13.8276 10.2719 13.9038 10.1643 14.0007 10.0772C14.0975 9.99011 14.2127 9.92582 14.3376 9.88901L14.6566 9.79501C16.4466 9.26801 16.4466 6.73001 14.6566 6.20301L14.3376 6.10901C14.2127 6.07221 14.0975 6.00791 14.0007 5.92083C13.9038 5.83375 13.8276 5.72609 13.7778 5.60575C13.7279 5.48541 13.7056 5.35544 13.7125 5.22537C13.7194 5.09529 13.7553 4.9684 13.8176 4.85401L13.9776 4.56201C14.8706 2.92201 13.0756 1.12901 11.4366 2.02201L11.1446 2.18101C11.0302 2.24332 10.9033 2.27923 10.7733 2.28613C10.6432 2.29303 10.5132 2.27073 10.3929 2.22086C10.2725 2.171 10.1649 2.09484 10.0778 1.99797C9.99072 1.9011 9.92643 1.78596 9.88962 1.66101L9.79562 1.34201ZM7.16262 1.62501C7.40862 0.790012 8.59062 0.790012 8.83662 1.62501L8.93062 1.94401C9.00964 2.2121 9.14766 2.4591 9.33455 2.66691C9.52144 2.87472 9.75247 3.03807 10.0107 3.14499C10.2689 3.25191 10.5478 3.29968 10.8269 3.2848C11.106 3.26992 11.3782 3.19278 11.6236 3.05901L11.9146 2.89901C12.6786 2.48401 13.5146 3.31901 13.0986 4.08401L12.9396 4.37601C12.8061 4.62144 12.7291 4.89364 12.7144 5.17267C12.6997 5.45169 12.7476 5.73048 12.8546 5.9886C12.9616 6.24671 13.125 6.47761 13.3328 6.66439C13.5406 6.85116 13.7876 6.98907 14.0556 7.06801L14.3736 7.16201C15.2086 7.40801 15.2086 8.59001 14.3736 8.83601L14.0546 8.93001C13.7865 9.00903 13.5395 9.14705 13.3317 9.33394C13.1239 9.52083 12.9606 9.75186 12.8536 10.0101C12.7467 10.2683 12.699 10.5472 12.7138 10.8263C12.7287 11.1054 12.8059 11.3776 12.9396 11.623L13.0996 11.914C13.5146 12.678 12.6796 13.514 11.9146 13.098L11.6236 12.939C11.3782 12.8053 11.1059 12.7282 10.8267 12.7133C10.5476 12.6985 10.2686 12.7464 10.0104 12.8534C9.75216 12.9604 9.52115 13.1239 9.3343 13.3318C9.14746 13.5397 9.00953 13.7868 8.93062 14.055L8.83662 14.373C8.59062 15.208 7.40862 15.208 7.16262 14.373L7.06862 14.054C6.98957 13.7861 6.85157 13.5392 6.66475 13.3315C6.47793 13.1238 6.24701 12.9605 5.98891 12.8536C5.73081 12.7467 5.45206 12.6989 5.17309 12.7137C4.89412 12.7284 4.62198 12.8054 4.37662 12.939L4.08462 13.099C3.32062 13.514 2.48462 12.679 2.90062 11.914L3.05962 11.623C3.19357 11.3776 3.27087 11.1053 3.28585 10.826C3.30082 10.5468 3.2531 10.2678 3.14617 10.0095C3.03924 9.75109 2.87582 9.51995 2.6679 9.33299C2.45998 9.14603 2.21285 9.008 1.94462 8.92901L1.62562 8.83501C0.790622 8.58901 0.790622 7.40701 1.62562 7.16101L1.94462 7.06701C2.21243 6.98792 2.45916 6.84995 2.66676 6.6632C2.87437 6.47645 3.03759 6.24564 3.14448 5.98767C3.25136 5.72969 3.29922 5.45109 3.28454 5.17223C3.26986 4.89338 3.19301 4.62133 3.05962 4.37601L2.89962 4.08401C2.48462 3.32001 3.31962 2.48401 4.08462 2.90001L4.37662 3.05901C4.62198 3.19259 4.89412 3.26959 5.17309 3.28436C5.45206 3.29914 5.73081 3.25133 5.98891 3.14443C6.24701 3.03753 6.47793 2.87424 6.66475 2.66653C6.85157 2.45883 6.98957 2.21196 7.06862 1.94401L7.16262 1.62501Z" fill="#212529"/>
</g>
<defs>
<clipPath id="clip0_6464_481826">
<rect width="16" height="16" fill="white"/>
</clipPath>
</defs>
</svg>
