<svg width="17" height="16" viewBox="0 0 17 16" fill="none" xmlns="http://www.w3.org/2000/svg">
<g clip-path="url(#clip0_6464_482402)">
<path d="M14.4996 0.999023C14.7649 0.999023 15.0192 1.10438 15.2068 1.29192C15.3943 1.47945 15.4996 1.73381 15.4996 1.99902V13.999C15.4996 14.2642 15.3943 14.5186 15.2068 14.7061C15.0192 14.8937 14.7649 14.999 14.4996 14.999H2.49965C2.23443 14.999 1.98008 14.8937 1.79254 14.7061C1.60501 14.5186 1.49965 14.2642 1.49965 13.999V1.99902C1.49965 1.73381 1.60501 1.47945 1.79254 1.29192C1.98008 1.10438 2.23443 0.999023 2.49965 0.999023H14.4996ZM2.49965 -0.000976562C1.96922 -0.000976562 1.46051 0.209737 1.08544 0.58481C0.710363 0.959883 0.499649 1.46859 0.499649 1.99902V13.999C0.499649 14.5295 0.710363 15.0382 1.08544 15.4132C1.46051 15.7883 1.96922 15.999 2.49965 15.999H14.4996C15.0301 15.999 15.5388 15.7883 15.9139 15.4132C16.2889 15.0382 16.4996 14.5295 16.4996 13.999V1.99902C16.4996 1.46859 16.2889 0.959883 15.9139 0.58481C15.5388 0.209737 15.0301 -0.000976562 14.4996 -0.000976562H2.49965Z" fill="white"/>
<path d="M8.49965 3.99902C8.63226 3.99902 8.75943 4.0517 8.8532 4.14547C8.94697 4.23924 8.99965 4.36642 8.99965 4.49902V7.49902H11.9996C12.1323 7.49902 12.2594 7.5517 12.3532 7.64547C12.447 7.73924 12.4996 7.86642 12.4996 7.99902C12.4996 8.13163 12.447 8.25881 12.3532 8.35258C12.2594 8.44635 12.1323 8.49902 11.9996 8.49902H8.99965V11.499C8.99965 11.6316 8.94697 11.7588 8.8532 11.8526C8.75943 11.9463 8.63226 11.999 8.49965 11.999C8.36704 11.999 8.23986 11.9463 8.1461 11.8526C8.05233 11.7588 7.99965 11.6316 7.99965 11.499V8.49902H4.99965C4.86704 8.49902 4.73986 8.44635 4.6461 8.35258C4.55233 8.25881 4.49965 8.13163 4.49965 7.99902C4.49965 7.86642 4.55233 7.73924 4.6461 7.64547C4.73986 7.5517 4.86704 7.49902 4.99965 7.49902H7.99965V4.49902C7.99965 4.36642 8.05233 4.23924 8.1461 4.14547C8.23986 4.0517 8.36704 3.99902 8.49965 3.99902Z" fill="white"/>
</g>
<defs>
<clipPath id="clip0_6464_482402">
<rect width="16" height="16" fill="white" transform="translate(0.5)"/>
</clipPath>
</defs>
</svg>
