<svg width="14" height="15" viewBox="0 0 14 15" fill="none" xmlns="http://www.w3.org/2000/svg">
<path d="M3.49951 9.93252C3.62901 11.3911 4.82339 12.4263 6.64164 12.5601V13.6241H7.55426V12.5601C9.54051 12.4035 10.7725 11.3019 10.7725 9.67265C10.7725 8.2814 9.94389 7.4764 8.18601 7.02315L7.55426 6.85952V3.53277C8.53601 3.62902 9.19839 4.15752 9.36551 4.94677H10.6518C10.5065 3.54677 9.30426 2.54227 7.55426 2.43115V1.37415H6.64164V2.45302C4.94501 2.65427 3.78039 3.74102 3.78039 5.21452C3.78039 6.48677 4.62564 7.38715 6.10876 7.7669L6.64251 7.90865V11.4358C5.63714 11.287 4.94501 10.7358 4.77789 9.93252H3.49951V9.93252ZM6.46664 6.57602C5.55401 6.3459 5.06664 5.85415 5.06664 5.16202C5.06664 4.33602 5.68264 3.72615 6.64164 3.56252V6.62065L6.46664 6.5769V6.57602ZM7.85876 8.21402C8.98489 8.49665 9.47926 8.96565 9.47926 9.7619C9.47926 10.7218 8.75651 11.3614 7.55426 11.4585V8.1379L7.85876 8.21315V8.21402Z" fill="#6C757D"/>
</svg>
