<svg width="16" height="17" viewBox="0 0 16 17" fill="none" xmlns="http://www.w3.org/2000/svg">
<g clip-path="url(#clip0_6464_474246)">
<path d="M13.9998 1.50098C14.265 1.50098 14.5193 1.60633 14.7069 1.79387C14.8944 1.98141 14.9998 2.23576 14.9998 2.50098V14.501C14.9998 14.7662 14.8944 15.0205 14.7069 15.2081C14.5193 15.3956 14.265 15.501 13.9998 15.501H1.99976C1.73454 15.501 1.48019 15.3956 1.29265 15.2081C1.10511 15.0205 0.999756 14.7662 0.999756 14.501V2.50098C0.999756 2.23576 1.10511 1.98141 1.29265 1.79387C1.48019 1.60633 1.73454 1.50098 1.99976 1.50098H13.9998ZM1.99976 0.500977C1.46932 0.500977 0.960615 0.71169 0.585542 1.08676C0.21047 1.46184 -0.000244141 1.97054 -0.000244141 2.50098V14.501C-0.000244141 15.0314 0.21047 15.5401 0.585542 15.9152C0.960615 16.2903 1.46932 16.501 1.99976 16.501H13.9998C14.5302 16.501 15.0389 16.2903 15.414 15.9152C15.789 15.5401 15.9998 15.0314 15.9998 14.501V2.50098C15.9998 1.97054 15.789 1.46184 15.414 1.08676C15.0389 0.71169 14.5302 0.500977 13.9998 0.500977H1.99976Z" fill="white"/>
<path d="M7.99976 4.50098C8.13236 4.50098 8.25954 4.55366 8.35331 4.64742C8.44708 4.74119 8.49976 4.86837 8.49976 5.00098V8.00098H11.4998C11.6324 8.00098 11.7595 8.05366 11.8533 8.14742C11.9471 8.24119 11.9998 8.36837 11.9998 8.50098C11.9998 8.63358 11.9471 8.76076 11.8533 8.85453C11.7595 8.9483 11.6324 9.00098 11.4998 9.00098H8.49976V12.001C8.49976 12.1336 8.44708 12.2608 8.35331 12.3545C8.25954 12.4483 8.13236 12.501 7.99976 12.501C7.86715 12.501 7.73997 12.4483 7.6462 12.3545C7.55243 12.2608 7.49976 12.1336 7.49976 12.001V9.00098H4.49976C4.36715 9.00098 4.23997 8.9483 4.1462 8.85453C4.05243 8.76076 3.99976 8.63358 3.99976 8.50098C3.99976 8.36837 4.05243 8.24119 4.1462 8.14742C4.23997 8.05366 4.36715 8.00098 4.49976 8.00098H7.49976V5.00098C7.49976 4.86837 7.55243 4.74119 7.6462 4.64742C7.73997 4.55366 7.86715 4.50098 7.99976 4.50098Z" fill="white"/>
</g>
<defs>
<clipPath id="clip0_6464_474246">
<rect width="16" height="16" fill="white" transform="translate(0 0.501953)"/>
</clipPath>
</defs>
</svg>
