<svg width="15" height="15" viewBox="0 0 15 15" fill="none" xmlns="http://www.w3.org/2000/svg">
<path d="M7.34229 7.58496C8.03848 7.58496 8.70616 7.3084 9.19844 6.81612C9.69072 6.32383 9.96729 5.65615 9.96729 4.95996C9.96729 4.26377 9.69072 3.59609 9.19844 3.10381C8.70616 2.61152 8.03848 2.33496 7.34229 2.33496C6.64609 2.33496 5.97841 2.61152 5.48613 3.10381C4.99385 3.59609 4.71729 4.26377 4.71729 4.95996C4.71729 5.65615 4.99385 6.32383 5.48613 6.81612C5.97841 7.3084 6.64609 7.58496 7.34229 7.58496V7.58496ZM9.09229 4.95996C9.09229 5.42409 8.90791 5.86921 8.57972 6.1974C8.25153 6.52559 7.80641 6.70996 7.34229 6.70996C6.87816 6.70996 6.43304 6.52559 6.10485 6.1974C5.77666 5.86921 5.59229 5.42409 5.59229 4.95996C5.59229 4.49583 5.77666 4.05071 6.10485 3.72252C6.43304 3.39434 6.87816 3.20996 7.34229 3.20996C7.80641 3.20996 8.25153 3.39434 8.57972 3.72252C8.90791 4.05071 9.09229 4.49583 9.09229 4.95996V4.95996ZM12.5923 11.96C12.5923 12.835 11.7173 12.835 11.7173 12.835H2.96729C2.96729 12.835 2.09229 12.835 2.09229 11.96C2.09229 11.085 2.96729 8.45996 7.34229 8.45996C11.7173 8.45996 12.5923 11.085 12.5923 11.96ZM11.7173 11.9565C11.7164 11.7412 11.5825 11.0937 10.9893 10.5005C10.4188 9.92996 9.34516 9.33496 7.34229 9.33496C5.33854 9.33496 4.26579 9.92996 3.69529 10.5005C3.10204 11.0937 2.96904 11.7412 2.96729 11.9565H11.7173Z" fill="#6C757D"/>
</svg>
