<svg width="15" height="14" viewBox="0 0 15 14" fill="none" xmlns="http://www.w3.org/2000/svg">
<g clip-path="url(#clip0_6464_475889)">
<path d="M7.99768 13.1251C6.37323 13.1251 4.81531 12.4798 3.66665 11.3312C2.51799 10.1825 1.87268 8.62457 1.87268 7.00012C1.87268 5.37567 2.51799 3.81775 3.66665 2.66909C4.81531 1.52043 6.37323 0.875122 7.99768 0.875122C9.62213 0.875122 11.18 1.52043 12.3287 2.66909C13.4774 3.81775 14.1227 5.37567 14.1227 7.00012C14.1227 8.62457 13.4774 10.1825 12.3287 11.3312C11.18 12.4798 9.62213 13.1251 7.99768 13.1251ZM7.99768 14.0001C9.8542 14.0001 11.6347 13.2626 12.9474 11.9499C14.2602 10.6371 14.9977 8.85664 14.9977 7.00012C14.9977 5.14361 14.2602 3.36313 12.9474 2.05037C11.6347 0.73762 9.8542 0.00012207 7.99768 0.00012207C6.14117 0.00012207 4.36069 0.73762 3.04793 2.05037C1.73518 3.36313 0.997681 5.14361 0.997681 7.00012C0.997681 8.85664 1.73518 10.6371 3.04793 11.9499C4.36069 13.2626 6.14117 14.0001 7.99768 14.0001Z" fill="#6C757D"/>
<path d="M8.81143 5.76462L6.80768 6.01575L6.73593 6.34825L7.12968 6.42087C7.38693 6.48212 7.43768 6.57487 7.38168 6.83125L6.73593 9.86575C6.56618 10.6506 6.82781 11.0199 7.44293 11.0199C7.91981 11.0199 8.47368 10.7994 8.72481 10.4966L8.80181 10.1326C8.62681 10.2866 8.37131 10.3479 8.20156 10.3479C7.96093 10.3479 7.87343 10.179 7.93556 9.8815L8.81143 5.76462ZM8.87268 3.93762C8.87268 4.16969 8.78049 4.39225 8.6164 4.55634C8.4523 4.72043 8.22975 4.81262 7.99768 4.81262C7.76562 4.81262 7.54306 4.72043 7.37896 4.55634C7.21487 4.39225 7.12268 4.16969 7.12268 3.93762C7.12268 3.70556 7.21487 3.483 7.37896 3.3189C7.54306 3.15481 7.76562 3.06262 7.99768 3.06262C8.22975 3.06262 8.4523 3.15481 8.6164 3.3189C8.78049 3.483 8.87268 3.70556 8.87268 3.93762Z" fill="#6C757D"/>
</g>
<defs>
<clipPath id="clip0_6464_475889">
<rect width="14" height="14" fill="white" transform="translate(0.998047 0.000976562)"/>
</clipPath>
</defs>
</svg>
