<svg width="16" height="16" viewBox="0 0 16 16" fill="none" xmlns="http://www.w3.org/2000/svg">
<g clip-path="url(#clip0_6464_482836)">
<path d="M7.99976 14.999C6.14324 14.999 4.36276 14.2615 3.05001 12.9488C1.73725 11.636 0.999756 9.85554 0.999756 7.99902C0.999756 6.14251 1.73725 4.36203 3.05001 3.04928C4.36276 1.73652 6.14324 0.999023 7.99976 0.999023C9.85627 0.999023 11.6367 1.73652 12.9495 3.04928C14.2623 4.36203 14.9998 6.14251 14.9998 7.99902C14.9998 9.85554 14.2623 11.636 12.9495 12.9488C11.6367 14.2615 9.85627 14.999 7.99976 14.999ZM7.99976 15.999C10.1215 15.999 12.1563 15.1562 13.6566 13.6559C15.1569 12.1556 15.9998 10.1208 15.9998 7.99902C15.9998 5.87729 15.1569 3.84246 13.6566 2.34217C12.1563 0.841878 10.1215 -0.000976562 7.99976 -0.000976562C5.87802 -0.000976562 3.84319 0.841878 2.3429 2.34217C0.842611 3.84246 -0.000244141 5.87729 -0.000244141 7.99902C-0.000244141 10.1208 0.842611 12.1556 2.3429 13.6559C3.84319 15.1562 5.87802 15.999 7.99976 15.999Z" fill="white"/>
<path d="M7.99976 3.99902C8.13236 3.99902 8.25954 4.0517 8.35331 4.14547C8.44708 4.23924 8.49976 4.36642 8.49976 4.49902V7.49902H11.4998C11.6324 7.49902 11.7595 7.5517 11.8533 7.64547C11.9471 7.73924 11.9998 7.86642 11.9998 7.99902C11.9998 8.13163 11.9471 8.25881 11.8533 8.35258C11.7595 8.44635 11.6324 8.49902 11.4998 8.49902H8.49976V11.499C8.49976 11.6316 8.44708 11.7588 8.35331 11.8526C8.25954 11.9463 8.13236 11.999 7.99976 11.999C7.86715 11.999 7.73997 11.9463 7.6462 11.8526C7.55243 11.7588 7.49976 11.6316 7.49976 11.499V8.49902H4.49976C4.36715 8.49902 4.23997 8.44635 4.1462 8.35258C4.05243 8.25881 3.99976 8.13163 3.99976 7.99902C3.99976 7.86642 4.05243 7.73924 4.1462 7.64547C4.23997 7.5517 4.36715 7.49902 4.49976 7.49902H7.49976V4.49902C7.49976 4.36642 7.55243 4.23924 7.6462 4.14547C7.73997 4.0517 7.86715 3.99902 7.99976 3.99902Z" fill="white"/>
</g>
<defs>
<clipPath id="clip0_6464_482836">
<rect width="16" height="16" fill="white"/>
</clipPath>
</defs>
</svg>
