<svg width="15" height="15" viewBox="0 0 15 15" fill="none" xmlns="http://www.w3.org/2000/svg">
<g clip-path="url(#clip0_6464_473901)">
<path d="M14.3425 7.58496C14.3425 9.44148 13.605 11.222 12.2923 12.5347C10.9795 13.8475 9.19904 14.585 7.34253 14.585C5.48601 14.585 3.70554 13.8475 2.39278 12.5347C1.08003 11.222 0.342529 9.44148 0.342529 7.58496C0.342529 5.72845 1.08003 3.94797 2.39278 2.63521C3.70554 1.32246 5.48601 0.584961 7.34253 0.584961C9.19904 0.584961 10.9795 1.32246 12.2923 2.63521C13.605 3.94797 14.3425 5.72845 14.3425 7.58496V7.58496ZM5.02728 4.65021C4.94513 4.56806 4.83371 4.52191 4.71753 4.52191C4.60135 4.52191 4.48993 4.56806 4.40778 4.65021C4.32563 4.73236 4.27948 4.84378 4.27948 4.95996C4.27948 5.07614 4.32563 5.18756 4.40778 5.26971L6.7239 7.58496L4.40778 9.90021C4.3671 9.94089 4.33484 9.98918 4.31282 10.0423C4.29081 10.0955 4.27948 10.1524 4.27948 10.21C4.27948 10.2675 4.29081 10.3244 4.31282 10.3776C4.33484 10.4307 4.3671 10.479 4.40778 10.5197C4.48993 10.6019 4.60135 10.648 4.71753 10.648C4.77506 10.648 4.83202 10.6367 4.88516 10.6147C4.93831 10.5927 4.9866 10.5604 5.02728 10.5197L7.34253 8.20359L9.65778 10.5197C9.69846 10.5604 9.74675 10.5927 9.79989 10.6147C9.85304 10.6367 9.91 10.648 9.96753 10.648C10.0251 10.648 10.082 10.6367 10.1352 10.6147C10.1883 10.5927 10.2366 10.5604 10.2773 10.5197C10.318 10.479 10.3502 10.4307 10.3722 10.3776C10.3943 10.3244 10.4056 10.2675 10.4056 10.21C10.4056 10.1524 10.3943 10.0955 10.3722 10.0423C10.3502 9.98918 10.318 9.94089 10.2773 9.90021L7.96115 7.58496L10.2773 5.26971C10.318 5.22903 10.3502 5.18074 10.3722 5.1276C10.3943 5.07445 10.4056 5.01749 10.4056 4.95996C10.4056 4.90244 10.3943 4.84547 10.3722 4.79233C10.3502 4.73918 10.318 4.69089 10.2773 4.65021C10.2366 4.60953 10.1883 4.57727 10.1352 4.55525C10.082 4.53324 10.0251 4.52191 9.96753 4.52191C9.91 4.52191 9.85304 4.53324 9.79989 4.55525C9.74675 4.57727 9.69846 4.60953 9.65778 4.65021L7.34253 6.96634L5.02728 4.65021Z" fill="#6C757D"/>
</g>
<defs>
<clipPath id="clip0_6464_473901">
<rect width="14" height="14" fill="white" transform="translate(0.342773 0.585938)"/>
</clipPath>
</defs>
</svg>
