<svg width="16" height="16" viewBox="0 0 16 16" fill="none" xmlns="http://www.w3.org/2000/svg">
<path d="M7.99951 7.99918C8.79516 7.99918 9.55822 7.68311 10.1208 7.1205C10.6834 6.55789 10.9995 5.79483 10.9995 4.99918C10.9995 4.20353 10.6834 3.44046 10.1208 2.87786C9.55822 2.31525 8.79516 1.99918 7.99951 1.99918C7.20386 1.99918 6.4408 2.31525 5.87819 2.87786C5.31558 3.44046 4.99951 4.20353 4.99951 4.99918C4.99951 5.79483 5.31558 6.55789 5.87819 7.1205C6.4408 7.68311 7.20386 7.99918 7.99951 7.99918V7.99918ZM9.99951 4.99918C9.99951 5.52961 9.7888 6.03832 9.41372 6.41339C9.03865 6.78846 8.52994 6.99918 7.99951 6.99918C7.46908 6.99918 6.96037 6.78846 6.5853 6.41339C6.21023 6.03832 5.99951 5.52961 5.99951 4.99918C5.99951 4.46874 6.21023 3.96004 6.5853 3.58496C6.96037 3.20989 7.46908 2.99918 7.99951 2.99918C8.52994 2.99918 9.03865 3.20989 9.41372 3.58496C9.7888 3.96004 9.99951 4.46874 9.99951 4.99918V4.99918ZM13.9995 12.9992C13.9995 13.9992 12.9995 13.9992 12.9995 13.9992H2.99951C2.99951 13.9992 1.99951 13.9992 1.99951 12.9992C1.99951 11.9992 2.99951 8.99918 7.99951 8.99918C12.9995 8.99918 13.9995 11.9992 13.9995 12.9992ZM12.9995 12.9952C12.9985 12.7492 12.8455 12.0092 12.1675 11.3312C11.5155 10.6792 10.2885 9.99918 7.99951 9.99918C5.70951 9.99918 4.48351 10.6792 3.83151 11.3312C3.15351 12.0092 3.00151 12.7492 2.99951 12.9952H12.9995Z" fill="#6C757D"/>
</svg>
