<svg width="9" height="9" viewBox="0 0 9 9" fill="none" xmlns="http://www.w3.org/2000/svg">
<path fill-rule="evenodd" clip-rule="evenodd" d="M4.32283 2.57198C4.34605 2.5487 4.37364 2.53023 4.40401 2.51763C4.43438 2.50502 4.46694 2.49854 4.49983 2.49854C4.53271 2.49854 4.56527 2.50502 4.59564 2.51763C4.62602 2.53023 4.6536 2.5487 4.67683 2.57198L7.67683 5.57198C7.72377 5.61893 7.75014 5.68259 7.75014 5.74898C7.75014 5.81537 7.72377 5.87904 7.67683 5.92598C7.62988 5.97293 7.56622 5.9993 7.49983 5.9993C7.43344 5.9993 7.36977 5.97293 7.32283 5.92598L4.49983 3.10248L1.67683 5.92598C1.62988 5.97293 1.56622 5.9993 1.49983 5.9993C1.43344 5.9993 1.36977 5.97293 1.32283 5.92598C1.27588 5.87904 1.24951 5.81537 1.24951 5.74898C1.24951 5.68259 1.27588 5.61893 1.32283 5.57198L4.32283 2.57198Z" fill="#6C757D"/>
</svg>
