<svg width="14" height="14" viewBox="0 0 14 14" fill="none" xmlns="http://www.w3.org/2000/svg">
<path d="M3.49963 9.43258C3.62913 10.8912 4.82351 11.9263 6.64176 12.0602V13.1242H7.55438V12.0602C9.54063 11.9036 10.7726 10.802 10.7726 9.17271C10.7726 7.78146 9.94401 6.97646 8.18613 6.52321L7.55438 6.35958V3.03283C8.53613 3.12908 9.19851 3.65758 9.36563 4.44683H10.6519C10.5066 3.04683 9.30438 2.04233 7.55438 1.93121V0.874207H6.64176V1.95308C4.94513 2.15433 3.78051 3.24108 3.78051 4.71458C3.78051 5.98683 4.62576 6.88721 6.10888 7.26696L6.64263 7.40871V10.9358C5.63726 10.7871 4.94513 10.2358 4.77801 9.43258H3.49963V9.43258ZM6.46676 6.07608C5.55413 5.84596 5.06676 5.35421 5.06676 4.66208C5.06676 3.83608 5.68276 3.22621 6.64176 3.06258V6.12071L6.46676 6.07696V6.07608ZM7.85888 7.71408C8.98501 7.99671 9.47938 8.46571 9.47938 9.26196C9.47938 10.2218 8.75663 10.8615 7.55438 10.9586V7.63796L7.85888 7.71321V7.71408Z" fill="#6C757D"/>
</svg>
