<svg width="12" height="12" viewBox="0 0 12 12" fill="none" xmlns="http://www.w3.org/2000/svg">
<g clip-path="url(#clip0_6464_477700)">
<path d="M5.99976 11.2492C4.60737 11.2492 3.27201 10.6961 2.28745 9.71152C1.30288 8.72695 0.749756 7.39159 0.749756 5.99921C0.749756 4.60682 1.30288 3.27146 2.28745 2.2869C3.27201 1.30233 4.60737 0.749207 5.99976 0.749207C7.39214 0.749207 8.7275 1.30233 9.71207 2.2869C10.6966 3.27146 11.2498 4.60682 11.2498 5.99921C11.2498 7.39159 10.6966 8.72695 9.71207 9.71152C8.7275 10.6961 7.39214 11.2492 5.99976 11.2492ZM5.99976 11.9992C7.59105 11.9992 9.11718 11.3671 10.2424 10.2418C11.3676 9.11663 11.9998 7.59051 11.9998 5.99921C11.9998 4.40791 11.3676 2.88178 10.2424 1.75657C9.11718 0.631348 7.59105 -0.000793457 5.99976 -0.000793457C4.40846 -0.000793457 2.88233 0.631348 1.75712 1.75657C0.631897 2.88178 -0.000244141 4.40791 -0.000244141 5.99921C-0.000244141 7.59051 0.631897 9.11663 1.75712 10.2418C2.88233 11.3671 4.40846 11.9992 5.99976 11.9992Z" fill="#6C757D"/>
<path d="M6.69726 4.94021L4.97976 5.15546L4.91826 5.44046L5.25576 5.50271C5.47626 5.55521 5.51976 5.63471 5.47176 5.85446L4.91826 8.45546C4.77276 9.12821 4.99701 9.44471 5.52426 9.44471C5.93301 9.44471 6.40776 9.25571 6.62301 8.99621L6.68901 8.68421C6.53901 8.81621 6.32001 8.86871 6.17451 8.86871C5.96826 8.86871 5.89326 8.72396 5.94651 8.46896L6.69726 4.94021ZM6.74976 3.37421C6.74976 3.57312 6.67074 3.76388 6.53009 3.90454C6.38943 4.04519 6.19867 4.12421 5.99976 4.12421C5.80084 4.12421 5.61008 4.04519 5.46943 3.90454C5.32877 3.76388 5.24976 3.57312 5.24976 3.37421C5.24976 3.17529 5.32877 2.98453 5.46943 2.84388C5.61008 2.70322 5.80084 2.62421 5.99976 2.62421C6.19867 2.62421 6.38943 2.70322 6.53009 2.84388C6.67074 2.98453 6.74976 3.17529 6.74976 3.37421Z" fill="#6C757D"/>
</g>
<defs>
<clipPath id="clip0_6464_477700">
<rect width="12" height="12" fill="white"/>
</clipPath>
</defs>
</svg>
