<svg width="14" height="14" viewBox="0 0 14 14" fill="none" xmlns="http://www.w3.org/2000/svg">
<g clip-path="url(#clip0_6464_472467)">
<path d="M13.9995 6.99902C13.9995 8.85554 13.262 10.636 11.9493 11.9488C10.6365 13.2615 8.85603 13.999 6.99951 13.999C5.143 13.999 3.36252 13.2615 2.04976 11.9488C0.73701 10.636 -0.000488281 8.85554 -0.000488281 6.99902C-0.000488281 5.14251 0.73701 3.36203 2.04976 2.04928C3.36252 0.736521 5.143 -0.000976562 6.99951 -0.000976562C8.85603 -0.000976562 10.6365 0.736521 11.9493 2.04928C13.262 3.36203 13.9995 5.14251 13.9995 6.99902V6.99902ZM4.68426 4.06427C4.60211 3.98212 4.49069 3.93597 4.37451 3.93597C4.25833 3.93597 4.14691 3.98212 4.06476 4.06427C3.98261 4.14642 3.93646 4.25784 3.93646 4.37402C3.93646 4.4902 3.98261 4.60162 4.06476 4.68377L6.38089 6.99902L4.06476 9.31427C4.02408 9.35495 3.99182 9.40324 3.9698 9.45639C3.94779 9.50953 3.93646 9.5665 3.93646 9.62402C3.93646 9.68155 3.94779 9.73851 3.9698 9.79166C3.99182 9.84481 4.02408 9.8931 4.06476 9.93377C4.14691 10.0159 4.25833 10.0621 4.37451 10.0621C4.43204 10.0621 4.489 10.0507 4.54215 10.0287C4.59529 10.0067 4.64358 9.97445 4.68426 9.93377L6.99951 7.61765L9.31476 9.93377C9.35544 9.97445 9.40373 10.0067 9.45688 10.0287C9.51002 10.0507 9.56699 10.0621 9.62451 10.0621C9.68204 10.0621 9.739 10.0507 9.79215 10.0287C9.84529 10.0067 9.89358 9.97445 9.93426 9.93377C9.97494 9.8931 10.0072 9.84481 10.0292 9.79166C10.0512 9.73851 10.0626 9.68155 10.0626 9.62402C10.0626 9.5665 10.0512 9.50953 10.0292 9.45639C10.0072 9.40324 9.97494 9.35495 9.93426 9.31427L7.61814 6.99902L9.93426 4.68377C9.97494 4.6431 10.0072 4.59481 10.0292 4.54166C10.0512 4.48851 10.0626 4.43155 10.0626 4.37402C10.0626 4.3165 10.0512 4.25953 10.0292 4.20639C10.0072 4.15324 9.97494 4.10495 9.93426 4.06427C9.89358 4.0236 9.84529 3.99133 9.79215 3.96932C9.739 3.9473 9.68204 3.93597 9.62451 3.93597C9.56699 3.93597 9.51002 3.9473 9.45688 3.96932C9.40373 3.99133 9.35544 4.0236 9.31476 4.06427L6.99951 6.3804L4.68426 4.06427Z" fill="#6C757D"/>
</g>
<defs>
<clipPath id="clip0_6464_472467">
<rect width="14" height="14" fill="white"/>
</clipPath>
</defs>
</svg>
