<svg width="16" height="16" viewBox="0 0 16 16" fill="none" xmlns="http://www.w3.org/2000/svg">
<g clip-path="url(#clip0_6464_471575)">
<path d="M13.9995 0.999268C14.2647 0.999268 14.5191 1.10462 14.7066 1.29216C14.8942 1.4797 14.9995 1.73405 14.9995 1.99927V13.9993C14.9995 14.2645 14.8942 14.5188 14.7066 14.7064C14.5191 14.8939 14.2647 14.9993 13.9995 14.9993H1.99951C1.7343 14.9993 1.47994 14.8939 1.2924 14.7064C1.10487 14.5188 0.999512 14.2645 0.999512 13.9993V1.99927C0.999512 1.73405 1.10487 1.4797 1.2924 1.29216C1.47994 1.10462 1.7343 0.999268 1.99951 0.999268H13.9995ZM1.99951 -0.000732422C1.46908 -0.000732422 0.960371 0.209981 0.585298 0.585054C0.210225 0.960127 -0.000488281 1.46883 -0.000488281 1.99927V13.9993C-0.000488281 14.5297 0.210225 15.0384 0.585298 15.4135C0.960371 15.7886 1.46908 15.9993 1.99951 15.9993H13.9995C14.5299 15.9993 15.0387 15.7886 15.4137 15.4135C15.7888 15.0384 15.9995 14.5297 15.9995 13.9993V1.99927C15.9995 1.46883 15.7888 0.960127 15.4137 0.585054C15.0387 0.209981 14.5299 -0.000732422 13.9995 -0.000732422H1.99951Z" fill="white"/>
<path d="M7.99951 3.99927C8.13212 3.99927 8.2593 4.05195 8.35307 4.14571C8.44683 4.23948 8.49951 4.36666 8.49951 4.49927V7.49927H11.4995C11.6321 7.49927 11.7593 7.55195 11.8531 7.64571C11.9468 7.73948 11.9995 7.86666 11.9995 7.99927C11.9995 8.13188 11.9468 8.25905 11.8531 8.35282C11.7593 8.44659 11.6321 8.49927 11.4995 8.49927H8.49951V11.4993C8.49951 11.6319 8.44683 11.7591 8.35307 11.8528C8.2593 11.9466 8.13212 11.9993 7.99951 11.9993C7.8669 11.9993 7.73973 11.9466 7.64596 11.8528C7.55219 11.7591 7.49951 11.6319 7.49951 11.4993V8.49927H4.49951C4.3669 8.49927 4.23973 8.44659 4.14596 8.35282C4.05219 8.25905 3.99951 8.13188 3.99951 7.99927C3.99951 7.86666 4.05219 7.73948 4.14596 7.64571C4.23973 7.55195 4.3669 7.49927 4.49951 7.49927H7.49951V4.49927C7.49951 4.36666 7.55219 4.23948 7.64596 4.14571C7.73973 4.05195 7.8669 3.99927 7.99951 3.99927Z" fill="white"/>
</g>
<defs>
<clipPath id="clip0_6464_471575">
<rect width="16" height="16" fill="white"/>
</clipPath>
</defs>
</svg>
