<svg width="16" height="16" viewBox="0 0 16 16" fill="none" xmlns="http://www.w3.org/2000/svg">
<g clip-path="url(#clip0_6464_481892)">
<path d="M7.99963 14.999C6.14312 14.999 4.36264 14.2615 3.04989 12.9488C1.73713 11.636 0.999634 9.85554 0.999634 7.99902C0.999634 6.14251 1.73713 4.36203 3.04989 3.04928C4.36264 1.73652 6.14312 0.999023 7.99963 0.999023C9.85615 0.999023 11.6366 1.73652 12.9494 3.04928C14.2621 4.36203 14.9996 6.14251 14.9996 7.99902C14.9996 9.85554 14.2621 11.636 12.9494 12.9488C11.6366 14.2615 9.85615 14.999 7.99963 14.999ZM7.99963 15.999C10.1214 15.999 12.1562 15.1562 13.6565 13.6559C15.1568 12.1556 15.9996 10.1208 15.9996 7.99902C15.9996 5.87729 15.1568 3.84246 13.6565 2.34217C12.1562 0.841878 10.1214 -0.000976562 7.99963 -0.000976562C5.8779 -0.000976562 3.84307 0.841878 2.34278 2.34217C0.842489 3.84246 -0.000366211 5.87729 -0.000366211 7.99902C-0.000366211 10.1208 0.842489 12.1556 2.34278 13.6559C3.84307 15.1562 5.8779 15.999 7.99963 15.999Z" fill="white"/>
<path d="M7.99963 3.99902C8.13224 3.99902 8.25942 4.0517 8.35319 4.14547C8.44696 4.23924 8.49963 4.36642 8.49963 4.49902V7.49902H11.4996C11.6322 7.49902 11.7594 7.5517 11.8532 7.64547C11.947 7.73924 11.9996 7.86642 11.9996 7.99902C11.9996 8.13163 11.947 8.25881 11.8532 8.35258C11.7594 8.44635 11.6322 8.49902 11.4996 8.49902H8.49963V11.499C8.49963 11.6316 8.44696 11.7588 8.35319 11.8526C8.25942 11.9463 8.13224 11.999 7.99963 11.999C7.86703 11.999 7.73985 11.9463 7.64608 11.8526C7.55231 11.7588 7.49963 11.6316 7.49963 11.499V8.49902H4.49963C4.36703 8.49902 4.23985 8.44635 4.14608 8.35258C4.05231 8.25881 3.99963 8.13163 3.99963 7.99902C3.99963 7.86642 4.05231 7.73924 4.14608 7.64547C4.23985 7.5517 4.36703 7.49902 4.49963 7.49902H7.49963V4.49902C7.49963 4.36642 7.55231 4.23924 7.64608 4.14547C7.73985 4.0517 7.86703 3.99902 7.99963 3.99902Z" fill="white"/>
</g>
<defs>
<clipPath id="clip0_6464_481892">
<rect width="16" height="16" fill="white"/>
</clipPath>
</defs>
</svg>
