<svg width="12" height="12" viewBox="0 0 12 12" fill="none" xmlns="http://www.w3.org/2000/svg">
<g clip-path="url(#clip0_6464_480733)">
<path d="M5.99951 11.2491C4.60713 11.2491 3.27177 10.696 2.2872 9.71146C1.30264 8.72689 0.749512 7.39153 0.749512 5.99915C0.749512 4.60676 1.30264 3.2714 2.2872 2.28683C3.27177 1.30227 4.60713 0.749146 5.99951 0.749146C7.3919 0.749146 8.72726 1.30227 9.71182 2.28683C10.6964 3.2714 11.2495 4.60676 11.2495 5.99915C11.2495 7.39153 10.6964 8.72689 9.71182 9.71146C8.72726 10.696 7.3919 11.2491 5.99951 11.2491ZM5.99951 11.9991C7.59081 11.9991 9.11693 11.367 10.2422 10.2418C11.3674 9.11657 11.9995 7.59044 11.9995 5.99915C11.9995 4.40785 11.3674 2.88172 10.2422 1.7565C9.11693 0.631287 7.59081 -0.000854492 5.99951 -0.000854492C4.40821 -0.000854492 2.88209 0.631287 1.75687 1.7565C0.631653 2.88172 -0.000488281 4.40785 -0.000488281 5.99915C-0.000488281 7.59044 0.631653 9.11657 1.75687 10.2418C2.88209 11.367 4.40821 11.9991 5.99951 11.9991Z" fill="#6C757D"/>
<path d="M6.69701 4.94015L4.97951 5.1554L4.91801 5.4404L5.25551 5.50265C5.47601 5.55515 5.51951 5.63465 5.47151 5.8544L4.91801 8.4554C4.77251 9.12815 4.99676 9.44465 5.52401 9.44465C5.93276 9.44465 6.40751 9.25565 6.62276 8.99615L6.68876 8.68415C6.53876 8.81615 6.31976 8.86865 6.17426 8.86865C5.96801 8.86865 5.89301 8.7239 5.94626 8.4689L6.69701 4.94015ZM6.74951 3.37415C6.74951 3.57306 6.67049 3.76382 6.52984 3.90448C6.38919 4.04513 6.19842 4.12415 5.99951 4.12415C5.8006 4.12415 5.60983 4.04513 5.46918 3.90448C5.32853 3.76382 5.24951 3.57306 5.24951 3.37415C5.24951 3.17523 5.32853 2.98447 5.46918 2.84382C5.60983 2.70316 5.8006 2.62415 5.99951 2.62415C6.19842 2.62415 6.38919 2.70316 6.52984 2.84382C6.67049 2.98447 6.74951 3.17523 6.74951 3.37415Z" fill="#6C757D"/>
</g>
<defs>
<clipPath id="clip0_6464_480733">
<rect width="12" height="12" fill="white"/>
</clipPath>
</defs>
</svg>
