<svg width="14" height="14" viewBox="0 0 14 14" fill="none" xmlns="http://www.w3.org/2000/svg">
<path d="M6.99963 6.99902C7.69583 6.99902 8.36351 6.72246 8.85579 6.23018C9.34807 5.7379 9.62463 5.07022 9.62463 4.37402C9.62463 3.67783 9.34807 3.01015 8.85579 2.51787C8.36351 2.02559 7.69583 1.74902 6.99963 1.74902C6.30344 1.74902 5.63576 2.02559 5.14348 2.51787C4.6512 3.01015 4.37463 3.67783 4.37463 4.37402C4.37463 5.07022 4.6512 5.7379 5.14348 6.23018C5.63576 6.72246 6.30344 6.99902 6.99963 6.99902V6.99902ZM8.74963 4.37402C8.74963 4.83815 8.56526 5.28327 8.23707 5.61146C7.90888 5.93965 7.46376 6.12402 6.99963 6.12402C6.5355 6.12402 6.09039 5.93965 5.7622 5.61146C5.43401 5.28327 5.24963 4.83815 5.24963 4.37402C5.24963 3.90989 5.43401 3.46478 5.7622 3.13659C6.09039 2.8084 6.5355 2.62402 6.99963 2.62402C7.46376 2.62402 7.90888 2.8084 8.23707 3.13659C8.56526 3.46478 8.74963 3.90989 8.74963 4.37402V4.37402ZM12.2496 11.374C12.2496 12.249 11.3746 12.249 11.3746 12.249H2.62463C2.62463 12.249 1.74963 12.249 1.74963 11.374C1.74963 10.499 2.62463 7.87402 6.99963 7.87402C11.3746 7.87402 12.2496 10.499 12.2496 11.374ZM11.3746 11.3705C11.3738 11.1553 11.2399 10.5078 10.6466 9.91452C10.0761 9.34402 9.00251 8.74902 6.99963 8.74902C4.99588 8.74902 3.92313 9.34402 3.35263 9.91452C2.75938 10.5078 2.62638 11.1553 2.62463 11.3705H11.3746Z" fill="#6C757D"/>
</svg>
