<svg width="14" height="15" viewBox="0 0 14 15" fill="none" xmlns="http://www.w3.org/2000/svg">
<path d="M3.49951 9.9324C3.62901 11.391 4.82339 12.4261 6.64164 12.56V13.624H7.55426V12.56C9.54051 12.4034 10.7725 11.3018 10.7725 9.67252C10.7725 8.28127 9.94389 7.47627 8.18601 7.02302L7.55426 6.8594V3.53265C8.53601 3.6289 9.19839 4.1574 9.36551 4.94665H10.6518C10.5065 3.54665 9.30426 2.54215 7.55426 2.43102V1.37402H6.64164V2.4529C4.94501 2.65415 3.78039 3.7409 3.78039 5.2144C3.78039 6.48665 4.62564 7.38702 6.10876 7.76677L6.64251 7.90852V11.4356C5.63714 11.2869 4.94501 10.7356 4.77789 9.9324H3.49951V9.9324ZM6.46664 6.5759C5.55401 6.34577 5.06664 5.85402 5.06664 5.1619C5.06664 4.3359 5.68264 3.72602 6.64164 3.5624V6.62052L6.46664 6.57677V6.5759ZM7.85876 8.2139C8.98489 8.49652 9.47926 8.96552 9.47926 9.76177C9.47926 10.7216 8.75651 11.3613 7.55426 11.4584V8.13777L7.85876 8.21302V8.2139Z" fill="#6C757D"/>
</svg>
