<svg width="16" height="17" viewBox="0 0 16 17" fill="none" xmlns="http://www.w3.org/2000/svg">
<g clip-path="url(#clip0_6464_480597)">
<path d="M13.9995 1.57123C14.2647 1.57123 14.5191 1.67658 14.7066 1.86412C14.8942 2.05166 14.9995 2.30601 14.9995 2.57123V14.5712C14.9995 14.8364 14.8942 15.0908 14.7066 15.2783C14.5191 15.4659 14.2647 15.5712 13.9995 15.5712H1.99951C1.7343 15.5712 1.47994 15.4659 1.2924 15.2783C1.10487 15.0908 0.999512 14.8364 0.999512 14.5712V2.57123C0.999512 2.30601 1.10487 2.05166 1.2924 1.86412C1.47994 1.67658 1.7343 1.57123 1.99951 1.57123H13.9995ZM1.99951 0.571228C1.46908 0.571228 0.960371 0.781942 0.585298 1.15701C0.210225 1.53209 -0.000488281 2.0408 -0.000488281 2.57123V14.5712C-0.000488281 15.1017 0.210225 15.6104 0.585298 15.9854C0.960371 16.3605 1.46908 16.5712 1.99951 16.5712H13.9995C14.5299 16.5712 15.0387 16.3605 15.4137 15.9854C15.7888 15.6104 15.9995 15.1017 15.9995 14.5712V2.57123C15.9995 2.0408 15.7888 1.53209 15.4137 1.15701C15.0387 0.781942 14.5299 0.571228 13.9995 0.571228H1.99951Z" fill="white"/>
<path d="M7.99951 4.57123C8.13212 4.57123 8.2593 4.62391 8.35307 4.71767C8.44683 4.81144 8.49951 4.93862 8.49951 5.07123V8.07123H11.4995C11.6321 8.07123 11.7593 8.12391 11.8531 8.21767C11.9468 8.31144 11.9995 8.43862 11.9995 8.57123C11.9995 8.70384 11.9468 8.83101 11.8531 8.92478C11.7593 9.01855 11.6321 9.07123 11.4995 9.07123H8.49951V12.0712C8.49951 12.2038 8.44683 12.331 8.35307 12.4248C8.2593 12.5185 8.13212 12.5712 7.99951 12.5712C7.8669 12.5712 7.73973 12.5185 7.64596 12.4248C7.55219 12.331 7.49951 12.2038 7.49951 12.0712V9.07123H4.49951C4.3669 9.07123 4.23973 9.01855 4.14596 8.92478C4.05219 8.83101 3.99951 8.70384 3.99951 8.57123C3.99951 8.43862 4.05219 8.31144 4.14596 8.21767C4.23973 8.12391 4.3669 8.07123 4.49951 8.07123H7.49951V5.07123C7.49951 4.93862 7.55219 4.81144 7.64596 4.71767C7.73973 4.62391 7.8669 4.57123 7.99951 4.57123Z" fill="white"/>
</g>
<defs>
<clipPath id="clip0_6464_480597">
<rect width="16" height="16" fill="white" transform="translate(0 0.572021)"/>
</clipPath>
</defs>
</svg>
