<svg width="16" height="16" viewBox="0 0 16 16" fill="none" xmlns="http://www.w3.org/2000/svg">
<g clip-path="url(#clip0_6464_482792)">
<path d="M7.99974 4.75301C7.57347 4.75301 7.15138 4.83697 6.75755 5.0001C6.36373 5.16323 6.00589 5.40232 5.70448 5.70374C5.40306 6.00516 5.16396 6.363 5.00083 6.75682C4.8377 7.15064 4.75374 7.57274 4.75374 7.99901C4.75374 8.42528 4.8377 8.84738 5.00083 9.2412C5.16396 9.63503 5.40306 9.99286 5.70448 10.2943C6.00589 10.5957 6.36373 10.8348 6.75755 10.9979C7.15138 11.1611 7.57347 11.245 7.99974 11.245C8.86064 11.245 9.68627 10.903 10.295 10.2943C10.9038 9.68554 11.2457 8.8599 11.2457 7.99901C11.2457 7.13812 10.9038 6.31249 10.295 5.70374C9.68627 5.095 8.86064 4.75301 7.99974 4.75301ZM5.75374 7.99901C5.75374 7.40334 5.99038 6.83206 6.41158 6.41085C6.83279 5.98964 7.40407 5.75301 7.99974 5.75301C8.59542 5.75301 9.1667 5.98964 9.58791 6.41085C10.0091 6.83206 10.2457 7.40334 10.2457 7.99901C10.2457 8.59469 10.0091 9.16597 9.58791 9.58717C9.1667 10.0084 8.59542 10.245 7.99974 10.245C7.40407 10.245 6.83279 10.0084 6.41158 9.58717C5.99038 9.16597 5.75374 8.59469 5.75374 7.99901Z" fill="#212529"/>
<path d="M9.79574 1.34201C9.26874 -0.447988 6.73074 -0.447988 6.20374 1.34201L6.10974 1.66101C6.07294 1.78596 6.00864 1.9011 5.92156 1.99797C5.83448 2.09484 5.72682 2.171 5.60649 2.22086C5.48615 2.27073 5.35618 2.29303 5.2261 2.28613C5.09602 2.27923 4.96914 2.24332 4.85474 2.18101L4.56274 2.02101C2.92274 1.12901 1.12974 2.92301 2.02274 4.56201L2.18174 4.85401C2.24405 4.9684 2.27997 5.09529 2.28686 5.22537C2.29376 5.35544 2.27146 5.48541 2.2216 5.60575C2.17173 5.72609 2.09558 5.83375 1.9987 5.92083C1.90183 6.00791 1.7867 6.07221 1.66174 6.10901L1.34274 6.20301C-0.447256 6.73001 -0.447256 9.26801 1.34274 9.79501L1.66174 9.88901C1.7867 9.92582 1.90183 9.99011 1.9987 10.0772C2.09558 10.1643 2.17173 10.2719 2.2216 10.3923C2.27146 10.5126 2.29376 10.6426 2.28686 10.7727C2.27997 10.9027 2.24405 11.0296 2.18174 11.144L2.02174 11.436C1.12974 13.076 2.92274 14.87 4.56274 13.976L4.85474 13.817C4.96914 13.7547 5.09602 13.7188 5.2261 13.7119C5.35618 13.705 5.48615 13.7273 5.60649 13.7772C5.72682 13.827 5.83448 13.9032 5.92156 14.0001C6.00864 14.0969 6.07294 14.2121 6.10974 14.337L6.20374 14.656C6.73074 16.446 9.26874 16.446 9.79574 14.656L9.88974 14.337C9.92655 14.2121 9.99085 14.0969 10.0779 14.0001C10.165 13.9032 10.2727 13.827 10.393 13.7772C10.5133 13.7273 10.6433 13.705 10.7734 13.7119C10.9035 13.7188 11.0304 13.7547 11.1447 13.817L11.4367 13.977C13.0767 14.87 14.8707 13.075 13.9767 11.436L13.8177 11.144C13.7554 11.0296 13.7195 10.9027 13.7126 10.7727C13.7057 10.6426 13.728 10.5126 13.7779 10.3923C13.8278 10.2719 13.9039 10.1643 14.0008 10.0772C14.0977 9.99011 14.2128 9.92582 14.3377 9.88901L14.6567 9.79501C16.4467 9.26801 16.4467 6.73001 14.6567 6.20301L14.3377 6.10901C14.2128 6.07221 14.0977 6.00791 14.0008 5.92083C13.9039 5.83375 13.8278 5.72609 13.7779 5.60575C13.728 5.48541 13.7057 5.35544 13.7126 5.22537C13.7195 5.09529 13.7554 4.9684 13.8177 4.85401L13.9777 4.56201C14.8707 2.92201 13.0757 1.12901 11.4367 2.02201L11.1447 2.18101C11.0304 2.24332 10.9035 2.27923 10.7734 2.28613C10.6433 2.29303 10.5133 2.27073 10.393 2.22086C10.2727 2.171 10.165 2.09484 10.0779 1.99797C9.99085 1.9011 9.92655 1.78596 9.88974 1.66101L9.79574 1.34201ZM7.16274 1.62501C7.40874 0.790012 8.59074 0.790012 8.83674 1.62501L8.93074 1.94401C9.00976 2.2121 9.14778 2.4591 9.33467 2.66691C9.52156 2.87472 9.75259 3.03807 10.0108 3.14499C10.2691 3.25191 10.5479 3.29968 10.827 3.2848C11.1061 3.26992 11.3783 3.19278 11.6237 3.05901L11.9147 2.89901C12.6787 2.48401 13.5147 3.31901 13.0987 4.08401L12.9397 4.37601C12.8062 4.62144 12.7292 4.89364 12.7145 5.17267C12.6998 5.45169 12.7477 5.73048 12.8547 5.9886C12.9617 6.24671 13.1251 6.47761 13.3329 6.66439C13.5407 6.85116 13.7877 6.98907 14.0557 7.06801L14.3737 7.16201C15.2087 7.40801 15.2087 8.59001 14.3737 8.83601L14.0547 8.93001C13.7867 9.00903 13.5397 9.14705 13.3318 9.33394C13.124 9.52083 12.9607 9.75186 12.8538 10.0101C12.7468 10.2683 12.6991 10.5472 12.714 10.8263C12.7288 11.1054 12.806 11.3776 12.9397 11.623L13.0997 11.914C13.5147 12.678 12.6797 13.514 11.9147 13.098L11.6237 12.939C11.3783 12.8053 11.106 12.7282 10.8268 12.7133C10.5477 12.6985 10.2688 12.7464 10.0105 12.8534C9.75228 12.9604 9.52127 13.1239 9.33442 13.3318C9.14758 13.5397 9.00965 13.7868 8.93074 14.055L8.83674 14.373C8.59074 15.208 7.40874 15.208 7.16274 14.373L7.06874 14.054C6.98969 13.7861 6.8517 13.5392 6.66488 13.3315C6.47805 13.1238 6.24714 12.9605 5.98903 12.8536C5.73093 12.7467 5.45219 12.6989 5.17321 12.7137C4.89424 12.7284 4.62211 12.8054 4.37674 12.939L4.08474 13.099C3.32074 13.514 2.48474 12.679 2.90074 11.914L3.05974 11.623C3.1937 11.3776 3.271 11.1053 3.28597 10.826C3.30095 10.5468 3.25322 10.2678 3.14629 10.0095C3.03936 9.75109 2.87594 9.51995 2.66802 9.33299C2.46011 9.14603 2.21297 9.008 1.94474 8.92901L1.62574 8.83501C0.790744 8.58901 0.790744 7.40701 1.62574 7.16101L1.94474 7.06701C2.21255 6.98792 2.45928 6.84995 2.66689 6.6632C2.87449 6.47645 3.03771 6.24564 3.1446 5.98767C3.25149 5.72969 3.29934 5.45109 3.28466 5.17223C3.26998 4.89338 3.19313 4.62133 3.05974 4.37601L2.89974 4.08401C2.48474 3.32001 3.31974 2.48401 4.08474 2.90001L4.37674 3.05901C4.62211 3.19259 4.89424 3.26959 5.17321 3.28436C5.45219 3.29914 5.73093 3.25133 5.98903 3.14443C6.24714 3.03753 6.47805 2.87424 6.66488 2.66653C6.8517 2.45883 6.98969 2.21196 7.06874 1.94401L7.16274 1.62501Z" fill="#212529"/>
</g>
<defs>
<clipPath id="clip0_6464_482792">
<rect width="16" height="16" fill="white"/>
</clipPath>
</defs>
</svg>
