<svg width="9" height="17" viewBox="0 0 9 17" fill="none" xmlns="http://www.w3.org/2000/svg">
<g clip-path="url(#clip0_6464_477820)">
<path d="M7.99976 15.4991C6.14324 15.4991 4.36276 14.7616 3.05001 13.4489C1.73725 12.1361 0.999756 10.3557 0.999756 8.49915C0.999756 6.64263 1.73725 4.86215 3.05001 3.5494C4.36276 2.23664 6.14324 1.49915 7.99976 1.49915C9.85627 1.49915 11.6367 2.23664 12.9495 3.5494C14.2623 4.86215 14.9998 6.64263 14.9998 8.49915C14.9998 10.3557 14.2623 12.1361 12.9495 13.4489C11.6367 14.7616 9.85627 15.4991 7.99976 15.4991ZM7.99976 16.4991C10.1215 16.4991 12.1563 15.6563 13.6566 14.156C15.1569 12.6557 15.9998 10.6209 15.9998 8.49915C15.9998 6.37741 15.1569 4.34258 13.6566 2.84229C12.1563 1.342 10.1215 0.499146 7.99976 0.499146C5.87802 0.499146 3.84319 1.342 2.3429 2.84229C0.842611 4.34258 -0.000244141 6.37741 -0.000244141 8.49915C-0.000244141 10.6209 0.842611 12.6557 2.3429 14.156C3.84319 15.6563 5.87802 16.4991 7.99976 16.4991Z" fill="white"/>
<path d="M7.99976 4.49915C8.13236 4.49915 8.25954 4.55182 8.35331 4.64559C8.44708 4.73936 8.49976 4.86654 8.49976 4.99915V7.99915H11.4998C11.6324 7.99915 11.7595 8.05182 11.8533 8.14559C11.9471 8.23936 11.9998 8.36654 11.9998 8.49915C11.9998 8.63175 11.9471 8.75893 11.8533 8.8527C11.7595 8.94647 11.6324 8.99915 11.4998 8.99915H8.49976V11.9991C8.49976 12.1318 8.44708 12.2589 8.35331 12.3527C8.25954 12.4465 8.13236 12.4991 7.99976 12.4991C7.86715 12.4991 7.73997 12.4465 7.6462 12.3527C7.55243 12.2589 7.49976 12.1318 7.49976 11.9991V8.99915H4.49976C4.36715 8.99915 4.23997 8.94647 4.1462 8.8527C4.05243 8.75893 3.99976 8.63175 3.99976 8.49915C3.99976 8.36654 4.05243 8.23936 4.1462 8.14559C4.23997 8.05182 4.36715 7.99915 4.49976 7.99915H7.49976V4.99915C7.49976 4.86654 7.55243 4.73936 7.6462 4.64559C7.73997 4.55182 7.86715 4.49915 7.99976 4.49915Z" fill="white"/>
</g>
<defs>
<clipPath id="clip0_6464_477820">
<rect width="16" height="16" fill="white" transform="translate(0 0.5)"/>
</clipPath>
</defs>
</svg>
