<svg width="14" height="14" viewBox="0 0 14 14" fill="none" xmlns="http://www.w3.org/2000/svg">
<g clip-path="url(#clip0_6464_475748)">
<path d="M13.9996 6.99915C13.9996 8.85566 13.2621 10.6361 11.9494 11.9489C10.6366 13.2616 8.85615 13.9991 6.99963 13.9991C5.14312 13.9991 3.36264 13.2616 2.04989 11.9489C0.737132 10.6361 -0.000366211 8.85566 -0.000366211 6.99915C-0.000366211 5.14263 0.737132 3.36215 2.04989 2.0494C3.36264 0.736644 5.14312 -0.000854492 6.99963 -0.000854492C8.85615 -0.000854492 10.6366 0.736644 11.9494 2.0494C13.2621 3.36215 13.9996 5.14263 13.9996 6.99915V6.99915ZM4.68438 4.0644C4.60223 3.98224 4.49081 3.93609 4.37463 3.93609C4.25846 3.93609 4.14703 3.98224 4.06488 4.0644C3.98273 4.14655 3.93658 4.25797 3.93658 4.37415C3.93658 4.49032 3.98273 4.60174 4.06488 4.6839L6.38101 6.99915L4.06488 9.3144C4.02421 9.35507 3.99194 9.40336 3.96993 9.45651C3.94791 9.50966 3.93658 9.56662 3.93658 9.62415C3.93658 9.68167 3.94791 9.73863 3.96993 9.79178C3.99194 9.84493 4.02421 9.89322 4.06488 9.9339C4.14703 10.016 4.25846 10.0622 4.37463 10.0622C4.43216 10.0622 4.48912 10.0509 4.54227 10.0289C4.59542 10.0068 4.64371 9.97457 4.68438 9.9339L6.99963 7.61777L9.31488 9.9339C9.35556 9.97457 9.40385 10.0068 9.457 10.0289C9.51015 10.0509 9.56711 10.0622 9.62463 10.0622C9.68216 10.0622 9.73912 10.0509 9.79227 10.0289C9.84542 10.0068 9.89371 9.97457 9.93438 9.9339C9.97506 9.89322 10.0073 9.84493 10.0293 9.79178C10.0514 9.73863 10.0627 9.68167 10.0627 9.62415C10.0627 9.56662 10.0514 9.50966 10.0293 9.45651C10.0073 9.40336 9.97506 9.35507 9.93438 9.3144L7.61826 6.99915L9.93438 4.6839C9.97506 4.64322 10.0073 4.59493 10.0293 4.54178C10.0514 4.48863 10.0627 4.43167 10.0627 4.37415C10.0627 4.31662 10.0514 4.25966 10.0293 4.20651C10.0073 4.15336 9.97506 4.10507 9.93438 4.0644C9.89371 4.02372 9.84542 3.99145 9.79227 3.96944C9.73912 3.94742 9.68216 3.93609 9.62463 3.93609C9.56711 3.93609 9.51015 3.94742 9.457 3.96944C9.40385 3.99145 9.35556 4.02372 9.31488 4.0644L6.99963 6.38052L4.68438 4.0644Z" fill="#6C757D"/>
</g>
<defs>
<clipPath id="clip0_6464_475748">
<rect width="14" height="14" fill="white"/>
</clipPath>
</defs>
</svg>
