<svg width="14" height="14" viewBox="0 0 14 14" fill="none" xmlns="http://www.w3.org/2000/svg">
<g clip-path="url(#clip0_6464_306222)">
<path d="M11.6888 9.83245C13.1771 8.5042 13.9996 6.9992 13.9996 6.9992C13.9996 6.9992 11.3746 2.1867 6.99965 2.1867C6.15929 2.1896 5.32845 2.3647 4.5584 2.7012L5.23215 3.37583C5.79866 3.16946 6.39673 3.06317 6.99965 3.0617C8.85465 3.0617 10.3938 4.0837 11.5216 5.21158C12.0645 5.75731 12.5511 6.35619 12.9741 6.9992C12.9234 7.07533 12.8674 7.15933 12.8035 7.2512C12.5104 7.6712 12.0773 8.2312 11.5216 8.78683C11.3773 8.9312 11.2268 9.07383 11.0693 9.21208L11.6888 9.83245Z" fill="#6C757D"/>
<path d="M9.88452 8.0282C10.0798 7.48206 10.1159 6.89171 9.9888 6.32582C9.86165 5.75993 9.57643 5.24179 9.16631 4.83167C8.75619 4.42155 8.23804 4.13633 7.67216 4.00918C7.10627 3.88203 6.51591 3.91819 5.96977 4.11345L6.6899 4.83358C7.02617 4.78545 7.36903 4.81629 7.69131 4.92367C8.01359 5.03105 8.30644 5.21201 8.54664 5.45221C8.78684 5.69242 8.9678 5.98526 9.07518 6.30754C9.18256 6.62982 9.21341 6.97268 9.16527 7.30895L9.88452 8.0282ZM7.3094 9.16483L8.02865 9.88408C7.48251 10.0793 6.89215 10.1155 6.32627 9.98835C5.76038 9.86121 5.24223 9.57598 4.83212 9.16586C4.422 8.75574 4.13677 8.2376 4.00962 7.67171C3.88248 7.10582 3.91864 6.51547 4.1139 5.96933L4.83402 6.68945C4.78589 7.02572 4.81674 7.36858 4.92412 7.69087C5.0315 8.01315 5.21246 8.30599 5.45266 8.54619C5.69286 8.7864 5.98571 8.96736 6.30799 9.07474C6.63027 9.18211 6.97313 9.21296 7.3094 9.16483Z" fill="#6C757D"/>
<path d="M2.9309 4.78545C2.7734 4.92545 2.62202 5.0672 2.47765 5.21158C1.93484 5.75731 1.44823 6.35619 1.02515 6.9992L1.19577 7.2512C1.4889 7.6712 1.92202 8.2312 2.47765 8.78683C3.60552 9.9147 5.14552 10.9367 6.99965 10.9367C7.62615 10.9367 8.2159 10.8203 8.76715 10.6217L9.4409 11.2972C8.67084 11.6337 7.84 11.8088 6.99965 11.8117C2.62465 11.8117 -0.000350952 6.9992 -0.000350952 6.9992C-0.000350952 6.9992 0.821274 5.49333 2.31052 4.16595L2.93002 4.78633L2.9309 4.78545ZM11.9399 12.559L1.4399 2.05895L2.0594 1.43945L12.5594 11.9395L11.9399 12.559Z" fill="#6C757D"/>
</g>
<defs>
<clipPath id="clip0_6464_306222">
<rect width="14" height="14" fill="white"/>
</clipPath>
</defs>
</svg>
