<svg width="20" height="20" viewBox="0 0 20 20" fill="none" xmlns="http://www.w3.org/2000/svg">
<path d="M9.99963 9.99927C10.9942 9.99927 11.948 9.60418 12.6513 8.90092C13.3545 8.19766 13.7496 7.24383 13.7496 6.24927C13.7496 5.25471 13.3545 4.30088 12.6513 3.59762C11.948 2.89436 10.9942 2.49927 9.99963 2.49927C9.00507 2.49927 8.05124 2.89436 7.34798 3.59762C6.64472 4.30088 6.24963 5.25471 6.24963 6.24927C6.24963 7.24383 6.64472 8.19766 7.34798 8.90092C8.05124 9.60418 9.00507 9.99927 9.99963 9.99927ZM12.4996 6.24927C12.4996 6.91231 12.2362 7.54819 11.7674 8.01703C11.2986 8.48588 10.6627 8.74927 9.99963 8.74927C9.33659 8.74927 8.70071 8.48588 8.23187 8.01703C7.76303 7.54819 7.49963 6.91231 7.49963 6.24927C7.49963 5.58623 7.76303 4.95034 8.23187 4.4815C8.70071 4.01266 9.33659 3.74927 9.99963 3.74927C10.6627 3.74927 11.2986 4.01266 11.7674 4.4815C12.2362 4.95034 12.4996 5.58623 12.4996 6.24927ZM17.4996 16.2493C17.4996 17.4993 16.2496 17.4993 16.2496 17.4993H3.74963C3.74963 17.4993 2.49963 17.4993 2.49963 16.2493C2.49963 14.9993 3.74963 11.2493 9.99963 11.2493C16.2496 11.2493 17.4996 14.9993 17.4996 16.2493ZM16.2496 16.2443C16.2484 15.9368 16.0571 15.0118 15.2096 14.1643C14.3946 13.3493 12.8609 12.4993 9.99963 12.4993C7.13713 12.4993 5.60463 13.3493 4.78963 14.1643C3.94213 15.0118 3.75213 15.9368 3.74963 16.2443H16.2496Z" fill="white"/>
</svg>
