<svg width="14" height="14" viewBox="0 0 14 14" fill="none" xmlns="http://www.w3.org/2000/svg">
<g clip-path="url(#clip0_6464_237900)">
<path d="M6.99976 3.06171C6.99976 2.94567 6.95366 2.83439 6.87161 2.75235C6.78957 2.6703 6.67829 2.62421 6.56226 2.62421C6.44622 2.62421 6.33494 2.6703 6.2529 2.75235C6.17085 2.83439 6.12476 2.94567 6.12476 3.06171V7.87421C6.12478 7.95132 6.14519 8.02706 6.18391 8.09375C6.22263 8.16044 6.27829 8.21571 6.34526 8.25396L9.40776 10.004C9.50826 10.0583 9.62602 10.0711 9.73587 10.0398C9.84572 10.0084 9.93894 9.93532 9.99562 9.83613C10.0523 9.73694 10.0679 9.61952 10.0392 9.50896C10.0104 9.3984 9.93957 9.30347 9.84176 9.24446L6.99976 7.62046V3.06171Z" fill="#6C757D"/>
<path d="M6.99976 13.9992C8.85627 13.9992 10.6367 13.2617 11.9495 11.949C13.2623 10.6362 13.9998 8.85572 13.9998 6.99921C13.9998 5.14269 13.2623 3.36221 11.9495 2.04946C10.6367 0.736705 8.85627 -0.000793457 6.99976 -0.000793457C5.14324 -0.000793457 3.36276 0.736705 2.05001 2.04946C0.737254 3.36221 -0.000244141 5.14269 -0.000244141 6.99921C-0.000244141 8.85572 0.737254 10.6362 2.05001 11.949C3.36276 13.2617 5.14324 13.9992 6.99976 13.9992ZM13.1248 6.99921C13.1248 8.62366 12.4794 10.1816 11.3308 11.3302C10.1821 12.4789 8.62421 13.1242 6.99976 13.1242C5.3753 13.1242 3.81739 12.4789 2.66873 11.3302C1.52007 10.1816 0.874756 8.62366 0.874756 6.99921C0.874756 5.37476 1.52007 3.81684 2.66873 2.66818C3.81739 1.51952 5.3753 0.874207 6.99976 0.874207C8.62421 0.874207 10.1821 1.51952 11.3308 2.66818C12.4794 3.81684 13.1248 5.37476 13.1248 6.99921Z" fill="#6C757D"/>
</g>
<defs>
<clipPath id="clip0_6464_237900">
<rect width="14" height="14" fill="white"/>
</clipPath>
</defs>
</svg>
