<svg width="14" height="14" viewBox="0 0 14 14" fill="none" xmlns="http://www.w3.org/2000/svg">
<path d="M3.49951 9.4324C3.62901 10.891 4.82339 11.9261 6.64164 12.06V13.124H7.55426V12.06C9.54051 11.9034 10.7725 10.8018 10.7725 9.17252C10.7725 7.78127 9.94389 6.97627 8.18601 6.52302L7.55426 6.3594V3.03265C8.53601 3.1289 9.19839 3.6574 9.36551 4.44665H10.6518C10.5065 3.04665 9.30426 2.04215 7.55426 1.93102V0.874023H6.64164V1.9529C4.94501 2.15415 3.78039 3.2409 3.78039 4.7144C3.78039 5.98665 4.62564 6.88702 6.10876 7.26677L6.64251 7.40852V10.9356C5.63714 10.7869 4.94501 10.2356 4.77789 9.4324H3.49951V9.4324ZM6.46664 6.0759C5.55401 5.84577 5.06664 5.35402 5.06664 4.6619C5.06664 3.8359 5.68264 3.22602 6.64164 3.0624V6.12052L6.46664 6.07677V6.0759ZM7.85876 7.7139C8.98489 7.99652 9.47926 8.46552 9.47926 9.26177C9.47926 10.2216 8.75651 10.8613 7.55426 10.9584V7.63777L7.85876 7.71302V7.7139Z" fill="#6C757D"/>
</svg>
