<svg width="14" height="14" viewBox="0 0 14 14" fill="none" xmlns="http://www.w3.org/2000/svg">
<g clip-path="url(#clip0_6464_87220)">
<path d="M6.99963 13.1241C5.37518 13.1241 3.81727 12.4788 2.6686 11.3302C1.51994 10.1815 0.874634 8.6236 0.874634 6.99915C0.874634 5.37469 1.51994 3.81678 2.6686 2.66812C3.81727 1.51946 5.37518 0.874146 6.99963 0.874146C8.62409 0.874146 10.182 1.51946 11.3307 2.66812C12.4793 3.81678 13.1246 5.37469 13.1246 6.99915C13.1246 8.6236 12.4793 10.1815 11.3307 11.3302C10.182 12.4788 8.62409 13.1241 6.99963 13.1241ZM6.99963 13.9991C8.85615 13.9991 10.6366 13.2616 11.9494 11.9489C13.2621 10.6361 13.9996 8.85566 13.9996 6.99915C13.9996 5.14263 13.2621 3.36215 11.9494 2.0494C10.6366 0.736643 8.85615 -0.000854492 6.99963 -0.000854492C5.14312 -0.000854492 3.36264 0.736643 2.04989 2.0494C0.737132 3.36215 -0.000366211 5.14263 -0.000366211 6.99915C-0.000366211 8.85566 0.737132 10.6361 2.04989 11.9489C3.36264 13.2616 5.14312 13.9991 6.99963 13.9991Z" fill="#6C757D"/>
<path d="M7.81338 5.76365L5.80963 6.01477L5.73788 6.34727L6.13163 6.4199C6.38888 6.48115 6.43963 6.5739 6.38363 6.83027L5.73788 9.86477C5.56813 10.6496 5.82976 11.0189 6.44488 11.0189C6.92176 11.0189 7.47563 10.7984 7.72676 10.4956L7.80376 10.1316C7.62876 10.2856 7.37326 10.3469 7.20351 10.3469C6.96288 10.3469 6.87538 10.178 6.93751 9.88052L7.81338 5.76365ZM7.87463 3.93665C7.87463 4.16871 7.78245 4.39127 7.61835 4.55536C7.45426 4.71946 7.2317 4.81165 6.99963 4.81165C6.76757 4.81165 6.54501 4.71946 6.38092 4.55536C6.21682 4.39127 6.12463 4.16871 6.12463 3.93665C6.12463 3.70458 6.21682 3.48202 6.38092 3.31793C6.54501 3.15383 6.76757 3.06165 6.99963 3.06165C7.2317 3.06165 7.45426 3.15383 7.61835 3.31793C7.78245 3.48202 7.87463 3.70458 7.87463 3.93665Z" fill="#6C757D"/>
</g>
<defs>
<clipPath id="clip0_6464_87220">
<rect width="14" height="14" fill="white"/>
</clipPath>
</defs>
</svg>
