<svg width="15" height="14" viewBox="0 0 15 14" fill="none" xmlns="http://www.w3.org/2000/svg">
<g clip-path="url(#clip0_6464_472492)">
<path d="M7.99756 13.125C6.37311 13.125 4.81519 12.4797 3.66653 11.331C2.51787 10.1824 1.87256 8.62445 1.87256 7C1.87256 5.37555 2.51787 3.81763 3.66653 2.66897C4.81519 1.52031 6.37311 0.875 7.99756 0.875C9.62201 0.875 11.1799 1.52031 12.3286 2.66897C13.4772 3.81763 14.1226 5.37555 14.1226 7C14.1226 8.62445 13.4772 10.1824 12.3286 11.331C11.1799 12.4797 9.62201 13.125 7.99756 13.125ZM7.99756 14C9.85407 14 11.6346 13.2625 12.9473 11.9497C14.2601 10.637 14.9976 8.85652 14.9976 7C14.9976 5.14348 14.2601 3.36301 12.9473 2.05025C11.6346 0.737498 9.85407 0 7.99756 0C6.14104 0 4.36057 0.737498 3.04781 2.05025C1.73506 3.36301 0.997559 5.14348 0.997559 7C0.997559 8.85652 1.73506 10.637 3.04781 11.9497C4.36057 13.2625 6.14104 14 7.99756 14Z" fill="#6C757D"/>
<path d="M8.81131 5.7645L6.80756 6.01562L6.73581 6.34813L7.12956 6.42075C7.38681 6.482 7.43756 6.57475 7.38156 6.83113L6.73581 9.86562C6.56606 10.6505 6.82768 11.0197 7.44281 11.0197C7.91968 11.0197 8.47356 10.7993 8.72468 10.4965L8.80168 10.1325C8.62668 10.2865 8.37118 10.3478 8.20143 10.3478C7.96081 10.3478 7.87331 10.1789 7.93543 9.88138L8.81131 5.7645ZM8.87256 3.9375C8.87256 4.16956 8.78037 4.39212 8.61628 4.55622C8.45218 4.72031 8.22962 4.8125 7.99756 4.8125C7.76549 4.8125 7.54293 4.72031 7.37884 4.55622C7.21475 4.39212 7.12256 4.16956 7.12256 3.9375C7.12256 3.70544 7.21475 3.48288 7.37884 3.31878C7.54293 3.15469 7.76549 3.0625 7.99756 3.0625C8.22962 3.0625 8.45218 3.15469 8.61628 3.31878C8.78037 3.48288 8.87256 3.70544 8.87256 3.9375Z" fill="#6C757D"/>
</g>
<defs>
<clipPath id="clip0_6464_472492">
<rect width="14" height="14" fill="white" transform="translate(0.998047 0.000976562)"/>
</clipPath>
</defs>
</svg>
