<svg width="14" height="15" viewBox="0 0 14 15" fill="none" xmlns="http://www.w3.org/2000/svg">
<g clip-path="url(#clip0_6464_472077)">
<path d="M13.9995 7.49902C13.9995 9.35554 13.262 11.136 11.9493 12.4488C10.6365 13.7615 8.85603 14.499 6.99951 14.499C5.143 14.499 3.36252 13.7615 2.04976 12.4488C0.73701 11.136 -0.000488281 9.35554 -0.000488281 7.49902C-0.000488281 5.64251 0.73701 3.86203 2.04976 2.54928C3.36252 1.23652 5.143 0.499023 6.99951 0.499023C8.85603 0.499023 10.6365 1.23652 11.9493 2.54928C13.262 3.86203 13.9995 5.64251 13.9995 7.49902V7.49902ZM4.68426 4.56427C4.60211 4.48212 4.49069 4.43597 4.37451 4.43597C4.25833 4.43597 4.14691 4.48212 4.06476 4.56427C3.98261 4.64642 3.93646 4.75784 3.93646 4.87402C3.93646 4.9902 3.98261 5.10162 4.06476 5.18377L6.38089 7.49902L4.06476 9.81427C4.02408 9.85495 3.99182 9.90324 3.9698 9.95639C3.94779 10.0095 3.93646 10.0665 3.93646 10.124C3.93646 10.1815 3.94779 10.2385 3.9698 10.2917C3.99182 10.3448 4.02408 10.3931 4.06476 10.4338C4.14691 10.5159 4.25833 10.5621 4.37451 10.5621C4.43204 10.5621 4.489 10.5507 4.54215 10.5287C4.59529 10.5067 4.64358 10.4745 4.68426 10.4338L6.99951 8.11765L9.31476 10.4338C9.35544 10.4745 9.40373 10.5067 9.45688 10.5287C9.51002 10.5507 9.56699 10.5621 9.62451 10.5621C9.68204 10.5621 9.739 10.5507 9.79215 10.5287C9.84529 10.5067 9.89358 10.4745 9.93426 10.4338C9.97494 10.3931 10.0072 10.3448 10.0292 10.2917C10.0512 10.2385 10.0626 10.1815 10.0626 10.124C10.0626 10.0665 10.0512 10.0095 10.0292 9.95639C10.0072 9.90324 9.97494 9.85495 9.93426 9.81427L7.61814 7.49902L9.93426 5.18377C9.97494 5.1431 10.0072 5.09481 10.0292 5.04166C10.0512 4.98851 10.0626 4.93155 10.0626 4.87402C10.0626 4.8165 10.0512 4.75953 10.0292 4.70639C10.0072 4.65324 9.97494 4.60495 9.93426 4.56427C9.89358 4.5236 9.84529 4.49133 9.79215 4.46932C9.739 4.4473 9.68204 4.43597 9.62451 4.43597C9.56699 4.43597 9.51002 4.4473 9.45688 4.46932C9.40373 4.49133 9.35544 4.5236 9.31476 4.56427L6.99951 6.8804L4.68426 4.56427Z" fill="#6C757D"/>
</g>
<defs>
<clipPath id="clip0_6464_472077">
<rect width="14" height="14" fill="white" transform="translate(0 0.5)"/>
</clipPath>
</defs>
</svg>
