<svg width="14" height="14" viewBox="0 0 14 14" fill="none" xmlns="http://www.w3.org/2000/svg">
<g clip-path="url(#clip0_6464_233895)">
<path d="M9.49701 6.2519C9.53775 6.29254 9.57007 6.34081 9.59213 6.39397C9.61419 6.44712 9.62554 6.5041 9.62554 6.56165C9.62554 6.61919 9.61419 6.67617 9.59213 6.72932C9.57007 6.78248 9.53775 6.83076 9.49701 6.8714L6.87201 9.4964C6.83137 9.53714 6.78309 9.56946 6.72994 9.59152C6.67678 9.61357 6.6198 9.62493 6.56226 9.62493C6.50471 9.62493 6.44773 9.61357 6.39458 9.59152C6.34142 9.56946 6.29315 9.53714 6.25251 9.4964L4.94001 8.1839C4.89933 8.14322 4.86706 8.09493 4.84505 8.04178C4.82303 7.98863 4.8117 7.93167 4.8117 7.87415C4.8117 7.81662 4.82303 7.75966 4.84505 7.70651C4.86706 7.65336 4.89933 7.60507 4.94001 7.5644C5.02216 7.48224 5.13358 7.43609 5.24976 7.43609C5.30728 7.43609 5.36424 7.44742 5.41739 7.46944C5.47054 7.49145 5.51883 7.52372 5.55951 7.5644L6.56226 8.56802L8.87751 6.2519C8.91815 6.21115 8.96642 6.17883 9.01958 6.15677C9.07273 6.13472 9.12971 6.12336 9.18726 6.12336C9.2448 6.12336 9.30178 6.13472 9.35493 6.15677C9.40809 6.17883 9.45637 6.21115 9.49701 6.2519Z" fill="#6C757D"/>
<path d="M3.06226 -0.000854492C3.17829 -0.000854492 3.28957 0.0452391 3.37161 0.127286C3.45366 0.209333 3.49976 0.320613 3.49976 0.436646V0.874146H10.4998V0.436646C10.4998 0.320613 10.5458 0.209333 10.6279 0.127286C10.7099 0.0452391 10.8212 -0.000854492 10.9373 -0.000854492C11.0533 -0.000854492 11.1646 0.0452391 11.2466 0.127286C11.3287 0.209333 11.3748 0.320613 11.3748 0.436646V0.874146H12.2498C12.7139 0.874146 13.159 1.05852 13.4872 1.38671C13.8154 1.7149 13.9998 2.16002 13.9998 2.62415V12.2491C13.9998 12.7133 13.8154 13.1584 13.4872 13.4866C13.159 13.8148 12.7139 13.9991 12.2498 13.9991H1.74976C1.28563 13.9991 0.840508 13.8148 0.512319 13.4866C0.18413 13.1584 -0.000244141 12.7133 -0.000244141 12.2491V2.62415C-0.000244141 2.16002 0.18413 1.7149 0.512319 1.38671C0.840508 1.05852 1.28563 0.874146 1.74976 0.874146H2.62476V0.436646C2.62476 0.320613 2.67085 0.209333 2.7529 0.127286C2.83494 0.0452391 2.94622 -0.000854492 3.06226 -0.000854492ZM0.874756 3.49915V12.2491C0.874756 12.4812 0.966943 12.7038 1.13104 12.8679C1.29513 13.032 1.51769 13.1241 1.74976 13.1241H12.2498C12.4818 13.1241 12.7044 13.032 12.8685 12.8679C13.0326 12.7038 13.1248 12.4812 13.1248 12.2491V3.49915H0.874756Z" fill="#6C757D"/>
</g>
<defs>
<clipPath id="clip0_6464_233895">
<rect width="14" height="14" fill="white"/>
</clipPath>
</defs>
</svg>
