<svg width="16" height="19" viewBox="0 0 16 19" fill="none" xmlns="http://www.w3.org/2000/svg">
<g clip-path="url(#clip0_6441_422906)">
<g clip-path="url(#clip1_6441_422906)" filter="url(#filter0_d_6441_422906)">
<path fill-rule="evenodd" clip-rule="evenodd" d="M5.99992 14.8438C5.99992 15.0012 6.0526 15.1522 6.14636 15.2636C6.24013 15.3749 6.36731 15.4375 6.49992 15.4375H14.4999C14.6325 15.4375 14.7597 15.3749 14.8535 15.2636C14.9472 15.1522 14.9999 15.0012 14.9999 14.8438V4.15625C14.9999 3.99878 14.9472 3.84776 14.8535 3.73641C14.7597 3.62506 14.6325 3.5625 14.4999 3.5625H6.49992C6.36731 3.5625 6.24013 3.62506 6.14636 3.73641C6.0526 3.84776 5.99992 3.99878 5.99992 4.15625V6.53125C5.99992 6.68872 5.94724 6.83975 5.85347 6.95109C5.7597 7.06244 5.63253 7.125 5.49992 7.125C5.36731 7.125 5.24013 7.06244 5.14636 6.95109C5.0526 6.83975 4.99992 6.68872 4.99992 6.53125V4.15625C4.99992 3.68383 5.15795 3.23077 5.43926 2.89672C5.72056 2.56267 6.10209 2.375 6.49992 2.375H14.4999C14.8977 2.375 15.2793 2.56267 15.5606 2.89672C15.8419 3.23077 15.9999 3.68383 15.9999 4.15625V14.8438C15.9999 15.3162 15.8419 15.7692 15.5606 16.1033C15.2793 16.4373 14.8977 16.625 14.4999 16.625H6.49992C6.10209 16.625 5.72056 16.4373 5.43926 16.1033C5.15795 15.7692 4.99992 15.3162 4.99992 14.8438V12.4688C4.99992 12.3113 5.0526 12.1603 5.14636 12.0489C5.24013 11.9376 5.36731 11.875 5.49992 11.875C5.63253 11.875 5.7597 11.9376 5.85347 12.0489C5.94724 12.1603 5.99992 12.3113 5.99992 12.4688V14.8438Z" fill="#9FA2B4"/>
<path fill-rule="evenodd" clip-rule="evenodd" d="M0.145917 9.92037C0.099354 9.86522 0.0624111 9.7997 0.0372047 9.72756C0.0119982 9.65543 -0.000976563 9.5781 -0.000976562 9.5C-0.000976563 9.4219 0.0119982 9.34457 0.0372047 9.27244C0.0624111 9.2003 0.099354 9.13478 0.145917 9.07963L3.14592 5.51712C3.19241 5.46192 3.24759 5.41813 3.30833 5.38825C3.36907 5.35838 3.43417 5.343 3.49992 5.343C3.56566 5.343 3.63076 5.35838 3.6915 5.38825C3.75224 5.41813 3.80743 5.46192 3.85392 5.51712C3.90041 5.57233 3.93728 5.63787 3.96244 5.70999C3.9876 5.78212 4.00055 5.85943 4.00055 5.9375C4.00055 6.01557 3.9876 6.09288 3.96244 6.16501C3.93728 6.23713 3.90041 6.30267 3.85392 6.35788L1.70692 8.90625H10.4999C10.6325 8.90625 10.7597 8.96881 10.8535 9.08016C10.9472 9.1915 10.9999 9.34253 10.9999 9.5C10.9999 9.65747 10.9472 9.8085 10.8535 9.91985C10.7597 10.0312 10.6325 10.0938 10.4999 10.0938H1.70692L3.85392 12.6421C3.90041 12.6973 3.93728 12.7629 3.96244 12.835C3.9876 12.9071 4.00055 12.9844 4.00055 13.0625C4.00055 13.1406 3.9876 13.2179 3.96244 13.29C3.93728 13.3621 3.90041 13.4277 3.85392 13.4829C3.80743 13.5381 3.75224 13.5819 3.6915 13.6117C3.63076 13.6416 3.56566 13.657 3.49992 13.657C3.43417 13.657 3.36907 13.6416 3.30833 13.6117C3.24759 13.5819 3.19241 13.5381 3.14592 13.4829L0.145917 9.92037Z" fill="#9FA2B4"/>
</g>
</g>
<defs>
<filter id="filter0_d_6441_422906" x="-4" y="0" width="24" height="27" filterUnits="userSpaceOnUse" color-interpolation-filters="sRGB">
<feFlood flood-opacity="0" result="BackgroundImageFix"/>
<feColorMatrix in="SourceAlpha" type="matrix" values="0 0 0 0 0 0 0 0 0 0 0 0 0 0 0 0 0 0 127 0" result="hardAlpha"/>
<feOffset dy="4"/>
<feGaussianBlur stdDeviation="2"/>
<feComposite in2="hardAlpha" operator="out"/>
<feColorMatrix type="matrix" values="0 0 0 0 0 0 0 0 0 0 0 0 0 0 0 0 0 0 0.25 0"/>
<feBlend mode="normal" in2="BackgroundImageFix" result="effect1_dropShadow_6441_422906"/>
<feBlend mode="normal" in="SourceGraphic" in2="effect1_dropShadow_6441_422906" result="shape"/>
</filter>
<clipPath id="clip0_6441_422906">
<rect width="16" height="19" fill="white"/>
</clipPath>
<clipPath id="clip1_6441_422906">
<rect width="16" height="19" fill="white"/>
</clipPath>
</defs>
</svg>
