<svg width="20" height="20" viewBox="0 0 20 20" fill="none" xmlns="http://www.w3.org/2000/svg">
<path d="M9.99966 9.99927C10.9942 9.99927 11.9481 9.60418 12.6513 8.90092C13.3546 8.19766 13.7497 7.24383 13.7497 6.24927C13.7497 5.25471 13.3546 4.30088 12.6513 3.59762C11.9481 2.89436 10.9942 2.49927 9.99966 2.49927C9.0051 2.49927 8.05128 2.89436 7.34801 3.59762C6.64475 4.30088 6.24966 5.25471 6.24966 6.24927C6.24966 7.24383 6.64475 8.19766 7.34801 8.90092C8.05128 9.60418 9.0051 9.99927 9.99966 9.99927ZM12.4997 6.24927C12.4997 6.91231 12.2363 7.54819 11.7674 8.01703C11.2986 8.48588 10.6627 8.74927 9.99966 8.74927C9.33662 8.74927 8.70074 8.48588 8.2319 8.01703C7.76306 7.54819 7.49966 6.91231 7.49966 6.24927C7.49966 5.58623 7.76306 4.95034 8.2319 4.4815C8.70074 4.01266 9.33662 3.74927 9.99966 3.74927C10.6627 3.74927 11.2986 4.01266 11.7674 4.4815C12.2363 4.95034 12.4997 5.58623 12.4997 6.24927ZM17.4997 16.2493C17.4997 17.4993 16.2497 17.4993 16.2497 17.4993H3.74966C3.74966 17.4993 2.49966 17.4993 2.49966 16.2493C2.49966 14.9993 3.74966 11.2493 9.99966 11.2493C16.2497 11.2493 17.4997 14.9993 17.4997 16.2493ZM16.2497 16.2443C16.2484 15.9368 16.0572 15.0118 15.2097 14.1643C14.3947 13.3493 12.8609 12.4993 9.99966 12.4993C7.13716 12.4993 5.60466 13.3493 4.78966 14.1643C3.94216 15.0118 3.75216 15.9368 3.74966 16.2443H16.2497Z" fill="white"/>
</svg>
