<svg width="32" height="32" viewBox="0 0 32 32" fill="none" xmlns="http://www.w3.org/2000/svg">
<path d="M9.29183 9.29208C9.38473 9.19895 9.49508 9.12507 9.61657 9.07465C9.73806 9.02424 9.8683 8.99829 9.99983 8.99829C10.1314 8.99829 10.2616 9.02424 10.3831 9.07465C10.5046 9.12507 10.6149 9.19895 10.7078 9.29208L15.9998 14.5861L21.2918 9.29208C21.3848 9.1991 21.4952 9.12535 21.6167 9.07503C21.7381 9.02471 21.8683 8.99881 21.9998 8.99881C22.1313 8.99881 22.2615 9.02471 22.383 9.07503C22.5045 9.12535 22.6149 9.1991 22.7078 9.29208C22.8008 9.38505 22.8746 9.49543 22.9249 9.61691C22.9752 9.73839 23.0011 9.86859 23.0011 10.0001C23.0011 10.1316 22.9752 10.2618 22.9249 10.3832C22.8746 10.5047 22.8008 10.6151 22.7078 10.7081L17.4138 16.0001L22.7078 21.2921C22.8008 21.3851 22.8746 21.4954 22.9249 21.6169C22.9752 21.7384 23.0011 21.8686 23.0011 22.0001C23.0011 22.1316 22.9752 22.2618 22.9249 22.3832C22.8746 22.5047 22.8008 22.6151 22.7078 22.7081C22.6149 22.8011 22.5045 22.8748 22.383 22.9251C22.2615 22.9754 22.1313 23.0013 21.9998 23.0013C21.8683 23.0013 21.7381 22.9754 21.6167 22.9251C21.4952 22.8748 21.3848 22.8011 21.2918 22.7081L15.9998 17.4141L10.7078 22.7081C10.6149 22.8011 10.5045 22.8748 10.383 22.9251C10.2615 22.9754 10.1313 23.0013 9.99983 23.0013C9.86835 23.0013 9.73815 22.9754 9.61667 22.9251C9.49519 22.8748 9.38481 22.8011 9.29183 22.7081C9.19886 22.6151 9.12511 22.5047 9.07479 22.3832C9.02447 22.2618 8.99857 22.1316 8.99857 22.0001C8.99857 21.8686 9.02447 21.7384 9.07479 21.6169C9.12511 21.4954 9.19886 21.3851 9.29183 21.2921L14.5858 16.0001L9.29183 10.7081C9.19871 10.6152 9.12482 10.5048 9.07441 10.3833C9.024 10.2619 8.99805 10.1316 8.99805 10.0001C8.99805 9.86854 9.024 9.7383 9.07441 9.61681C9.12482 9.49532 9.19871 9.38497 9.29183 9.29208Z" fill="#EB5757"/>
</svg>
