<svg width="22" height="41" viewBox="0 0 22 41" fill="none" xmlns="http://www.w3.org/2000/svg">
<mask id="path-1-inside-1_6464_475903" fill="white">
<path d="M11 15.072L16 20.072L11 25.072L9.93933 24.0114L13.8787 20.072L9.93933 16.1327L11 15.072Z"/>
</mask>
<path d="M11 15.072L16 20.072L11 25.072L9.93933 24.0114L13.8787 20.072L9.93933 16.1327L11 15.072Z" fill="white"/>
<path d="M16 20.072L17.0607 21.1327L18.1213 20.072L17.0607 19.0114L16 20.072ZM11 15.072L12.0607 14.0114L11 12.9507L9.93933 14.0114L11 15.072ZM11 25.072L9.93933 26.1327L11 27.1933L12.0607 26.1327L11 25.072ZM9.93933 16.1327L8.87867 15.072L7.81801 16.1327L8.87867 17.1933L9.93933 16.1327ZM9.93933 24.0114L8.87867 22.9507L7.81801 24.0114L8.87867 25.072L9.93933 24.0114ZM13.8787 20.072L14.9393 21.1327L16 20.072L14.9393 19.0114L13.8787 20.072ZM17.0607 19.0114L12.0607 14.0114L9.93933 16.1327L14.9393 21.1327L17.0607 19.0114ZM12.0607 26.1327L17.0607 21.1327L14.9393 19.0114L9.93933 24.0114L12.0607 26.1327ZM9.93933 14.0114L8.87867 15.072L11 17.1933L12.0607 16.1327L9.93933 14.0114ZM8.87867 25.072L9.93933 26.1327L12.0607 24.0114L11 22.9507L8.87867 25.072ZM12.818 19.0114L8.87867 22.9507L11 25.072L14.9393 21.1327L12.818 19.0114ZM8.87867 17.1933L12.818 21.1327L14.9393 19.0114L11 15.072L8.87867 17.1933Z" fill="#CED4DA" mask="url(#path-1-inside-1_6464_475903)"/>
<mask id="path-3-inside-2_6464_475903" fill="white">
<path d="M4.93932 15.072L9.93932 20.072L4.93932 25.072L3.87866 24.0114L7.818 20.072L3.87866 16.1327L4.93932 15.072Z"/>
</mask>
<path d="M4.93932 15.072L9.93932 20.072L4.93932 25.072L3.87866 24.0114L7.818 20.072L3.87866 16.1327L4.93932 15.072Z" fill="white"/>
<path d="M9.93932 20.072L11 21.1327L12.0606 20.072L11 19.0114L9.93932 20.072ZM4.93932 15.072L5.99998 14.0114L4.93932 12.9507L3.87866 14.0114L4.93932 15.072ZM4.93932 25.072L3.87866 26.1327L4.93932 27.1933L5.99998 26.1327L4.93932 25.072ZM3.87866 16.1327L2.818 15.072L1.75734 16.1327L2.818 17.1933L3.87866 16.1327ZM3.87866 24.0114L2.818 22.9507L1.75734 24.0114L2.818 25.072L3.87866 24.0114ZM7.818 20.072L8.87866 21.1327L9.93932 20.072L8.87866 19.0114L7.818 20.072ZM11 19.0114L5.99998 14.0114L3.87866 16.1327L8.87866 21.1327L11 19.0114ZM5.99998 26.1327L11 21.1327L8.87866 19.0114L3.87866 24.0114L5.99998 26.1327ZM3.87866 14.0114L2.818 15.072L4.93932 17.1933L5.99998 16.1327L3.87866 14.0114ZM2.818 25.072L3.87866 26.1327L5.99998 24.0114L4.93932 22.9507L2.818 25.072ZM6.75734 19.0114L2.818 22.9507L4.93932 25.072L8.87866 21.1327L6.75734 19.0114ZM2.818 17.1933L6.75734 21.1327L8.87866 19.0114L4.93932 15.072L2.818 17.1933Z" fill="#CED4DA" mask="url(#path-3-inside-2_6464_475903)"/>
</svg>
