<svg width="14" height="14" viewBox="0 0 14 14" fill="none" xmlns="http://www.w3.org/2000/svg">
<g clip-path="url(#clip0_6464_87053)">
<path d="M6.99976 13.1251C5.3753 13.1251 3.81739 12.4798 2.66873 11.3312C1.52007 10.1825 0.874756 8.62457 0.874756 7.00012C0.874756 5.37567 1.52007 3.81775 2.66873 2.66909C3.81739 1.52043 5.3753 0.875122 6.99976 0.875122C8.62421 0.875122 10.1821 1.52043 11.3308 2.66909C12.4794 3.81775 13.1248 5.37567 13.1248 7.00012C13.1248 8.62457 12.4794 10.1825 11.3308 11.3312C10.1821 12.4798 8.62421 13.1251 6.99976 13.1251ZM6.99976 14.0001C8.85627 14.0001 10.6367 13.2626 11.9495 11.9499C13.2623 10.6371 13.9998 8.85664 13.9998 7.00012C13.9998 5.14361 13.2623 3.36313 11.9495 2.05037C10.6367 0.73762 8.85627 0.00012207 6.99976 0.00012207C5.14324 0.00012207 3.36276 0.73762 2.05001 2.05037C0.737254 3.36313 -0.000244141 5.14361 -0.000244141 7.00012C-0.000244141 8.85664 0.737254 10.6371 2.05001 11.9499C3.36276 13.2626 5.14324 14.0001 6.99976 14.0001Z" fill="#6C757D"/>
<path d="M7.81351 5.76462L5.80976 6.01575L5.73801 6.34825L6.13176 6.42087C6.38901 6.48212 6.43976 6.57487 6.38376 6.83125L5.73801 9.86575C5.56826 10.6506 5.82988 11.0199 6.44501 11.0199C6.92188 11.0199 7.47576 10.7994 7.72688 10.4966L7.80388 10.1326C7.62888 10.2866 7.37338 10.3479 7.20363 10.3479C6.96301 10.3479 6.87551 10.179 6.93763 9.8815L7.81351 5.76462ZM7.87476 3.93762C7.87476 4.16969 7.78257 4.39225 7.61847 4.55634C7.45438 4.72043 7.23182 4.81262 6.99976 4.81262C6.76769 4.81262 6.54513 4.72043 6.38104 4.55634C6.21694 4.39225 6.12476 4.16969 6.12476 3.93762C6.12476 3.70556 6.21694 3.483 6.38104 3.3189C6.54513 3.15481 6.76769 3.06262 6.99976 3.06262C7.23182 3.06262 7.45438 3.15481 7.61847 3.3189C7.78257 3.483 7.87476 3.70556 7.87476 3.93762Z" fill="#6C757D"/>
</g>
<defs>
<clipPath id="clip0_6464_87053">
<rect width="14" height="14" fill="white" transform="translate(0 0.000976562)"/>
</clipPath>
</defs>
</svg>
