<svg width="14" height="14" viewBox="0 0 14 14" fill="none" xmlns="http://www.w3.org/2000/svg">
<g clip-path="url(#clip0_6464_479370)">
<path d="M12.2495 3.93668V12.2492C12.2495 12.7133 12.0651 13.1584 11.7369 13.4866C11.4088 13.8148 10.9636 13.9992 10.4995 13.9992H3.49951C3.03538 13.9992 2.59026 13.8148 2.26207 13.4866C1.93389 13.1584 1.74951 12.7133 1.74951 12.2492V1.74918C1.74951 1.28505 1.93389 0.839928 2.26207 0.511739C2.59026 0.183551 3.03538 -0.000823975 3.49951 -0.000823975H8.31201L12.2495 3.93668ZM9.62451 3.93668C9.27642 3.93668 8.94258 3.7984 8.69643 3.55225C8.45029 3.30611 8.31201 2.97227 8.31201 2.62418V0.874176H3.49951C3.26745 0.874176 3.04489 0.966363 2.88079 1.13046C2.7167 1.29455 2.62451 1.51711 2.62451 1.74918V12.2492C2.62451 12.4812 2.7167 12.7038 2.88079 12.8679C3.04489 13.032 3.26745 13.1242 3.49951 13.1242H10.4995C10.7316 13.1242 10.9541 13.032 11.1182 12.8679C11.2823 12.7038 11.3745 12.4812 11.3745 12.2492V3.93668H9.62451Z" fill="#0D6EFD"/>
</g>
<defs>
<clipPath id="clip0_6464_479370">
<rect width="14" height="14" fill="white"/>
</clipPath>
</defs>
</svg>
