<svg width="14" height="14" viewBox="0 0 14 14" fill="none" xmlns="http://www.w3.org/2000/svg">
<path d="M3.49951 9.43252C3.62901 10.8911 4.82339 11.9263 6.64164 12.0601V13.1241H7.55426V12.0601C9.54051 11.9035 10.7725 10.8019 10.7725 9.17265C10.7725 7.7814 9.94389 6.9764 8.18601 6.52315L7.55426 6.35952V3.03277C8.53601 3.12902 9.19839 3.65752 9.36551 4.44677H10.6518C10.5065 3.04677 9.30426 2.04227 7.55426 1.93115V0.874146H6.64164V1.95302C4.94501 2.15427 3.78039 3.24102 3.78039 4.71452C3.78039 5.98677 4.62564 6.88715 6.10876 7.2669L6.64251 7.40865V10.9358C5.63714 10.787 4.94501 10.2358 4.77789 9.43252H3.49951V9.43252ZM6.46664 6.07602C5.55401 5.8459 5.06664 5.35415 5.06664 4.66202C5.06664 3.83602 5.68264 3.22615 6.64164 3.06252V6.12065L6.46664 6.0769V6.07602ZM7.85876 7.71402C8.98489 7.99665 9.47926 8.46565 9.47926 9.2619C9.47926 10.2218 8.75651 10.8614 7.55426 10.9585V7.6379L7.85876 7.71315V7.71402Z" fill="#6C757D"/>
</svg>
