<svg width="14" height="14" viewBox="0 0 14 14" fill="none" xmlns="http://www.w3.org/2000/svg">
<g clip-path="url(#clip0_6464_478799)">
<path d="M13.9995 6.99915C13.9995 8.85566 13.262 10.6361 11.9493 11.9489C10.6365 13.2616 8.85603 13.9991 6.99951 13.9991C5.143 13.9991 3.36252 13.2616 2.04976 11.9489C0.73701 10.6361 -0.000488281 8.85566 -0.000488281 6.99915C-0.000488281 5.14263 0.73701 3.36215 2.04976 2.0494C3.36252 0.736644 5.143 -0.000854492 6.99951 -0.000854492C8.85603 -0.000854492 10.6365 0.736644 11.9493 2.0494C13.262 3.36215 13.9995 5.14263 13.9995 6.99915V6.99915ZM4.68426 4.0644C4.60211 3.98224 4.49069 3.93609 4.37451 3.93609C4.25833 3.93609 4.14691 3.98224 4.06476 4.0644C3.98261 4.14655 3.93646 4.25797 3.93646 4.37415C3.93646 4.49032 3.98261 4.60174 4.06476 4.6839L6.38089 6.99915L4.06476 9.3144C4.02408 9.35507 3.99182 9.40336 3.9698 9.45651C3.94779 9.50966 3.93646 9.56662 3.93646 9.62415C3.93646 9.68167 3.94779 9.73863 3.9698 9.79178C3.99182 9.84493 4.02408 9.89322 4.06476 9.9339C4.14691 10.016 4.25833 10.0622 4.37451 10.0622C4.43204 10.0622 4.489 10.0509 4.54215 10.0289C4.59529 10.0068 4.64358 9.97457 4.68426 9.9339L6.99951 7.61777L9.31476 9.9339C9.35544 9.97457 9.40373 10.0068 9.45688 10.0289C9.51002 10.0509 9.56699 10.0622 9.62451 10.0622C9.68204 10.0622 9.739 10.0509 9.79215 10.0289C9.84529 10.0068 9.89358 9.97457 9.93426 9.9339C9.97494 9.89322 10.0072 9.84493 10.0292 9.79178C10.0512 9.73863 10.0626 9.68167 10.0626 9.62415C10.0626 9.56662 10.0512 9.50966 10.0292 9.45651C10.0072 9.40336 9.97494 9.35507 9.93426 9.3144L7.61814 6.99915L9.93426 4.6839C9.97494 4.64322 10.0072 4.59493 10.0292 4.54178C10.0512 4.48863 10.0626 4.43167 10.0626 4.37415C10.0626 4.31662 10.0512 4.25966 10.0292 4.20651C10.0072 4.15336 9.97494 4.10507 9.93426 4.0644C9.89358 4.02372 9.84529 3.99145 9.79215 3.96944C9.739 3.94742 9.68204 3.93609 9.62451 3.93609C9.56699 3.93609 9.51002 3.94742 9.45688 3.96944C9.40373 3.99145 9.35544 4.02372 9.31476 4.0644L6.99951 6.38052L4.68426 4.0644Z" fill="#6C757D"/>
</g>
<defs>
<clipPath id="clip0_6464_478799">
<rect width="14" height="14" fill="white"/>
</clipPath>
</defs>
</svg>
