<svg width="16" height="17" viewBox="0 0 16 17" fill="none" xmlns="http://www.w3.org/2000/svg">
<g clip-path="url(#clip0_6464_474475)">
<path d="M13.9998 1.57129C14.265 1.57129 14.5193 1.67665 14.7069 1.86418C14.8944 2.05172 14.9998 2.30607 14.9998 2.57129V14.5713C14.9998 14.8365 14.8944 15.0909 14.7069 15.2784C14.5193 15.4659 14.265 15.5713 13.9998 15.5713H1.99976C1.73454 15.5713 1.48019 15.4659 1.29265 15.2784C1.10511 15.0909 0.999756 14.8365 0.999756 14.5713V2.57129C0.999756 2.30607 1.10511 2.05172 1.29265 1.86418C1.48019 1.67665 1.73454 1.57129 1.99976 1.57129H13.9998ZM1.99976 0.571289C1.46932 0.571289 0.960615 0.782003 0.585542 1.15708C0.21047 1.53215 -0.000244141 2.04086 -0.000244141 2.57129V14.5713C-0.000244141 15.1017 0.21047 15.6104 0.585542 15.9855C0.960615 16.3606 1.46932 16.5713 1.99976 16.5713H13.9998C14.5302 16.5713 15.0389 16.3606 15.414 15.9855C15.789 15.6104 15.9998 15.1017 15.9998 14.5713V2.57129C15.9998 2.04086 15.789 1.53215 15.414 1.15708C15.0389 0.782003 14.5302 0.571289 13.9998 0.571289H1.99976Z" fill="white"/>
<path d="M7.99976 4.57129C8.13236 4.57129 8.25954 4.62397 8.35331 4.71774C8.44708 4.8115 8.49976 4.93868 8.49976 5.07129V8.07129H11.4998C11.6324 8.07129 11.7595 8.12397 11.8533 8.21774C11.9471 8.3115 11.9998 8.43868 11.9998 8.57129C11.9998 8.7039 11.9471 8.83107 11.8533 8.92484C11.7595 9.01861 11.6324 9.07129 11.4998 9.07129H8.49976V12.0713C8.49976 12.2039 8.44708 12.3311 8.35331 12.4248C8.25954 12.5186 8.13236 12.5713 7.99976 12.5713C7.86715 12.5713 7.73997 12.5186 7.6462 12.4248C7.55243 12.3311 7.49976 12.2039 7.49976 12.0713V9.07129H4.49976C4.36715 9.07129 4.23997 9.01861 4.1462 8.92484C4.05243 8.83107 3.99976 8.7039 3.99976 8.57129C3.99976 8.43868 4.05243 8.3115 4.1462 8.21774C4.23997 8.12397 4.36715 8.07129 4.49976 8.07129H7.49976V5.07129C7.49976 4.93868 7.55243 4.8115 7.6462 4.71774C7.73997 4.62397 7.86715 4.57129 7.99976 4.57129Z" fill="white"/>
</g>
<defs>
<clipPath id="clip0_6464_474475">
<rect width="16" height="16" fill="white" transform="translate(0 0.572266)"/>
</clipPath>
</defs>
</svg>
