<svg width="15" height="14" viewBox="0 0 15 14" fill="none" xmlns="http://www.w3.org/2000/svg">
<g clip-path="url(#clip0_6464_478992)">
<path d="M7.99756 13.1251C6.37311 13.1251 4.81519 12.4798 3.66653 11.3312C2.51787 10.1825 1.87256 8.62457 1.87256 7.00012C1.87256 5.37567 2.51787 3.81775 3.66653 2.66909C4.81519 1.52043 6.37311 0.875122 7.99756 0.875122C9.62201 0.875122 11.1799 1.52043 12.3286 2.66909C13.4772 3.81775 14.1226 5.37567 14.1226 7.00012C14.1226 8.62457 13.4772 10.1825 12.3286 11.3312C11.1799 12.4798 9.62201 13.1251 7.99756 13.1251ZM7.99756 14.0001C9.85407 14.0001 11.6346 13.2626 12.9473 11.9499C14.2601 10.6371 14.9976 8.85664 14.9976 7.00012C14.9976 5.14361 14.2601 3.36313 12.9473 2.05037C11.6346 0.73762 9.85407 0.00012207 7.99756 0.00012207C6.14104 0.00012207 4.36057 0.73762 3.04781 2.05037C1.73506 3.36313 0.997559 5.14361 0.997559 7.00012C0.997559 8.85664 1.73506 10.6371 3.04781 11.9499C4.36057 13.2626 6.14104 14.0001 7.99756 14.0001Z" fill="#6C757D"/>
<path d="M8.81131 5.76462L6.80756 6.01575L6.73581 6.34825L7.12956 6.42087C7.38681 6.48212 7.43756 6.57487 7.38156 6.83125L6.73581 9.86575C6.56606 10.6506 6.82768 11.0199 7.44281 11.0199C7.91968 11.0199 8.47356 10.7994 8.72468 10.4966L8.80168 10.1326C8.62668 10.2866 8.37118 10.3479 8.20143 10.3479C7.96081 10.3479 7.87331 10.179 7.93543 9.8815L8.81131 5.76462ZM8.87256 3.93762C8.87256 4.16969 8.78037 4.39225 8.61628 4.55634C8.45218 4.72043 8.22962 4.81262 7.99756 4.81262C7.76549 4.81262 7.54293 4.72043 7.37884 4.55634C7.21475 4.39225 7.12256 4.16969 7.12256 3.93762C7.12256 3.70556 7.21475 3.483 7.37884 3.3189C7.54293 3.15481 7.76549 3.06262 7.99756 3.06262C8.22962 3.06262 8.45218 3.15481 8.61628 3.3189C8.78037 3.483 8.87256 3.70556 8.87256 3.93762Z" fill="#6C757D"/>
</g>
<defs>
<clipPath id="clip0_6464_478992">
<rect width="14" height="14" fill="white" transform="translate(0.998047 0.000976562)"/>
</clipPath>
</defs>
</svg>
