<svg width="14" height="14" viewBox="0 0 14 14" fill="none" xmlns="http://www.w3.org/2000/svg">
<path d="M3.49976 9.4324C3.62926 10.891 4.82363 11.9261 6.64188 12.06V13.124H7.55451V12.06C9.54076 11.9034 10.7728 10.8018 10.7728 9.17252C10.7728 7.78127 9.94413 6.97627 8.18626 6.52302L7.55451 6.3594V3.03265C8.53626 3.1289 9.19863 3.6574 9.36576 4.44665H10.652C10.5068 3.04665 9.30451 2.04215 7.55451 1.93102V0.874023H6.64188V1.9529C4.94526 2.15415 3.78063 3.2409 3.78063 4.7144C3.78063 5.98665 4.62588 6.88702 6.10901 7.26677L6.64276 7.40852V10.9356C5.63738 10.7869 4.94526 10.2356 4.77813 9.4324H3.49976V9.4324ZM6.46688 6.0759C5.55426 5.84577 5.06688 5.35402 5.06688 4.6619C5.06688 3.8359 5.68288 3.22602 6.64188 3.0624V6.12052L6.46688 6.07677V6.0759ZM7.85901 7.7139C8.98513 7.99652 9.47951 8.46552 9.47951 9.26177C9.47951 10.2216 8.75676 10.8613 7.55451 10.9584V7.63777L7.85901 7.71302V7.7139Z" fill="#6C757D"/>
</svg>
