<svg width="48" height="48" viewBox="0 0 48 48" fill="none" xmlns="http://www.w3.org/2000/svg">
<path d="M14.9396 11.999C14.7148 11.9993 14.4929 12.0502 14.2904 12.1478C14.0879 12.2454 13.9099 12.3873 13.7696 12.563L4.61959 23.999H17.9996C18.3974 23.999 18.7789 24.1571 19.0602 24.4384C19.3416 24.7197 19.4996 25.1012 19.4996 25.499C19.4996 26.6925 19.9737 27.8371 20.8176 28.681C21.6615 29.5249 22.8061 29.999 23.9996 29.999C25.1931 29.999 26.3377 29.5249 27.1816 28.681C28.0255 27.8371 28.4996 26.6925 28.4996 25.499C28.4996 25.1012 28.6576 24.7197 28.9389 24.4384C29.2202 24.1571 29.6018 23.999 29.9996 23.999H43.3796L34.2296 12.563C34.0893 12.3873 33.9113 12.2454 33.7088 12.1478C33.5063 12.0502 33.2844 11.9993 33.0596 11.999H14.9396ZM44.8016 26.999H31.3496C31.0053 28.6945 30.0855 30.2187 28.746 31.3136C27.4065 32.4084 25.7296 33.0065 23.9996 33.0065C22.2696 33.0065 20.5927 32.4084 19.2532 31.3136C17.9137 30.2187 16.9939 28.6945 16.6496 26.999H3.19759L4.15759 34.685C4.20298 35.0483 4.37963 35.3824 4.65426 35.6244C4.92888 35.8664 5.28253 35.9997 5.64859 35.999H42.3506C42.7161 35.9989 43.0691 35.8653 43.3431 35.6234C43.6171 35.3814 43.7933 35.0477 43.8386 34.685L44.7986 26.999H44.8016ZM11.4266 10.688C11.8484 10.1607 12.3834 9.73514 12.9921 9.44276C13.6007 9.15039 14.2674 8.99873 14.9426 8.99902H33.0566C33.7318 8.99873 34.3985 9.15039 35.0071 9.44276C35.6158 9.73514 36.1508 10.1607 36.5726 10.688L47.6726 24.563C47.7973 24.7196 47.8894 24.8995 47.9435 25.0922C47.9976 25.2849 48.0126 25.4864 47.9876 25.685L46.8176 35.057C46.6815 36.1457 46.1525 37.1472 45.3298 37.8731C44.5072 38.599 43.4477 38.9994 42.3506 38.999H5.64859C4.55146 38.9994 3.49196 38.599 2.66934 37.8731C1.84671 37.1472 1.31763 36.1457 1.18159 35.057L0.0115904 25.685C-0.0129984 25.4862 0.00247168 25.2846 0.0570879 25.0919C0.111704 24.8992 0.20436 24.7193 0.32959 24.563L11.4296 10.688H11.4266Z" fill="#0D6EFD"/>
</svg>
