<svg width="14" height="14" viewBox="0 0 14 14" fill="none" xmlns="http://www.w3.org/2000/svg">
<path d="M6.99976 6.99902C7.69595 6.99902 8.36363 6.72246 8.85591 6.23018C9.34819 5.7379 9.62476 5.07022 9.62476 4.37402C9.62476 3.67783 9.34819 3.01015 8.85591 2.51787C8.36363 2.02559 7.69595 1.74902 6.99976 1.74902C6.30356 1.74902 5.63588 2.02559 5.1436 2.51787C4.65132 3.01015 4.37476 3.67783 4.37476 4.37402C4.37476 5.07022 4.65132 5.7379 5.1436 6.23018C5.63588 6.72246 6.30356 6.99902 6.99976 6.99902V6.99902ZM8.74976 4.37402C8.74976 4.83815 8.56538 5.28327 8.23719 5.61146C7.909 5.93965 7.46388 6.12402 6.99976 6.12402C6.53563 6.12402 6.09051 5.93965 5.76232 5.61146C5.43413 5.28327 5.24976 4.83815 5.24976 4.37402C5.24976 3.90989 5.43413 3.46478 5.76232 3.13659C6.09051 2.8084 6.53563 2.62402 6.99976 2.62402C7.46388 2.62402 7.909 2.8084 8.23719 3.13659C8.56538 3.46478 8.74976 3.90989 8.74976 4.37402V4.37402ZM12.2498 11.374C12.2498 12.249 11.3748 12.249 11.3748 12.249H2.62476C2.62476 12.249 1.74976 12.249 1.74976 11.374C1.74976 10.499 2.62476 7.87402 6.99976 7.87402C11.3748 7.87402 12.2498 10.499 12.2498 11.374ZM11.3748 11.3705C11.3739 11.1553 11.24 10.5078 10.6468 9.91452C10.0763 9.34402 9.00263 8.74902 6.99976 8.74902C4.99601 8.74902 3.92326 9.34402 3.35276 9.91452C2.75951 10.5078 2.62651 11.1553 2.62476 11.3705H11.3748Z" fill="#6C757D"/>
</svg>
