<svg width="9" height="9" viewBox="0 0 9 9" fill="none" xmlns="http://www.w3.org/2000/svg">
<path fill-rule="evenodd" clip-rule="evenodd" d="M1.32271 3.07198C1.34594 3.0487 1.37353 3.03023 1.4039 3.01763C1.43427 3.00502 1.46683 2.99854 1.49971 2.99854C1.5326 2.99854 1.56516 3.00502 1.59553 3.01763C1.6259 3.03023 1.65349 3.0487 1.67671 3.07198L4.49971 5.89548L7.32271 3.07198C7.34596 3.04874 7.37355 3.0303 7.40392 3.01772C7.43429 3.00514 7.46684 2.99867 7.49971 2.99867C7.53259 2.99867 7.56514 3.00514 7.59551 3.01772C7.62588 3.0303 7.65347 3.04874 7.67671 3.07198C7.69996 3.09523 7.7184 3.12282 7.73098 3.15319C7.74356 3.18356 7.75003 3.21611 7.75003 3.24898C7.75003 3.28185 7.74356 3.3144 7.73098 3.34477C7.7184 3.37514 7.69996 3.40274 7.67671 3.42598L4.67671 6.42598C4.65349 6.44926 4.6259 6.46773 4.59553 6.48034C4.56516 6.49294 4.5326 6.49943 4.49971 6.49943C4.46683 6.49943 4.43427 6.49294 4.4039 6.48034C4.37353 6.46773 4.34594 6.44926 4.32271 6.42598L1.32271 3.42598C1.29943 3.40276 1.28096 3.37517 1.26836 3.3448C1.25576 3.31443 1.24927 3.28187 1.24927 3.24898C1.24927 3.2161 1.25576 3.18354 1.26836 3.15317C1.28096 3.12279 1.29943 3.0952 1.32271 3.07198Z" fill="#6C757D"/>
</svg>
