<svg width="14" height="15" viewBox="0 0 14 15" fill="none" xmlns="http://www.w3.org/2000/svg">
<g clip-path="url(#clip0_6464_477367)">
<path d="M13.9998 7.49915C13.9998 9.35566 13.2623 11.1361 11.9495 12.4489C10.6367 13.7616 8.85627 14.4991 6.99976 14.4991C5.14324 14.4991 3.36276 13.7616 2.05001 12.4489C0.737254 11.1361 -0.000244141 9.35566 -0.000244141 7.49915C-0.000244141 5.64263 0.737254 3.86215 2.05001 2.5494C3.36276 1.23664 5.14324 0.499146 6.99976 0.499146C8.85627 0.499146 10.6367 1.23664 11.9495 2.5494C13.2623 3.86215 13.9998 5.64263 13.9998 7.49915V7.49915ZM4.68451 4.5644C4.60236 4.48224 4.49093 4.43609 4.37476 4.43609C4.25858 4.43609 4.14716 4.48224 4.06501 4.5644C3.98285 4.64655 3.9367 4.75797 3.9367 4.87415C3.9367 4.99032 3.98285 5.10174 4.06501 5.1839L6.38113 7.49915L4.06501 9.8144C4.02433 9.85507 3.99206 9.90336 3.97005 9.95651C3.94803 10.0097 3.9367 10.0666 3.9367 10.1241C3.9367 10.1817 3.94803 10.2386 3.97005 10.2918C3.99206 10.3449 4.02433 10.3932 4.06501 10.4339C4.14716 10.516 4.25858 10.5622 4.37476 10.5622C4.43228 10.5622 4.48924 10.5509 4.54239 10.5289C4.59554 10.5068 4.64383 10.4746 4.68451 10.4339L6.99976 8.11777L9.31501 10.4339C9.35568 10.4746 9.40397 10.5068 9.45712 10.5289C9.51027 10.5509 9.56723 10.5622 9.62476 10.5622C9.68228 10.5622 9.73924 10.5509 9.79239 10.5289C9.84554 10.5068 9.89383 10.4746 9.93451 10.4339C9.97518 10.3932 10.0074 10.3449 10.0295 10.2918C10.0515 10.2386 10.0628 10.1817 10.0628 10.1241C10.0628 10.0666 10.0515 10.0097 10.0295 9.95651C10.0074 9.90336 9.97518 9.85507 9.93451 9.8144L7.61838 7.49915L9.93451 5.1839C9.97518 5.14322 10.0074 5.09493 10.0295 5.04178C10.0515 4.98863 10.0628 4.93167 10.0628 4.87415C10.0628 4.81662 10.0515 4.75966 10.0295 4.70651C10.0074 4.65336 9.97518 4.60507 9.93451 4.5644C9.89383 4.52372 9.84554 4.49145 9.79239 4.46944C9.73924 4.44742 9.68228 4.43609 9.62476 4.43609C9.56723 4.43609 9.51027 4.44742 9.45712 4.46944C9.40397 4.49145 9.35568 4.52372 9.31501 4.5644L6.99976 6.88052L4.68451 4.5644Z" fill="#6C757D"/>
</g>
<defs>
<clipPath id="clip0_6464_477367">
<rect width="14" height="14" fill="white" transform="translate(0 0.5)"/>
</clipPath>
</defs>
</svg>
