<svg width="14" height="14" viewBox="0 0 14 14" fill="none" xmlns="http://www.w3.org/2000/svg">
<g clip-path="url(#clip0_6464_477393)">
<path d="M13.9998 6.99921C13.9998 8.85572 13.2623 10.6362 11.9495 11.949C10.6367 13.2617 8.85627 13.9992 6.99976 13.9992C5.14324 13.9992 3.36276 13.2617 2.05001 11.949C0.737254 10.6362 -0.000244141 8.85572 -0.000244141 6.99921C-0.000244141 5.14269 0.737254 3.36221 2.05001 2.04946C3.36276 0.736705 5.14324 -0.000793457 6.99976 -0.000793457C8.85627 -0.000793457 10.6367 0.736705 11.9495 2.04946C13.2623 3.36221 13.9998 5.14269 13.9998 6.99921V6.99921ZM4.68451 4.06446C4.60236 3.98231 4.49093 3.93615 4.37476 3.93615C4.25858 3.93615 4.14716 3.98231 4.06501 4.06446C3.98285 4.14661 3.9367 4.25803 3.9367 4.37421C3.9367 4.49039 3.98285 4.60181 4.06501 4.68396L6.38113 6.99921L4.06501 9.31446C4.02433 9.35513 3.99206 9.40342 3.97005 9.45657C3.94803 9.50972 3.9367 9.56668 3.9367 9.62421C3.9367 9.68173 3.94803 9.7387 3.97005 9.79184C3.99206 9.84499 4.02433 9.89328 4.06501 9.93396C4.14716 10.0161 4.25858 10.0623 4.37476 10.0623C4.43228 10.0623 4.48924 10.0509 4.54239 10.0289C4.59554 10.0069 4.64383 9.97463 4.68451 9.93396L6.99976 7.61783L9.31501 9.93396C9.35568 9.97463 9.40397 10.0069 9.45712 10.0289C9.51027 10.0509 9.56723 10.0623 9.62476 10.0623C9.68228 10.0623 9.73924 10.0509 9.79239 10.0289C9.84554 10.0069 9.89383 9.97463 9.93451 9.93396C9.97518 9.89328 10.0074 9.84499 10.0295 9.79184C10.0515 9.7387 10.0628 9.68173 10.0628 9.62421C10.0628 9.56668 10.0515 9.50972 10.0295 9.45657C10.0074 9.40342 9.97518 9.35513 9.93451 9.31446L7.61838 6.99921L9.93451 4.68396C9.97518 4.64328 10.0074 4.59499 10.0295 4.54184C10.0515 4.4887 10.0628 4.43173 10.0628 4.37421C10.0628 4.31668 10.0515 4.25972 10.0295 4.20657C10.0074 4.15342 9.97518 4.10513 9.93451 4.06446C9.89383 4.02378 9.84554 3.99151 9.79239 3.9695C9.73924 3.94748 9.68228 3.93615 9.62476 3.93615C9.56723 3.93615 9.51027 3.94748 9.45712 3.9695C9.40397 3.99151 9.35568 4.02378 9.31501 4.06446L6.99976 6.38058L4.68451 4.06446Z" fill="#6C757D"/>
</g>
<defs>
<clipPath id="clip0_6464_477393">
<rect width="14" height="14" fill="white"/>
</clipPath>
</defs>
</svg>
