<svg width="14" height="14" viewBox="0 0 14 14" fill="none" xmlns="http://www.w3.org/2000/svg">
<path d="M3.49976 9.43258C3.62926 10.8912 4.82363 11.9263 6.64188 12.0602V13.1242H7.55451V12.0602C9.54076 11.9036 10.7728 10.802 10.7728 9.17271C10.7728 7.78146 9.94413 6.97646 8.18626 6.52321L7.55451 6.35958V3.03283C8.53626 3.12908 9.19863 3.65758 9.36576 4.44683H10.652C10.5068 3.04683 9.30451 2.04233 7.55451 1.93121V0.874207H6.64188V1.95308C4.94526 2.15433 3.78063 3.24108 3.78063 4.71458C3.78063 5.98683 4.62588 6.88721 6.10901 7.26696L6.64276 7.40871V10.9358C5.63738 10.7871 4.94526 10.2358 4.77813 9.43258H3.49976V9.43258ZM6.46688 6.07608C5.55426 5.84596 5.06688 5.35421 5.06688 4.66208C5.06688 3.83608 5.68288 3.22621 6.64188 3.06258V6.12071L6.46688 6.07696V6.07608ZM7.85901 7.71408C8.98513 7.99671 9.47951 8.46571 9.47951 9.26196C9.47951 10.2218 8.75676 10.8615 7.55451 10.9586V7.63796L7.85901 7.71321V7.71408Z" fill="#6C757D"/>
</svg>
