<svg width="16" height="16" viewBox="0 0 16 16" fill="none" xmlns="http://www.w3.org/2000/svg">
<g clip-path="url(#clip0_6464_477842)">
<path d="M7.99976 14.9991C6.14324 14.9991 4.36276 14.2616 3.05001 12.9489C1.73725 11.6361 0.999756 9.85566 0.999756 7.99915C0.999756 6.14263 1.73725 4.36215 3.05001 3.0494C4.36276 1.73664 6.14324 0.999146 7.99976 0.999146C9.85627 0.999146 11.6367 1.73664 12.9495 3.0494C14.2623 4.36215 14.9998 6.14263 14.9998 7.99915C14.9998 9.85566 14.2623 11.6361 12.9495 12.9489C11.6367 14.2616 9.85627 14.9991 7.99976 14.9991ZM7.99976 15.9991C10.1215 15.9991 12.1563 15.1563 13.6566 13.656C15.1569 12.1557 15.9998 10.1209 15.9998 7.99915C15.9998 5.87741 15.1569 3.84258 13.6566 2.34229C12.1563 0.842 10.1215 -0.000854492 7.99976 -0.000854492C5.87802 -0.000854492 3.84319 0.842 2.3429 2.34229C0.842611 3.84258 -0.000244141 5.87741 -0.000244141 7.99915C-0.000244141 10.1209 0.842611 12.1557 2.3429 13.656C3.84319 15.1563 5.87802 15.9991 7.99976 15.9991Z" fill="black"/>
<path d="M7.99976 3.99915C8.13236 3.99915 8.25954 4.05182 8.35331 4.14559C8.44708 4.23936 8.49976 4.36654 8.49976 4.49915V7.49915H11.4998C11.6324 7.49915 11.7595 7.55182 11.8533 7.64559C11.9471 7.73936 11.9998 7.86654 11.9998 7.99915C11.9998 8.13175 11.9471 8.25893 11.8533 8.3527C11.7595 8.44647 11.6324 8.49915 11.4998 8.49915H8.49976V11.4991C8.49976 11.6318 8.44708 11.7589 8.35331 11.8527C8.25954 11.9465 8.13236 11.9991 7.99976 11.9991C7.86715 11.9991 7.73997 11.9465 7.6462 11.8527C7.55243 11.7589 7.49976 11.6318 7.49976 11.4991V8.49915H4.49976C4.36715 8.49915 4.23997 8.44647 4.1462 8.3527C4.05243 8.25893 3.99976 8.13175 3.99976 7.99915C3.99976 7.86654 4.05243 7.73936 4.1462 7.64559C4.23997 7.55182 4.36715 7.49915 4.49976 7.49915H7.49976V4.49915C7.49976 4.36654 7.55243 4.23936 7.6462 4.14559C7.73997 4.05182 7.86715 3.99915 7.99976 3.99915Z" fill="black"/>
</g>
<defs>
<clipPath id="clip0_6464_477842">
<rect width="16" height="16" fill="white"/>
</clipPath>
</defs>
</svg>
