<svg width="16" height="16" viewBox="0 0 16 16" fill="none" xmlns="http://www.w3.org/2000/svg">
<g clip-path="url(#clip0_6464_470000)">
<path d="M15.9995 7.99918C15.9995 10.1209 15.1567 12.1557 13.6564 13.656C12.1561 15.1563 10.1212 15.9992 7.99951 15.9992C5.87778 15.9992 3.84295 15.1563 2.34266 13.656C0.842367 12.1557 -0.000488281 10.1209 -0.000488281 7.99918C-0.000488281 5.87744 0.842367 3.84261 2.34266 2.34232C3.84295 0.842031 5.87778 -0.000823975 7.99951 -0.000823975C10.1212 -0.000823975 12.1561 0.842031 13.6564 2.34232C15.1567 3.84261 15.9995 5.87744 15.9995 7.99918V7.99918ZM5.35351 4.64518C5.25963 4.55129 5.13229 4.49854 4.99951 4.49854C4.86674 4.49854 4.7394 4.55129 4.64551 4.64518C4.55162 4.73906 4.49888 4.8664 4.49888 4.99918C4.49888 5.13195 4.55162 5.25929 4.64551 5.35318L7.29251 7.99918L4.64551 10.6452C4.59902 10.6917 4.56215 10.7469 4.53699 10.8076C4.51183 10.8683 4.49888 10.9334 4.49888 10.9992C4.49888 11.0649 4.51183 11.13 4.53699 11.1908C4.56215 11.2515 4.59902 11.3067 4.64551 11.3532C4.7394 11.4471 4.86674 11.4998 4.99951 11.4998C5.06526 11.4998 5.13036 11.4869 5.1911 11.4617C5.25183 11.4365 5.30702 11.3997 5.35351 11.3532L7.99951 8.70618L10.6455 11.3532C10.692 11.3997 10.7472 11.4365 10.8079 11.4617C10.8687 11.4869 10.9338 11.4998 10.9995 11.4998C11.0653 11.4998 11.1304 11.4869 11.1911 11.4617C11.2518 11.4365 11.307 11.3997 11.3535 11.3532C11.4 11.3067 11.4369 11.2515 11.462 11.1908C11.4872 11.13 11.5001 11.0649 11.5001 10.9992C11.5001 10.9334 11.4872 10.8683 11.462 10.8076C11.4369 10.7469 11.4 10.6917 11.3535 10.6452L8.70651 7.99918L11.3535 5.35318C11.4 5.30669 11.4369 5.2515 11.462 5.19076C11.4872 5.13002 11.5001 5.06492 11.5001 4.99918C11.5001 4.93343 11.4872 4.86833 11.462 4.80759C11.4369 4.74685 11.4 4.69166 11.3535 4.64518C11.307 4.59869 11.2518 4.56181 11.1911 4.53665C11.1304 4.51149 11.0653 4.49854 10.9995 4.49854C10.9338 4.49854 10.8687 4.51149 10.8079 4.53665C10.7472 4.56181 10.692 4.59869 10.6455 4.64518L7.99951 7.29218L5.35351 4.64518Z" fill="#6C757D"/>
</g>
<defs>
<clipPath id="clip0_6464_470000">
<rect width="16" height="16" fill="white"/>
</clipPath>
</defs>
</svg>
