<svg width="16" height="17" viewBox="0 0 16 17" fill="none" xmlns="http://www.w3.org/2000/svg">
<g clip-path="url(#clip0_6464_472639)">
<path d="M7.99951 15.5713C6.143 15.5713 4.36252 14.8338 3.04976 13.521C1.73701 12.2083 0.999512 10.4278 0.999512 8.57129C0.999512 6.71477 1.73701 4.9343 3.04976 3.62154C4.36252 2.30879 6.143 1.57129 7.99951 1.57129C9.85603 1.57129 11.6365 2.30879 12.9493 3.62154C14.262 4.9343 14.9995 6.71477 14.9995 8.57129C14.9995 10.4278 14.262 12.2083 12.9493 13.521C11.6365 14.8338 9.85603 15.5713 7.99951 15.5713ZM7.99951 16.5713C10.1212 16.5713 12.1561 15.7284 13.6564 14.2281C15.1567 12.7279 15.9995 10.693 15.9995 8.57129C15.9995 6.44956 15.1567 4.41473 13.6564 2.91443C12.1561 1.41414 10.1212 0.571289 7.99951 0.571289C5.87778 0.571289 3.84295 1.41414 2.34266 2.91443C0.842367 4.41473 -0.000488281 6.44956 -0.000488281 8.57129C-0.000488281 10.693 0.842367 12.7279 2.34266 14.2281C3.84295 15.7284 5.87778 16.5713 7.99951 16.5713Z" fill="white"/>
<path d="M7.99951 4.57129C8.13212 4.57129 8.2593 4.62397 8.35307 4.71774C8.44683 4.8115 8.49951 4.93868 8.49951 5.07129V8.07129H11.4995C11.6321 8.07129 11.7593 8.12397 11.8531 8.21774C11.9468 8.3115 11.9995 8.43868 11.9995 8.57129C11.9995 8.7039 11.9468 8.83107 11.8531 8.92484C11.7593 9.01861 11.6321 9.07129 11.4995 9.07129H8.49951V12.0713C8.49951 12.2039 8.44683 12.3311 8.35307 12.4248C8.2593 12.5186 8.13212 12.5713 7.99951 12.5713C7.8669 12.5713 7.73973 12.5186 7.64596 12.4248C7.55219 12.3311 7.49951 12.2039 7.49951 12.0713V9.07129H4.49951C4.3669 9.07129 4.23973 9.01861 4.14596 8.92484C4.05219 8.83107 3.99951 8.7039 3.99951 8.57129C3.99951 8.43868 4.05219 8.3115 4.14596 8.21774C4.23973 8.12397 4.3669 8.07129 4.49951 8.07129H7.49951V5.07129C7.49951 4.93868 7.55219 4.8115 7.64596 4.71774C7.73973 4.62397 7.8669 4.57129 7.99951 4.57129Z" fill="white"/>
</g>
<defs>
<clipPath id="clip0_6464_472639">
<rect width="16" height="16" fill="white" transform="translate(0 0.572266)"/>
</clipPath>
</defs>
</svg>
