<svg width="14" height="14" viewBox="0 0 14 14" fill="none" xmlns="http://www.w3.org/2000/svg">
<g clip-path="url(#clip0_6464_480408)">
<path d="M13.9995 6.99921C13.9995 8.85572 13.262 10.6362 11.9493 11.949C10.6365 13.2617 8.85603 13.9992 6.99951 13.9992C5.143 13.9992 3.36252 13.2617 2.04976 11.949C0.73701 10.6362 -0.000488281 8.85572 -0.000488281 6.99921C-0.000488281 5.14269 0.73701 3.36221 2.04976 2.04946C3.36252 0.736705 5.143 -0.000793457 6.99951 -0.000793457C8.85603 -0.000793457 10.6365 0.736705 11.9493 2.04946C13.262 3.36221 13.9995 5.14269 13.9995 6.99921V6.99921ZM4.68426 4.06446C4.60211 3.98231 4.49069 3.93615 4.37451 3.93615C4.25833 3.93615 4.14691 3.98231 4.06476 4.06446C3.98261 4.14661 3.93646 4.25803 3.93646 4.37421C3.93646 4.49039 3.98261 4.60181 4.06476 4.68396L6.38089 6.99921L4.06476 9.31446C4.02408 9.35513 3.99182 9.40342 3.9698 9.45657C3.94779 9.50972 3.93646 9.56668 3.93646 9.62421C3.93646 9.68173 3.94779 9.7387 3.9698 9.79184C3.99182 9.84499 4.02408 9.89328 4.06476 9.93396C4.14691 10.0161 4.25833 10.0623 4.37451 10.0623C4.43204 10.0623 4.489 10.0509 4.54215 10.0289C4.59529 10.0069 4.64358 9.97463 4.68426 9.93396L6.99951 7.61783L9.31476 9.93396C9.35544 9.97463 9.40373 10.0069 9.45688 10.0289C9.51002 10.0509 9.56699 10.0623 9.62451 10.0623C9.68204 10.0623 9.739 10.0509 9.79215 10.0289C9.84529 10.0069 9.89358 9.97463 9.93426 9.93396C9.97494 9.89328 10.0072 9.84499 10.0292 9.79184C10.0512 9.7387 10.0626 9.68173 10.0626 9.62421C10.0626 9.56668 10.0512 9.50972 10.0292 9.45657C10.0072 9.40342 9.97494 9.35513 9.93426 9.31446L7.61814 6.99921L9.93426 4.68396C9.97494 4.64328 10.0072 4.59499 10.0292 4.54184C10.0512 4.4887 10.0626 4.43173 10.0626 4.37421C10.0626 4.31668 10.0512 4.25972 10.0292 4.20657C10.0072 4.15342 9.97494 4.10513 9.93426 4.06446C9.89358 4.02378 9.84529 3.99151 9.79215 3.9695C9.739 3.94748 9.68204 3.93615 9.62451 3.93615C9.56699 3.93615 9.51002 3.94748 9.45688 3.9695C9.40373 3.99151 9.35544 4.02378 9.31476 4.06446L6.99951 6.38058L4.68426 4.06446Z" fill="#6C757D"/>
</g>
<defs>
<clipPath id="clip0_6464_480408">
<rect width="14" height="14" fill="white"/>
</clipPath>
</defs>
</svg>
