<svg width="20" height="20" viewBox="0 0 20 20" fill="none" xmlns="http://www.w3.org/2000/svg">
<path fill-rule="evenodd" clip-rule="evenodd" d="M17.9428 14.1933C17.8848 14.2515 17.8158 14.2977 17.7399 14.3292C17.664 14.3607 17.5826 14.377 17.5003 14.377C17.4181 14.377 17.3367 14.3607 17.2608 14.3292C17.1849 14.2977 17.1159 14.2515 17.0578 14.1933L10.0003 7.13459L2.94285 14.1933C2.88474 14.2514 2.81575 14.2975 2.73983 14.329C2.6639 14.3604 2.58253 14.3766 2.50035 14.3766C2.41817 14.3766 2.33679 14.3604 2.26087 14.329C2.18494 14.2975 2.11596 14.2514 2.05785 14.1933C1.99974 14.1352 1.95364 14.0662 1.92219 13.9903C1.89075 13.9144 1.87456 13.833 1.87456 13.7508C1.87456 13.6687 1.89075 13.5873 1.92219 13.5114C1.95364 13.4354 1.99974 13.3664 2.05785 13.3083L9.55785 5.80834C9.6159 5.75013 9.68487 5.70395 9.76081 5.67245C9.83674 5.64094 9.91814 5.62472 10.0003 5.62472C10.0826 5.62472 10.164 5.64094 10.2399 5.67245C10.3158 5.70395 10.3848 5.75013 10.4428 5.80834L17.9428 13.3083C18.0011 13.3664 18.0472 13.4354 18.0787 13.5113C18.1102 13.5872 18.1265 13.6686 18.1265 13.7508C18.1265 13.833 18.1102 13.9144 18.0787 13.9904C18.0472 14.0663 18.0011 14.1353 17.9428 14.1933Z" fill="#0C63E4"/>
</svg>
