<svg width="14" height="14" viewBox="0 0 14 14" fill="none" xmlns="http://www.w3.org/2000/svg">
<path d="M6.99951 6.99915C7.69571 6.99915 8.36338 6.72258 8.85567 6.2303C9.34795 5.73802 9.62451 5.07034 9.62451 4.37415C9.62451 3.67795 9.34795 3.01027 8.85567 2.51799C8.36338 2.02571 7.69571 1.74915 6.99951 1.74915C6.30332 1.74915 5.63564 2.02571 5.14336 2.51799C4.65107 3.01027 4.37451 3.67795 4.37451 4.37415C4.37451 5.07034 4.65107 5.73802 5.14336 6.2303C5.63564 6.72258 6.30332 6.99915 6.99951 6.99915V6.99915ZM8.74951 4.37415C8.74951 4.83827 8.56514 5.28339 8.23695 5.61158C7.90876 5.93977 7.46364 6.12415 6.99951 6.12415C6.53538 6.12415 6.09026 5.93977 5.76207 5.61158C5.43389 5.28339 5.24951 4.83827 5.24951 4.37415C5.24951 3.91002 5.43389 3.4649 5.76207 3.13671C6.09026 2.80852 6.53538 2.62415 6.99951 2.62415C7.46364 2.62415 7.90876 2.80852 8.23695 3.13671C8.56514 3.4649 8.74951 3.91002 8.74951 4.37415V4.37415ZM12.2495 11.3741C12.2495 12.2491 11.3745 12.2491 11.3745 12.2491H2.62451C2.62451 12.2491 1.74951 12.2491 1.74951 11.3741C1.74951 10.4991 2.62451 7.87415 6.99951 7.87415C11.3745 7.87415 12.2495 10.4991 12.2495 11.3741ZM11.3745 11.3706C11.3736 11.1554 11.2398 10.5079 10.6465 9.91465C10.076 9.34415 9.00239 8.74915 6.99951 8.74915C4.99576 8.74915 3.92301 9.34415 3.35251 9.91465C2.75926 10.5079 2.62626 11.1554 2.62451 11.3706H11.3745Z" fill="#6C757D"/>
</svg>
