<svg width="14" height="14" viewBox="0 0 14 14" fill="none" xmlns="http://www.w3.org/2000/svg">
<g clip-path="url(#clip0_6464_78505)">
<path d="M9.49676 6.25193C9.5375 6.29257 9.56983 6.34084 9.59188 6.394C9.61394 6.44715 9.62529 6.50413 9.62529 6.56168C9.62529 6.61922 9.61394 6.6762 9.59188 6.72936C9.56983 6.78251 9.5375 6.83079 9.49676 6.87143L6.87176 9.49643C6.83112 9.53717 6.78284 9.56949 6.72969 9.59155C6.67654 9.61361 6.61956 9.62496 6.56201 9.62496C6.50447 9.62496 6.44748 9.61361 6.39433 9.59155C6.34118 9.56949 6.2929 9.53717 6.25226 9.49643L4.93976 8.18393C4.89908 8.14325 4.86682 8.09496 4.8448 8.04181C4.82279 7.98866 4.81146 7.9317 4.81146 7.87418C4.81146 7.81665 4.82279 7.75969 4.8448 7.70654C4.86682 7.65339 4.89908 7.6051 4.93976 7.56443C5.02191 7.48228 5.13333 7.43612 5.24951 7.43612C5.30704 7.43612 5.364 7.44745 5.41715 7.46947C5.47029 7.49148 5.51858 7.52375 5.55926 7.56443L6.56201 8.56805L8.87726 6.25193C8.9179 6.21118 8.96618 6.17886 9.01933 6.1568C9.07248 6.13475 9.12947 6.12339 9.18701 6.12339C9.24456 6.12339 9.30154 6.13475 9.35469 6.1568C9.40784 6.17886 9.45612 6.21118 9.49676 6.25193Z" fill="#6C757D"/>
<path d="M3.06201 -0.000823975C3.17804 -0.000823975 3.28932 0.0452696 3.37137 0.127317C3.45342 0.209364 3.49951 0.320644 3.49951 0.436676V0.874176H10.4995V0.436676C10.4995 0.320644 10.5456 0.209364 10.6277 0.127317C10.7097 0.0452696 10.821 -0.000823975 10.937 -0.000823975C11.053 -0.000823975 11.1643 0.0452696 11.2464 0.127317C11.3284 0.209364 11.3745 0.320644 11.3745 0.436676V0.874176H12.2495C12.7136 0.874176 13.1588 1.05855 13.4869 1.38674C13.8151 1.71493 13.9995 2.16005 13.9995 2.62418V12.2492C13.9995 12.7133 13.8151 13.1584 13.4869 13.4866C13.1588 13.8148 12.7136 13.9992 12.2495 13.9992H1.74951C1.28538 13.9992 0.840263 13.8148 0.512075 13.4866C0.183886 13.1584 -0.000488281 12.7133 -0.000488281 12.2492V2.62418C-0.000488281 2.16005 0.183886 1.71493 0.512075 1.38674C0.840263 1.05855 1.28538 0.874176 1.74951 0.874176H2.62451V0.436676C2.62451 0.320644 2.67061 0.209364 2.75265 0.127317C2.8347 0.0452696 2.94598 -0.000823975 3.06201 -0.000823975ZM0.874512 3.49918V12.2492C0.874512 12.4812 0.966699 12.7038 1.13079 12.8679C1.29489 13.032 1.51745 13.1242 1.74951 13.1242H12.2495C12.4816 13.1242 12.7041 13.032 12.8682 12.8679C13.0323 12.7038 13.1245 12.4812 13.1245 12.2492V3.49918H0.874512Z" fill="#6C757D"/>
</g>
<defs>
<clipPath id="clip0_6464_78505">
<rect width="14" height="14" fill="white"/>
</clipPath>
</defs>
</svg>
