<svg width="16" height="17" viewBox="0 0 16 17" fill="none" xmlns="http://www.w3.org/2000/svg">
<g clip-path="url(#clip0_6464_477551)">
<path d="M13.9998 1.57123C14.265 1.57123 14.5193 1.67658 14.7069 1.86412C14.8944 2.05166 14.9998 2.30601 14.9998 2.57123V14.5712C14.9998 14.8364 14.8944 15.0908 14.7069 15.2783C14.5193 15.4659 14.265 15.5712 13.9998 15.5712H1.99976C1.73454 15.5712 1.48019 15.4659 1.29265 15.2783C1.10511 15.0908 0.999756 14.8364 0.999756 14.5712V2.57123C0.999756 2.30601 1.10511 2.05166 1.29265 1.86412C1.48019 1.67658 1.73454 1.57123 1.99976 1.57123H13.9998ZM1.99976 0.571228C1.46932 0.571228 0.960615 0.781942 0.585542 1.15701C0.21047 1.53209 -0.000244141 2.0408 -0.000244141 2.57123V14.5712C-0.000244141 15.1017 0.21047 15.6104 0.585542 15.9854C0.960615 16.3605 1.46932 16.5712 1.99976 16.5712H13.9998C14.5302 16.5712 15.0389 16.3605 15.414 15.9854C15.789 15.6104 15.9998 15.1017 15.9998 14.5712V2.57123C15.9998 2.0408 15.789 1.53209 15.414 1.15701C15.0389 0.781942 14.5302 0.571228 13.9998 0.571228H1.99976Z" fill="white"/>
<path d="M7.99976 4.57123C8.13236 4.57123 8.25954 4.62391 8.35331 4.71767C8.44708 4.81144 8.49976 4.93862 8.49976 5.07123V8.07123H11.4998C11.6324 8.07123 11.7595 8.12391 11.8533 8.21767C11.9471 8.31144 11.9998 8.43862 11.9998 8.57123C11.9998 8.70384 11.9471 8.83101 11.8533 8.92478C11.7595 9.01855 11.6324 9.07123 11.4998 9.07123H8.49976V12.0712C8.49976 12.2038 8.44708 12.331 8.35331 12.4248C8.25954 12.5185 8.13236 12.5712 7.99976 12.5712C7.86715 12.5712 7.73997 12.5185 7.6462 12.4248C7.55243 12.331 7.49976 12.2038 7.49976 12.0712V9.07123H4.49976C4.36715 9.07123 4.23997 9.01855 4.1462 8.92478C4.05243 8.83101 3.99976 8.70384 3.99976 8.57123C3.99976 8.43862 4.05243 8.31144 4.1462 8.21767C4.23997 8.12391 4.36715 8.07123 4.49976 8.07123H7.49976V5.07123C7.49976 4.93862 7.55243 4.81144 7.6462 4.71767C7.73997 4.62391 7.86715 4.57123 7.99976 4.57123Z" fill="white"/>
</g>
<defs>
<clipPath id="clip0_6464_477551">
<rect width="16" height="16" fill="white" transform="translate(0 0.572021)"/>
</clipPath>
</defs>
</svg>
