<svg width="15" height="14" viewBox="0 0 15 14" fill="none" xmlns="http://www.w3.org/2000/svg">
<g clip-path="url(#clip0_6464_474342)">
<path d="M7.9978 13.125C6.37335 13.125 4.81543 12.4797 3.66677 11.331C2.51811 10.1824 1.8728 8.62445 1.8728 7C1.8728 5.37555 2.51811 3.81763 3.66677 2.66897C4.81543 1.52031 6.37335 0.875 7.9978 0.875C9.62225 0.875 11.1802 1.52031 12.3288 2.66897C13.4775 3.81763 14.1228 5.37555 14.1228 7C14.1228 8.62445 13.4775 10.1824 12.3288 11.331C11.1802 12.4797 9.62225 13.125 7.9978 13.125ZM7.9978 14C9.85432 14 11.6348 13.2625 12.9476 11.9497C14.2603 10.637 14.9978 8.85652 14.9978 7C14.9978 5.14348 14.2603 3.36301 12.9476 2.05025C11.6348 0.737498 9.85432 0 7.9978 0C6.14129 0 4.36081 0.737498 3.04806 2.05025C1.7353 3.36301 0.997803 5.14348 0.997803 7C0.997803 8.85652 1.7353 10.637 3.04806 11.9497C4.36081 13.2625 6.14129 14 7.9978 14Z" fill="#6C757D"/>
<path d="M8.81155 5.7645L6.8078 6.01562L6.73605 6.34813L7.1298 6.42075C7.38705 6.482 7.4378 6.57475 7.3818 6.83113L6.73605 9.86562C6.5663 10.6505 6.82793 11.0197 7.44305 11.0197C7.91993 11.0197 8.4738 10.7993 8.72493 10.4965L8.80193 10.1325C8.62693 10.2865 8.37143 10.3478 8.20168 10.3478C7.96105 10.3478 7.87355 10.1789 7.93568 9.88138L8.81155 5.7645ZM8.8728 3.9375C8.8728 4.16956 8.78062 4.39212 8.61652 4.55622C8.45243 4.72031 8.22987 4.8125 7.9978 4.8125C7.76574 4.8125 7.54318 4.72031 7.37908 4.55622C7.21499 4.39212 7.1228 4.16956 7.1228 3.9375C7.1228 3.70544 7.21499 3.48288 7.37908 3.31878C7.54318 3.15469 7.76574 3.0625 7.9978 3.0625C8.22987 3.0625 8.45243 3.15469 8.61652 3.31878C8.78062 3.48288 8.8728 3.70544 8.8728 3.9375Z" fill="#6C757D"/>
</g>
<defs>
<clipPath id="clip0_6464_474342">
<rect width="14" height="14" fill="white" transform="translate(0.998047 0.000976562)"/>
</clipPath>
</defs>
</svg>
