<svg width="16" height="16" viewBox="0 0 16 16" fill="none" xmlns="http://www.w3.org/2000/svg">
<g clip-path="url(#clip0_6464_476313)">
<path d="M7.99963 14.9991C6.14312 14.9991 4.36264 14.2616 3.04989 12.9489C1.73713 11.6361 0.999634 9.85566 0.999634 7.99915C0.999634 6.14263 1.73713 4.36215 3.04989 3.0494C4.36264 1.73664 6.14312 0.999146 7.99963 0.999146C9.85615 0.999146 11.6366 1.73664 12.9494 3.0494C14.2621 4.36215 14.9996 6.14263 14.9996 7.99915C14.9996 9.85566 14.2621 11.6361 12.9494 12.9489C11.6366 14.2616 9.85615 14.9991 7.99963 14.9991ZM7.99963 15.9991C10.1214 15.9991 12.1562 15.1563 13.6565 13.656C15.1568 12.1557 15.9996 10.1209 15.9996 7.99915C15.9996 5.87741 15.1568 3.84258 13.6565 2.34229C12.1562 0.842 10.1214 -0.000854492 7.99963 -0.000854492C5.8779 -0.000854492 3.84307 0.842 2.34278 2.34229C0.842489 3.84258 -0.000366211 5.87741 -0.000366211 7.99915C-0.000366211 10.1209 0.842489 12.1557 2.34278 13.656C3.84307 15.1563 5.8779 15.9991 7.99963 15.9991Z" fill="black"/>
<path d="M7.99963 3.99915C8.13224 3.99915 8.25942 4.05182 8.35319 4.14559C8.44696 4.23936 8.49963 4.36654 8.49963 4.49915V7.49915H11.4996C11.6322 7.49915 11.7594 7.55182 11.8532 7.64559C11.947 7.73936 11.9996 7.86654 11.9996 7.99915C11.9996 8.13175 11.947 8.25893 11.8532 8.3527C11.7594 8.44647 11.6322 8.49915 11.4996 8.49915H8.49963V11.4991C8.49963 11.6318 8.44696 11.7589 8.35319 11.8527C8.25942 11.9465 8.13224 11.9991 7.99963 11.9991C7.86703 11.9991 7.73985 11.9465 7.64608 11.8527C7.55231 11.7589 7.49963 11.6318 7.49963 11.4991V8.49915H4.49963C4.36703 8.49915 4.23985 8.44647 4.14608 8.3527C4.05231 8.25893 3.99963 8.13175 3.99963 7.99915C3.99963 7.86654 4.05231 7.73936 4.14608 7.64559C4.23985 7.55182 4.36703 7.49915 4.49963 7.49915H7.49963V4.49915C7.49963 4.36654 7.55231 4.23936 7.64608 4.14559C7.73985 4.05182 7.86703 3.99915 7.99963 3.99915Z" fill="black"/>
</g>
<defs>
<clipPath id="clip0_6464_476313">
<rect width="16" height="16" fill="white"/>
</clipPath>
</defs>
</svg>
