<svg width="14" height="14" viewBox="0 0 14 14" fill="none" xmlns="http://www.w3.org/2000/svg">
<g clip-path="url(#clip0_6464_87168)">
<path d="M6.99976 13.125C5.3753 13.125 3.81739 12.4797 2.66873 11.331C1.52007 10.1824 0.874756 8.62445 0.874756 7C0.874756 5.37555 1.52007 3.81763 2.66873 2.66897C3.81739 1.52031 5.3753 0.875 6.99976 0.875C8.62421 0.875 10.1821 1.52031 11.3308 2.66897C12.4794 3.81763 13.1248 5.37555 13.1248 7C13.1248 8.62445 12.4794 10.1824 11.3308 11.331C10.1821 12.4797 8.62421 13.125 6.99976 13.125ZM6.99976 14C8.85627 14 10.6367 13.2625 11.9495 11.9497C13.2623 10.637 13.9998 8.85651 13.9998 7C13.9998 5.14348 13.2623 3.36301 11.9495 2.05025C10.6367 0.737498 8.85627 0 6.99976 0C5.14324 0 3.36276 0.737498 2.05001 2.05025C0.737254 3.36301 -0.000244141 5.14348 -0.000244141 7C-0.000244141 8.85651 0.737254 10.637 2.05001 11.9497C3.36276 13.2625 5.14324 14 6.99976 14Z" fill="#6C757D"/>
<path d="M7.81351 5.7645L5.80976 6.01562L5.73801 6.34812L6.13176 6.42075C6.38901 6.482 6.43976 6.57475 6.38376 6.83113L5.73801 9.86562C5.56826 10.6505 5.82988 11.0197 6.44501 11.0197C6.92188 11.0197 7.47576 10.7992 7.72688 10.4965L7.80388 10.1325C7.62888 10.2865 7.37338 10.3477 7.20363 10.3477C6.96301 10.3477 6.87551 10.1789 6.93763 9.88138L7.81351 5.7645ZM7.87476 3.9375C7.87476 4.16956 7.78257 4.39212 7.61847 4.55622C7.45438 4.72031 7.23182 4.8125 6.99976 4.8125C6.76769 4.8125 6.54513 4.72031 6.38104 4.55622C6.21694 4.39212 6.12476 4.16956 6.12476 3.9375C6.12476 3.70544 6.21694 3.48288 6.38104 3.31878C6.54513 3.15469 6.76769 3.0625 6.99976 3.0625C7.23182 3.0625 7.45438 3.15469 7.61847 3.31878C7.78257 3.48288 7.87476 3.70544 7.87476 3.9375Z" fill="#6C757D"/>
</g>
<defs>
<clipPath id="clip0_6464_87168">
<rect width="14" height="14" fill="white" transform="translate(0 0.000976562)"/>
</clipPath>
</defs>
</svg>
