<svg width="14" height="14" viewBox="0 0 14 14" fill="none" xmlns="http://www.w3.org/2000/svg">
<g clip-path="url(#clip0_6464_482747)">
<path d="M11.6889 9.83245C13.1773 8.5042 13.9998 6.9992 13.9998 6.9992C13.9998 6.9992 11.3748 2.1867 6.99976 2.1867C6.1594 2.1896 5.32855 2.3647 4.55851 2.7012L5.23226 3.37583C5.79876 3.16946 6.39684 3.06317 6.99976 3.0617C8.85476 3.0617 10.3939 4.0837 11.5218 5.21158C12.0646 5.75731 12.5512 6.35619 12.9743 6.9992C12.9235 7.07533 12.8675 7.15933 12.8036 7.2512C12.5105 7.6712 12.0774 8.2312 11.5218 8.78683C11.3774 8.9312 11.2269 9.07383 11.0694 9.21208L11.6889 9.83245Z" fill="#6C757D"/>
<path d="M9.88463 8.0282C10.0799 7.48206 10.1161 6.89171 9.9889 6.32582C9.86176 5.75993 9.57653 5.24179 9.16641 4.83167C8.7563 4.42155 8.23815 4.13633 7.67226 4.00918C7.10638 3.88203 6.51602 3.91819 5.96988 4.11345L6.69001 4.83358C7.02628 4.78545 7.36914 4.81629 7.69142 4.92367C8.0137 5.03105 8.30654 5.21201 8.54675 5.45221C8.78695 5.69242 8.96791 5.98526 9.07529 6.30754C9.18267 6.62982 9.21351 6.97268 9.16538 7.30895L9.88463 8.0282ZM7.30951 9.16483L8.02876 9.88408C7.48262 10.0793 6.89226 10.1155 6.32637 9.98835C5.76049 9.86121 5.24234 9.57598 4.83222 9.16586C4.42211 8.75574 4.13688 8.2376 4.00973 7.67171C3.88258 7.10582 3.91875 6.51547 4.11401 5.96933L4.83413 6.68945C4.786 7.02572 4.81684 7.36858 4.92422 7.69087C5.0316 8.01315 5.21256 8.30599 5.45277 8.54619C5.69297 8.7864 5.98581 8.96736 6.30809 9.07474C6.63037 9.18211 6.97323 9.21296 7.30951 9.16483Z" fill="#6C757D"/>
<path d="M2.93101 4.78545C2.77351 4.92545 2.62213 5.0672 2.47776 5.21158C1.93495 5.75731 1.44834 6.35619 1.02526 6.9992L1.19588 7.2512C1.48901 7.6712 1.92213 8.2312 2.47776 8.78683C3.60563 9.9147 5.14563 10.9367 6.99976 10.9367C7.62626 10.9367 8.21601 10.8203 8.76726 10.6217L9.44101 11.2972C8.67095 11.6337 7.84011 11.8088 6.99976 11.8117C2.62476 11.8117 -0.000244141 6.9992 -0.000244141 6.9992C-0.000244141 6.9992 0.821381 5.49333 2.31063 4.16595L2.93013 4.78633L2.93101 4.78545ZM11.94 12.559L1.44001 2.05895L2.05951 1.43945L12.5595 11.9395L11.94 12.559Z" fill="#6C757D"/>
</g>
<defs>
<clipPath id="clip0_6464_482747">
<rect width="14" height="14" fill="white"/>
</clipPath>
</defs>
</svg>
