<svg width="9" height="9" viewBox="0 0 9 9" fill="none" xmlns="http://www.w3.org/2000/svg">
<path fill-rule="evenodd" clip-rule="evenodd" d="M1.32247 3.07198C1.34569 3.0487 1.37328 3.03023 1.40365 3.01763C1.43403 3.00502 1.46659 2.99854 1.49947 2.99854C1.53235 2.99854 1.56491 3.00502 1.59529 3.01763C1.62566 3.03023 1.65325 3.0487 1.67647 3.07198L4.49947 5.89548L7.32247 3.07198C7.34571 3.04874 7.37331 3.0303 7.40368 3.01772C7.43405 3.00514 7.4666 2.99867 7.49947 2.99867C7.53234 2.99867 7.56489 3.00514 7.59526 3.01772C7.62563 3.0303 7.65323 3.04874 7.67647 3.07198C7.69971 3.09523 7.71815 3.12282 7.73073 3.15319C7.74331 3.18356 7.74979 3.21611 7.74979 3.24898C7.74979 3.28185 7.74331 3.3144 7.73073 3.34477C7.71815 3.37514 7.69971 3.40274 7.67647 3.42598L4.67647 6.42598C4.65325 6.44926 4.62566 6.46773 4.59529 6.48034C4.56491 6.49294 4.53235 6.49943 4.49947 6.49943C4.46659 6.49943 4.43403 6.49294 4.40365 6.48034C4.37328 6.46773 4.34569 6.44926 4.32247 6.42598L1.32247 3.42598C1.29919 3.40276 1.28072 3.37517 1.26811 3.3448C1.25551 3.31443 1.24902 3.28187 1.24902 3.24898C1.24902 3.2161 1.25551 3.18354 1.26811 3.15317C1.28072 3.12279 1.29919 3.0952 1.32247 3.07198Z" fill="#6C757D"/>
</svg>
