<svg width="14" height="14" viewBox="0 0 14 14" fill="none" xmlns="http://www.w3.org/2000/svg">
<g clip-path="url(#clip0_6464_475864)">
<path d="M13.9996 6.99921C13.9996 8.85572 13.2621 10.6362 11.9494 11.949C10.6366 13.2617 8.85615 13.9992 6.99963 13.9992C5.14312 13.9992 3.36264 13.2617 2.04989 11.949C0.737132 10.6362 -0.000366211 8.85572 -0.000366211 6.99921C-0.000366211 5.14269 0.737132 3.36221 2.04989 2.04946C3.36264 0.736705 5.14312 -0.000793457 6.99963 -0.000793457C8.85615 -0.000793457 10.6366 0.736705 11.9494 2.04946C13.2621 3.36221 13.9996 5.14269 13.9996 6.99921V6.99921ZM4.68438 4.06446C4.60223 3.98231 4.49081 3.93615 4.37463 3.93615C4.25846 3.93615 4.14703 3.98231 4.06488 4.06446C3.98273 4.14661 3.93658 4.25803 3.93658 4.37421C3.93658 4.49039 3.98273 4.60181 4.06488 4.68396L6.38101 6.99921L4.06488 9.31446C4.02421 9.35513 3.99194 9.40342 3.96993 9.45657C3.94791 9.50972 3.93658 9.56668 3.93658 9.62421C3.93658 9.68173 3.94791 9.7387 3.96993 9.79184C3.99194 9.84499 4.02421 9.89328 4.06488 9.93396C4.14703 10.0161 4.25846 10.0623 4.37463 10.0623C4.43216 10.0623 4.48912 10.0509 4.54227 10.0289C4.59542 10.0069 4.64371 9.97463 4.68438 9.93396L6.99963 7.61783L9.31488 9.93396C9.35556 9.97463 9.40385 10.0069 9.457 10.0289C9.51015 10.0509 9.56711 10.0623 9.62463 10.0623C9.68216 10.0623 9.73912 10.0509 9.79227 10.0289C9.84542 10.0069 9.89371 9.97463 9.93438 9.93396C9.97506 9.89328 10.0073 9.84499 10.0293 9.79184C10.0514 9.7387 10.0627 9.68173 10.0627 9.62421C10.0627 9.56668 10.0514 9.50972 10.0293 9.45657C10.0073 9.40342 9.97506 9.35513 9.93438 9.31446L7.61826 6.99921L9.93438 4.68396C9.97506 4.64328 10.0073 4.59499 10.0293 4.54184C10.0514 4.4887 10.0627 4.43173 10.0627 4.37421C10.0627 4.31668 10.0514 4.25972 10.0293 4.20657C10.0073 4.15342 9.97506 4.10513 9.93438 4.06446C9.89371 4.02378 9.84542 3.99151 9.79227 3.9695C9.73912 3.94748 9.68216 3.93615 9.62463 3.93615C9.56711 3.93615 9.51015 3.94748 9.457 3.9695C9.40385 3.99151 9.35556 4.02378 9.31488 4.06446L6.99963 6.38058L4.68438 4.06446Z" fill="#6C757D"/>
</g>
<defs>
<clipPath id="clip0_6464_475864">
<rect width="14" height="14" fill="white"/>
</clipPath>
</defs>
</svg>
