<svg width="16" height="17" viewBox="0 0 16 17" fill="none" xmlns="http://www.w3.org/2000/svg">
<g clip-path="url(#clip0_6464_479139)">
<path d="M7.99951 15.5712C6.143 15.5712 4.36252 14.8337 3.04976 13.521C1.73701 12.2082 0.999512 10.4277 0.999512 8.57123C0.999512 6.71471 1.73701 4.93424 3.04976 3.62148C4.36252 2.30873 6.143 1.57123 7.99951 1.57123C9.85603 1.57123 11.6365 2.30873 12.9493 3.62148C14.262 4.93424 14.9995 6.71471 14.9995 8.57123C14.9995 10.4277 14.262 12.2082 12.9493 13.521C11.6365 14.8337 9.85603 15.5712 7.99951 15.5712ZM7.99951 16.5712C10.1212 16.5712 12.1561 15.7284 13.6564 14.2281C15.1567 12.7278 15.9995 10.693 15.9995 8.57123C15.9995 6.4495 15.1567 4.41466 13.6564 2.91437C12.1561 1.41408 10.1212 0.571228 7.99951 0.571228C5.87778 0.571228 3.84295 1.41408 2.34266 2.91437C0.842367 4.41466 -0.000488281 6.4495 -0.000488281 8.57123C-0.000488281 10.693 0.842367 12.7278 2.34266 14.2281C3.84295 15.7284 5.87778 16.5712 7.99951 16.5712Z" fill="white"/>
<path d="M7.99951 4.57123C8.13212 4.57123 8.2593 4.62391 8.35307 4.71767C8.44683 4.81144 8.49951 4.93862 8.49951 5.07123V8.07123H11.4995C11.6321 8.07123 11.7593 8.12391 11.8531 8.21767C11.9468 8.31144 11.9995 8.43862 11.9995 8.57123C11.9995 8.70384 11.9468 8.83101 11.8531 8.92478C11.7593 9.01855 11.6321 9.07123 11.4995 9.07123H8.49951V12.0712C8.49951 12.2038 8.44683 12.331 8.35307 12.4248C8.2593 12.5185 8.13212 12.5712 7.99951 12.5712C7.8669 12.5712 7.73973 12.5185 7.64596 12.4248C7.55219 12.331 7.49951 12.2038 7.49951 12.0712V9.07123H4.49951C4.3669 9.07123 4.23973 9.01855 4.14596 8.92478C4.05219 8.83101 3.99951 8.70384 3.99951 8.57123C3.99951 8.43862 4.05219 8.31144 4.14596 8.21767C4.23973 8.12391 4.3669 8.07123 4.49951 8.07123H7.49951V5.07123C7.49951 4.93862 7.55219 4.81144 7.64596 4.71767C7.73973 4.62391 7.8669 4.57123 7.99951 4.57123Z" fill="white"/>
</g>
<defs>
<clipPath id="clip0_6464_479139">
<rect width="16" height="16" fill="white" transform="translate(0 0.572021)"/>
</clipPath>
</defs>
</svg>
