<svg width="14" height="14" viewBox="0 0 14 14" fill="none" xmlns="http://www.w3.org/2000/svg">
<g clip-path="url(#clip0_6464_474542)">
<path d="M12.2498 3.93652V12.249C12.2498 12.7132 12.0654 13.1583 11.7372 13.4865C11.409 13.8146 10.9639 13.999 10.4998 13.999H3.49976C3.03563 13.999 2.59051 13.8146 2.26232 13.4865C1.93413 13.1583 1.74976 12.7132 1.74976 12.249V1.74902C1.74976 1.28489 1.93413 0.839775 2.26232 0.511587C2.59051 0.183398 3.03563 -0.000976562 3.49976 -0.000976562H8.31226L12.2498 3.93652ZM9.62476 3.93652C9.27666 3.93652 8.94282 3.79824 8.69668 3.5521C8.45054 3.30596 8.31226 2.97212 8.31226 2.62402V0.874023H3.49976C3.26769 0.874023 3.04513 0.966211 2.88104 1.1303C2.71694 1.2944 2.62476 1.51696 2.62476 1.74902V12.249C2.62476 12.4811 2.71694 12.7036 2.88104 12.8677C3.04513 13.0318 3.26769 13.124 3.49976 13.124H10.4998C10.7318 13.124 10.9544 13.0318 11.1185 12.8677C11.2826 12.7036 11.3748 12.4811 11.3748 12.249V3.93652H9.62476Z" fill="#0D6EFD"/>
</g>
<defs>
<clipPath id="clip0_6464_474542">
<rect width="14" height="14" fill="white"/>
</clipPath>
</defs>
</svg>
