<svg width="14" height="14" viewBox="0 0 14 14" fill="none" xmlns="http://www.w3.org/2000/svg">
<g clip-path="url(#clip0_6464_482351)">
<path d="M13.9996 6.99902C13.9996 8.85554 13.2622 10.636 11.9494 11.9488C10.6366 13.2615 8.85616 13.999 6.99965 13.999C5.14313 13.999 3.36266 13.2615 2.0499 11.9488C0.737147 10.636 -0.000350952 8.85554 -0.000350952 6.99902C-0.000350952 5.14251 0.737147 3.36203 2.0499 2.04928C3.36266 0.736521 5.14313 -0.000976562 6.99965 -0.000976562C8.85616 -0.000976562 10.6366 0.736521 11.9494 2.04928C13.2622 3.36203 13.9996 5.14251 13.9996 6.99902V6.99902ZM4.6844 4.06427C4.60225 3.98212 4.49083 3.93597 4.37465 3.93597C4.25847 3.93597 4.14705 3.98212 4.0649 4.06427C3.98275 4.14642 3.9366 4.25784 3.9366 4.37402C3.9366 4.4902 3.98275 4.60162 4.0649 4.68377L6.38102 6.99902L4.0649 9.31427C4.02422 9.35495 3.99196 9.40324 3.96994 9.45639C3.94793 9.50953 3.9366 9.5665 3.9366 9.62402C3.9366 9.68155 3.94793 9.73851 3.96994 9.79166C3.99196 9.84481 4.02422 9.8931 4.0649 9.93377C4.14705 10.0159 4.25847 10.0621 4.37465 10.0621C4.43217 10.0621 4.48914 10.0507 4.54228 10.0287C4.59543 10.0067 4.64372 9.97445 4.6844 9.93377L6.99965 7.61765L9.3149 9.93377C9.35558 9.97445 9.40387 10.0067 9.45701 10.0287C9.51016 10.0507 9.56712 10.0621 9.62465 10.0621C9.68217 10.0621 9.73914 10.0507 9.79228 10.0287C9.84543 10.0067 9.89372 9.97445 9.9344 9.93377C9.97508 9.8931 10.0073 9.84481 10.0294 9.79166C10.0514 9.73851 10.0627 9.68155 10.0627 9.62402C10.0627 9.5665 10.0514 9.50953 10.0294 9.45639C10.0073 9.40324 9.97508 9.35495 9.9344 9.31427L7.61827 6.99902L9.9344 4.68377C9.97508 4.6431 10.0073 4.59481 10.0294 4.54166C10.0514 4.48851 10.0627 4.43155 10.0627 4.37402C10.0627 4.3165 10.0514 4.25953 10.0294 4.20639C10.0073 4.15324 9.97508 4.10495 9.9344 4.06427C9.89372 4.0236 9.84543 3.99133 9.79228 3.96932C9.73914 3.9473 9.68217 3.93597 9.62465 3.93597C9.56712 3.93597 9.51016 3.9473 9.45701 3.96932C9.40387 3.99133 9.35558 4.0236 9.3149 4.06427L6.99965 6.3804L4.6844 4.06427Z" fill="#6C757D"/>
</g>
<defs>
<clipPath id="clip0_6464_482351">
<rect width="14" height="14" fill="white"/>
</clipPath>
</defs>
</svg>
