<svg width="16" height="16" viewBox="0 0 16 16" fill="none" xmlns="http://www.w3.org/2000/svg">
<g clip-path="url(#clip0_6464_471542)">
<path d="M7.99951 14.9993C6.143 14.9993 4.36252 14.2618 3.04976 12.949C1.73701 11.6363 0.999512 9.85578 0.999512 7.99927C0.999512 6.14275 1.73701 4.36227 3.04976 3.04952C4.36252 1.73677 6.143 0.999268 7.99951 0.999268C9.85603 0.999268 11.6365 1.73677 12.9493 3.04952C14.262 4.36227 14.9995 6.14275 14.9995 7.99927C14.9995 9.85578 14.262 11.6363 12.9493 12.949C11.6365 14.2618 9.85603 14.9993 7.99951 14.9993ZM7.99951 15.9993C10.1212 15.9993 12.1561 15.1564 13.6564 13.6561C15.1567 12.1558 15.9995 10.121 15.9995 7.99927C15.9995 5.87754 15.1567 3.8427 13.6564 2.34241C12.1561 0.842122 10.1212 -0.000732422 7.99951 -0.000732422C5.87778 -0.000732422 3.84295 0.842122 2.34266 2.34241C0.842367 3.8427 -0.000488281 5.87754 -0.000488281 7.99927C-0.000488281 10.121 0.842367 12.1558 2.34266 13.6561C3.84295 15.1564 5.87778 15.9993 7.99951 15.9993Z" fill="white"/>
<path d="M7.99951 3.99927C8.13212 3.99927 8.2593 4.05195 8.35307 4.14571C8.44683 4.23948 8.49951 4.36666 8.49951 4.49927V7.49927H11.4995C11.6321 7.49927 11.7593 7.55195 11.8531 7.64571C11.9468 7.73948 11.9995 7.86666 11.9995 7.99927C11.9995 8.13188 11.9468 8.25905 11.8531 8.35282C11.7593 8.44659 11.6321 8.49927 11.4995 8.49927H8.49951V11.4993C8.49951 11.6319 8.44683 11.7591 8.35307 11.8528C8.2593 11.9466 8.13212 11.9993 7.99951 11.9993C7.8669 11.9993 7.73973 11.9466 7.64596 11.8528C7.55219 11.7591 7.49951 11.6319 7.49951 11.4993V8.49927H4.49951C4.3669 8.49927 4.23973 8.44659 4.14596 8.35282C4.05219 8.25905 3.99951 8.13188 3.99951 7.99927C3.99951 7.86666 4.05219 7.73948 4.14596 7.64571C4.23973 7.55195 4.3669 7.49927 4.49951 7.49927H7.49951V4.49927C7.49951 4.36666 7.55219 4.23948 7.64596 4.14571C7.73973 4.05195 7.8669 3.99927 7.99951 3.99927Z" fill="white"/>
</g>
<defs>
<clipPath id="clip0_6464_471542">
<rect width="16" height="16" fill="white"/>
</clipPath>
</defs>
</svg>
