<svg width="14" height="14" viewBox="0 0 14 14" fill="none" xmlns="http://www.w3.org/2000/svg">
<path d="M6.99965 6.99902C7.69584 6.99902 8.36352 6.72246 8.8558 6.23018C9.34809 5.7379 9.62465 5.07022 9.62465 4.37402C9.62465 3.67783 9.34809 3.01015 8.8558 2.51787C8.36352 2.02559 7.69584 1.74902 6.99965 1.74902C6.30346 1.74902 5.63578 2.02559 5.14349 2.51787C4.65121 3.01015 4.37465 3.67783 4.37465 4.37402C4.37465 5.07022 4.65121 5.7379 5.14349 6.23018C5.63578 6.72246 6.30346 6.99902 6.99965 6.99902V6.99902ZM8.74965 4.37402C8.74965 4.83815 8.56527 5.28327 8.23709 5.61146C7.9089 5.93965 7.46378 6.12402 6.99965 6.12402C6.53552 6.12402 6.0904 5.93965 5.76221 5.61146C5.43402 5.28327 5.24965 4.83815 5.24965 4.37402C5.24965 3.90989 5.43402 3.46478 5.76221 3.13659C6.0904 2.8084 6.53552 2.62402 6.99965 2.62402C7.46378 2.62402 7.9089 2.8084 8.23709 3.13659C8.56527 3.46478 8.74965 3.90989 8.74965 4.37402V4.37402ZM12.2496 11.374C12.2496 12.249 11.3746 12.249 11.3746 12.249H2.62465C2.62465 12.249 1.74965 12.249 1.74965 11.374C1.74965 10.499 2.62465 7.87402 6.99965 7.87402C11.3746 7.87402 12.2496 10.499 12.2496 11.374ZM11.3746 11.3705C11.3738 11.1553 11.2399 10.5078 10.6466 9.91452C10.0761 9.34402 9.00252 8.74902 6.99965 8.74902C4.9959 8.74902 3.92315 9.34402 3.35265 9.91452C2.7594 10.5078 2.6264 11.1553 2.62465 11.3705H11.3746Z" fill="#6C757D"/>
</svg>
