<svg width="14" height="14" viewBox="0 0 14 14" fill="none" xmlns="http://www.w3.org/2000/svg">
<g clip-path="url(#clip0_6464_238453)">
<path d="M6.99976 3.06152C6.99976 2.94549 6.95366 2.83421 6.87161 2.75216C6.78957 2.67012 6.67829 2.62402 6.56226 2.62402C6.44622 2.62402 6.33494 2.67012 6.2529 2.75216C6.17085 2.83421 6.12476 2.94549 6.12476 3.06152V7.87402C6.12478 7.95114 6.14519 8.02688 6.18391 8.09357C6.22263 8.16026 6.27829 8.21552 6.34526 8.25377L9.40776 10.0038C9.50826 10.0581 9.62602 10.0709 9.73587 10.0396C9.84572 10.0082 9.93894 9.93513 9.99562 9.83595C10.0523 9.73676 10.0679 9.61934 10.0392 9.50878C10.0104 9.39821 9.93957 9.30328 9.84176 9.24427L6.99976 7.62027V3.06152Z" fill="#6C757D"/>
<path d="M6.99976 13.999C8.85627 13.999 10.6367 13.2615 11.9495 11.9488C13.2623 10.636 13.9998 8.85554 13.9998 6.99902C13.9998 5.14251 13.2623 3.36203 11.9495 2.04928C10.6367 0.736521 8.85627 -0.000976562 6.99976 -0.000976562C5.14324 -0.000976562 3.36276 0.736521 2.05001 2.04928C0.737254 3.36203 -0.000244141 5.14251 -0.000244141 6.99902C-0.000244141 8.85554 0.737254 10.636 2.05001 11.9488C3.36276 13.2615 5.14324 13.999 6.99976 13.999ZM13.1248 6.99902C13.1248 8.62348 12.4794 10.1814 11.3308 11.3301C10.1821 12.4787 8.62421 13.124 6.99976 13.124C5.3753 13.124 3.81739 12.4787 2.66873 11.3301C1.52007 10.1814 0.874756 8.62348 0.874756 6.99902C0.874756 5.37457 1.52007 3.81665 2.66873 2.66799C3.81739 1.51933 5.3753 0.874023 6.99976 0.874023C8.62421 0.874023 10.1821 1.51933 11.3308 2.66799C12.4794 3.81665 13.1248 5.37457 13.1248 6.99902Z" fill="#6C757D"/>
</g>
<defs>
<clipPath id="clip0_6464_238453">
<rect width="14" height="14" fill="white"/>
</clipPath>
</defs>
</svg>
