<svg width="14" height="14" viewBox="0 0 14 14" fill="none" xmlns="http://www.w3.org/2000/svg">
<g clip-path="url(#clip0_6464_87116)">
<path d="M6.99951 13.125C5.37506 13.125 3.81714 12.4797 2.66848 11.331C1.51982 10.1824 0.874512 8.62445 0.874512 7C0.874512 5.37555 1.51982 3.81763 2.66848 2.66897C3.81714 1.52031 5.37506 0.875 6.99951 0.875C8.62396 0.875 10.1819 1.52031 11.3305 2.66897C12.4792 3.81763 13.1245 5.37555 13.1245 7C13.1245 8.62445 12.4792 10.1824 11.3305 11.331C10.1819 12.4797 8.62396 13.125 6.99951 13.125ZM6.99951 14C8.85603 14 10.6365 13.2625 11.9493 11.9497C13.262 10.637 13.9995 8.85651 13.9995 7C13.9995 5.14348 13.262 3.36301 11.9493 2.05025C10.6365 0.737498 8.85603 0 6.99951 0C5.143 0 3.36252 0.737498 2.04976 2.05025C0.73701 3.36301 -0.000488281 5.14348 -0.000488281 7C-0.000488281 8.85651 0.73701 10.637 2.04976 11.9497C3.36252 13.2625 5.143 14 6.99951 14Z" fill="#6C757D"/>
<path d="M7.81326 5.7645L5.80951 6.01562L5.73776 6.34812L6.13151 6.42075C6.38876 6.482 6.43951 6.57475 6.38351 6.83113L5.73776 9.86562C5.56801 10.6505 5.82964 11.0197 6.44476 11.0197C6.92164 11.0197 7.47551 10.7992 7.72664 10.4965L7.80364 10.1325C7.62864 10.2865 7.37314 10.3477 7.20339 10.3477C6.96276 10.3477 6.87526 10.1789 6.93739 9.88138L7.81326 5.7645ZM7.87451 3.9375C7.87451 4.16956 7.78232 4.39212 7.61823 4.55622C7.45414 4.72031 7.23158 4.8125 6.99951 4.8125C6.76745 4.8125 6.54489 4.72031 6.38079 4.55622C6.2167 4.39212 6.12451 4.16956 6.12451 3.9375C6.12451 3.70544 6.2167 3.48288 6.38079 3.31878C6.54489 3.15469 6.76745 3.0625 6.99951 3.0625C7.23158 3.0625 7.45414 3.15469 7.61823 3.31878C7.78232 3.48288 7.87451 3.70544 7.87451 3.9375Z" fill="#6C757D"/>
</g>
<defs>
<clipPath id="clip0_6464_87116">
<rect width="14" height="14" fill="white" transform="translate(0 0.000976562)"/>
</clipPath>
</defs>
</svg>
