<svg width="12" height="12" viewBox="0 0 12 12" fill="none" xmlns="http://www.w3.org/2000/svg">
<g clip-path="url(#clip0_6464_476097)">
<path d="M5.99963 11.2492C4.60725 11.2492 3.27189 10.6961 2.28732 9.71152C1.30276 8.72695 0.749634 7.39159 0.749634 5.99921C0.749634 4.60682 1.30276 3.27146 2.28732 2.2869C3.27189 1.30233 4.60725 0.749207 5.99963 0.749207C7.39202 0.749207 8.72738 1.30233 9.71194 2.2869C10.6965 3.27146 11.2496 4.60682 11.2496 5.99921C11.2496 7.39159 10.6965 8.72695 9.71194 9.71152C8.72738 10.6961 7.39202 11.2492 5.99963 11.2492ZM5.99963 11.9992C7.59093 11.9992 9.11706 11.3671 10.2423 10.2418C11.3675 9.11663 11.9996 7.59051 11.9996 5.99921C11.9996 4.40791 11.3675 2.88178 10.2423 1.75657C9.11706 0.631348 7.59093 -0.000793457 5.99963 -0.000793457C4.40833 -0.000793457 2.88221 0.631348 1.75699 1.75657C0.631775 2.88178 -0.000366211 4.40791 -0.000366211 5.99921C-0.000366211 7.59051 0.631775 9.11663 1.75699 10.2418C2.88221 11.3671 4.40833 11.9992 5.99963 11.9992Z" fill="#6C757D"/>
<path d="M6.69713 4.94021L4.97963 5.15546L4.91813 5.44046L5.25563 5.50271C5.47613 5.55521 5.51963 5.63471 5.47163 5.85446L4.91813 8.45546C4.77263 9.12821 4.99688 9.44471 5.52413 9.44471C5.93288 9.44471 6.40763 9.25571 6.62288 8.99621L6.68888 8.68421C6.53888 8.81621 6.31988 8.86871 6.17438 8.86871C5.96813 8.86871 5.89313 8.72396 5.94638 8.46896L6.69713 4.94021ZM6.74963 3.37421C6.74963 3.57312 6.67062 3.76388 6.52996 3.90454C6.38931 4.04519 6.19855 4.12421 5.99963 4.12421C5.80072 4.12421 5.60996 4.04519 5.4693 3.90454C5.32865 3.76388 5.24963 3.57312 5.24963 3.37421C5.24963 3.17529 5.32865 2.98453 5.4693 2.84388C5.60996 2.70322 5.80072 2.62421 5.99963 2.62421C6.19855 2.62421 6.38931 2.70322 6.52996 2.84388C6.67062 2.98453 6.74963 3.17529 6.74963 3.37421Z" fill="#6C757D"/>
</g>
<defs>
<clipPath id="clip0_6464_476097">
<rect width="12" height="12" fill="white"/>
</clipPath>
</defs>
</svg>
