<svg width="20" height="20" viewBox="0 0 20 20" fill="none" xmlns="http://www.w3.org/2000/svg">
<path d="M9.99951 9.99927C10.9941 9.99927 11.9479 9.60418 12.6512 8.90092C13.3544 8.19766 13.7495 7.24383 13.7495 6.24927C13.7495 5.25471 13.3544 4.30088 12.6512 3.59762C11.9479 2.89436 10.9941 2.49927 9.99951 2.49927C9.00495 2.49927 8.05112 2.89436 7.34786 3.59762C6.6446 4.30088 6.24951 5.25471 6.24951 6.24927C6.24951 7.24383 6.6446 8.19766 7.34786 8.90092C8.05112 9.60418 9.00495 9.99927 9.99951 9.99927ZM12.4995 6.24927C12.4995 6.91231 12.2361 7.54819 11.7673 8.01703C11.2984 8.48588 10.6626 8.74927 9.99951 8.74927C9.33647 8.74927 8.70059 8.48588 8.23174 8.01703C7.7629 7.54819 7.49951 6.91231 7.49951 6.24927C7.49951 5.58623 7.7629 4.95034 8.23174 4.4815C8.70059 4.01266 9.33647 3.74927 9.99951 3.74927C10.6626 3.74927 11.2984 4.01266 11.7673 4.4815C12.2361 4.95034 12.4995 5.58623 12.4995 6.24927ZM17.4995 16.2493C17.4995 17.4993 16.2495 17.4993 16.2495 17.4993H3.74951C3.74951 17.4993 2.49951 17.4993 2.49951 16.2493C2.49951 14.9993 3.74951 11.2493 9.99951 11.2493C16.2495 11.2493 17.4995 14.9993 17.4995 16.2493ZM16.2495 16.2443C16.2483 15.9368 16.057 15.0118 15.2095 14.1643C14.3945 13.3493 12.8608 12.4993 9.99951 12.4993C7.13701 12.4993 5.60451 13.3493 4.78951 14.1643C3.94201 15.0118 3.75201 15.9368 3.74951 16.2443H16.2495Z" fill="white"/>
</svg>
