<svg width="14" height="15" viewBox="0 0 14 15" fill="none" xmlns="http://www.w3.org/2000/svg">
<path d="M3.49963 9.93252C3.62913 11.3911 4.82351 12.4263 6.64176 12.5601V13.6241H7.55438V12.5601C9.54063 12.4035 10.7726 11.3019 10.7726 9.67265C10.7726 8.2814 9.94401 7.4764 8.18613 7.02315L7.55438 6.85952V3.53277C8.53613 3.62902 9.19851 4.15752 9.36563 4.94677H10.6519C10.5066 3.54677 9.30438 2.54227 7.55438 2.43115V1.37415H6.64176V2.45302C4.94513 2.65427 3.78051 3.74102 3.78051 5.21452C3.78051 6.48677 4.62576 7.38715 6.10888 7.7669L6.64263 7.90865V11.4358C5.63726 11.287 4.94513 10.7358 4.77801 9.93252H3.49963V9.93252ZM6.46676 6.57602C5.55413 6.3459 5.06676 5.85415 5.06676 5.16202C5.06676 4.33602 5.68276 3.72615 6.64176 3.56252V6.62065L6.46676 6.5769V6.57602ZM7.85888 8.21402C8.98501 8.49665 9.47938 8.96565 9.47938 9.7619C9.47938 10.7218 8.75663 11.3614 7.55438 11.4585V8.1379L7.85888 8.21315V8.21402Z" fill="#6C757D"/>
</svg>
