<svg width="14" height="14" viewBox="0 0 14 14" fill="none" xmlns="http://www.w3.org/2000/svg">
<g clip-path="url(#clip0_6464_87272)">
<path d="M6.99976 13.1241C5.3753 13.1241 3.81739 12.4788 2.66873 11.3302C1.52007 10.1815 0.874756 8.6236 0.874756 6.99915C0.874756 5.37469 1.52007 3.81678 2.66873 2.66812C3.81739 1.51946 5.3753 0.874146 6.99976 0.874146C8.62421 0.874146 10.1821 1.51946 11.3308 2.66812C12.4794 3.81678 13.1248 5.37469 13.1248 6.99915C13.1248 8.6236 12.4794 10.1815 11.3308 11.3302C10.1821 12.4788 8.62421 13.1241 6.99976 13.1241ZM6.99976 13.9991C8.85627 13.9991 10.6367 13.2616 11.9495 11.9489C13.2623 10.6361 13.9998 8.85566 13.9998 6.99915C13.9998 5.14263 13.2623 3.36215 11.9495 2.0494C10.6367 0.736643 8.85627 -0.000854492 6.99976 -0.000854492C5.14324 -0.000854492 3.36276 0.736643 2.05001 2.0494C0.737254 3.36215 -0.000244141 5.14263 -0.000244141 6.99915C-0.000244141 8.85566 0.737254 10.6361 2.05001 11.9489C3.36276 13.2616 5.14324 13.9991 6.99976 13.9991Z" fill="#6C757D"/>
<path d="M7.81351 5.76365L5.80976 6.01477L5.73801 6.34727L6.13176 6.4199C6.38901 6.48115 6.43976 6.5739 6.38376 6.83027L5.73801 9.86477C5.56826 10.6496 5.82988 11.0189 6.44501 11.0189C6.92188 11.0189 7.47576 10.7984 7.72688 10.4956L7.80388 10.1316C7.62888 10.2856 7.37338 10.3469 7.20363 10.3469C6.96301 10.3469 6.87551 10.178 6.93763 9.88052L7.81351 5.76365ZM7.87476 3.93665C7.87476 4.16871 7.78257 4.39127 7.61847 4.55536C7.45438 4.71946 7.23182 4.81165 6.99976 4.81165C6.76769 4.81165 6.54513 4.71946 6.38104 4.55536C6.21694 4.39127 6.12476 4.16871 6.12476 3.93665C6.12476 3.70458 6.21694 3.48202 6.38104 3.31793C6.54513 3.15383 6.76769 3.06165 6.99976 3.06165C7.23182 3.06165 7.45438 3.15383 7.61847 3.31793C7.78257 3.48202 7.87476 3.70458 7.87476 3.93665Z" fill="#6C757D"/>
</g>
<defs>
<clipPath id="clip0_6464_87272">
<rect width="14" height="14" fill="white"/>
</clipPath>
</defs>
</svg>
