<svg width="48" height="48" viewBox="0 0 48 48" fill="none" xmlns="http://www.w3.org/2000/svg">
<path d="M14.9396 11.9992C14.7148 11.9995 14.4929 12.0503 14.2904 12.148C14.0879 12.2456 13.9099 12.3875 13.7696 12.5632L4.61959 23.9992H17.9996C18.3974 23.9992 18.7789 24.1572 19.0603 24.4385C19.3416 24.7198 19.4996 25.1014 19.4996 25.4992C19.4996 26.6927 19.9737 27.8372 20.8176 28.6812C21.6615 29.5251 22.8061 29.9992 23.9996 29.9992C25.1931 29.9992 26.3377 29.5251 27.1816 28.6812C28.0255 27.8372 28.4996 26.6927 28.4996 25.4992C28.4996 25.1014 28.6576 24.7198 28.9389 24.4385C29.2202 24.1572 29.6018 23.9992 29.9996 23.9992H43.3796L34.2296 12.5632C34.0893 12.3875 33.9113 12.2456 33.7088 12.148C33.5063 12.0503 33.2844 11.9995 33.0596 11.9992H14.9396ZM44.8016 26.9992H31.3496C31.0053 28.6946 30.0855 30.2189 28.746 31.3137C27.4065 32.4086 25.7296 33.0067 23.9996 33.0067C22.2696 33.0067 20.5927 32.4086 19.2532 31.3137C17.9137 30.2189 16.9939 28.6946 16.6496 26.9992H3.19759L4.15759 34.6852C4.20298 35.0484 4.37963 35.3825 4.65426 35.6245C4.92888 35.8666 5.28253 35.9998 5.64859 35.9992H42.3506C42.7161 35.9991 43.0691 35.8655 43.3431 35.6235C43.617 35.3816 43.7933 35.0479 43.8386 34.6852L44.7986 26.9992H44.8016ZM11.4266 10.6882C11.8484 10.1609 12.3834 9.7353 12.9921 9.44292C13.6007 9.15054 14.2674 8.99888 14.9426 8.99918H33.0566C33.7318 8.99888 34.3985 9.15054 35.0071 9.44292C35.6158 9.7353 36.1508 10.1609 36.5726 10.6882L47.6726 24.5632C47.7973 24.7197 47.8894 24.8996 47.9435 25.0923C47.9976 25.285 48.0126 25.4866 47.9876 25.6852L46.8176 35.0572C46.6815 36.1458 46.1525 37.1473 45.3298 37.8732C44.5072 38.5992 43.4477 38.9996 42.3506 38.9992H5.64859C4.55146 38.9996 3.49196 38.5992 2.66934 37.8732C1.84671 37.1473 1.31763 36.1458 1.18159 35.0572L0.0115904 25.6852C-0.0129984 25.4864 0.00247168 25.2847 0.0570879 25.092C0.111704 24.8993 0.20436 24.7195 0.32959 24.5632L11.4296 10.6882H11.4266Z" fill="#0D6EFD"/>
</svg>
