<svg width="16" height="19" viewBox="0 0 16 19" fill="none" xmlns="http://www.w3.org/2000/svg">
<g clip-path="url(#clip0_6447_246218)">
<g clip-path="url(#clip1_6447_246218)" filter="url(#filter0_d_6447_246218)">
<path fill-rule="evenodd" clip-rule="evenodd" d="M5.99998 14.8438C5.99998 15.0012 6.05266 15.1522 6.14642 15.2636C6.24019 15.3749 6.36737 15.4375 6.49998 15.4375H14.5C14.6326 15.4375 14.7598 15.3749 14.8535 15.2636C14.9473 15.1522 15 15.0012 15 14.8438V4.15625C15 3.99878 14.9473 3.84776 14.8535 3.73641C14.7598 3.62506 14.6326 3.5625 14.5 3.5625H6.49998C6.36737 3.5625 6.24019 3.62506 6.14642 3.73641C6.05266 3.84776 5.99998 3.99878 5.99998 4.15625V6.53125C5.99998 6.68872 5.9473 6.83975 5.85353 6.95109C5.75976 7.06244 5.63259 7.125 5.49998 7.125C5.36737 7.125 5.24019 7.06244 5.14642 6.95109C5.05266 6.83975 4.99998 6.68872 4.99998 6.53125V4.15625C4.99998 3.68383 5.15801 3.23077 5.43932 2.89672C5.72062 2.56267 6.10215 2.375 6.49998 2.375H14.5C14.8978 2.375 15.2793 2.56267 15.5606 2.89672C15.8419 3.23077 16 3.68383 16 4.15625V14.8438C16 15.3162 15.8419 15.7692 15.5606 16.1033C15.2793 16.4373 14.8978 16.625 14.5 16.625H6.49998C6.10215 16.625 5.72062 16.4373 5.43932 16.1033C5.15801 15.7692 4.99998 15.3162 4.99998 14.8438V12.4688C4.99998 12.3113 5.05266 12.1603 5.14642 12.0489C5.24019 11.9376 5.36737 11.875 5.49998 11.875C5.63259 11.875 5.75976 11.9376 5.85353 12.0489C5.9473 12.1603 5.99998 12.3113 5.99998 12.4688V14.8438Z" fill="#9FA2B4"/>
<path fill-rule="evenodd" clip-rule="evenodd" d="M0.145978 9.92037C0.099415 9.86522 0.0624722 9.7997 0.0372657 9.72756C0.0120593 9.65543 -0.000915527 9.5781 -0.000915527 9.5C-0.000915527 9.4219 0.0120593 9.34457 0.0372657 9.27244C0.0624722 9.2003 0.099415 9.13478 0.145978 9.07963L3.14598 5.51712C3.19247 5.46192 3.24766 5.41813 3.30839 5.38825C3.36913 5.35838 3.43423 5.343 3.49998 5.343C3.56572 5.343 3.63082 5.35838 3.69156 5.38825C3.7523 5.41813 3.80749 5.46192 3.85398 5.51712C3.90047 5.57233 3.93734 5.63787 3.9625 5.70999C3.98766 5.78212 4.00061 5.85943 4.00061 5.9375C4.00061 6.01557 3.98766 6.09288 3.9625 6.16501C3.93734 6.23713 3.90047 6.30267 3.85398 6.35788L1.70698 8.90625H10.5C10.6326 8.90625 10.7598 8.96881 10.8535 9.08016C10.9473 9.1915 11 9.34253 11 9.5C11 9.65747 10.9473 9.8085 10.8535 9.91985C10.7598 10.0312 10.6326 10.0938 10.5 10.0938H1.70698L3.85398 12.6421C3.90047 12.6973 3.93734 12.7629 3.9625 12.835C3.98766 12.9071 4.00061 12.9844 4.00061 13.0625C4.00061 13.1406 3.98766 13.2179 3.9625 13.29C3.93734 13.3621 3.90047 13.4277 3.85398 13.4829C3.80749 13.5381 3.7523 13.5819 3.69156 13.6117C3.63082 13.6416 3.56572 13.657 3.49998 13.657C3.43423 13.657 3.36913 13.6416 3.30839 13.6117C3.24766 13.5819 3.19247 13.5381 3.14598 13.4829L0.145978 9.92037Z" fill="#9FA2B4"/>
</g>
</g>
<defs>
<filter id="filter0_d_6447_246218" x="-4" y="0" width="24" height="27" filterUnits="userSpaceOnUse" color-interpolation-filters="sRGB">
<feFlood flood-opacity="0" result="BackgroundImageFix"/>
<feColorMatrix in="SourceAlpha" type="matrix" values="0 0 0 0 0 0 0 0 0 0 0 0 0 0 0 0 0 0 127 0" result="hardAlpha"/>
<feOffset dy="4"/>
<feGaussianBlur stdDeviation="2"/>
<feComposite in2="hardAlpha" operator="out"/>
<feColorMatrix type="matrix" values="0 0 0 0 0 0 0 0 0 0 0 0 0 0 0 0 0 0 0.25 0"/>
<feBlend mode="normal" in2="BackgroundImageFix" result="effect1_dropShadow_6447_246218"/>
<feBlend mode="normal" in="SourceGraphic" in2="effect1_dropShadow_6447_246218" result="shape"/>
</filter>
<clipPath id="clip0_6447_246218">
<rect width="16" height="19" fill="white"/>
</clipPath>
<clipPath id="clip1_6447_246218">
<rect width="16" height="19" fill="white"/>
</clipPath>
</defs>
</svg>
