<svg width="24" height="20" viewBox="0 0 24 20" fill="none" xmlns="http://www.w3.org/2000/svg">
<g filter="url(#filter0_d_6464_6046)">
<path fill-rule="evenodd" clip-rule="evenodd" d="M19.854 3.146C19.9006 3.19245 19.9375 3.24762 19.9627 3.30837C19.9879 3.36911 20.0009 3.43423 20.0009 3.5C20.0009 3.56577 19.9879 3.63089 19.9627 3.69163C19.9375 3.75238 19.9006 3.80755 19.854 3.854L16.854 6.854C16.8076 6.90056 16.7524 6.93751 16.6916 6.96271C16.6309 6.98792 16.5658 7.00089 16.5 7.00089C16.4342 7.00089 16.3691 6.98792 16.3084 6.96271C16.2476 6.93751 16.1924 6.90056 16.146 6.854L14.646 5.354C14.5521 5.26011 14.4994 5.13278 14.4994 5C14.4994 4.86722 14.5521 4.73989 14.646 4.646C14.7399 4.55211 14.8672 4.49937 15 4.49937C15.1328 4.49937 15.2601 4.55211 15.354 4.646L16.5 5.793L19.146 3.146C19.1924 3.09944 19.2476 3.06249 19.3084 3.03729C19.3691 3.01208 19.4342 2.99911 19.5 2.99911C19.5658 2.99911 19.6309 3.01208 19.6916 3.03729C19.7524 3.06249 19.8076 3.09944 19.854 3.146Z" fill="#DDE2FF"/>
<path d="M5 12C5 12 4 12 4 11C4 10 5 7 10 7C15 7 16 10 16 11C16 12 15 12 15 12H5ZM10 6C10.7956 6 11.5587 5.68393 12.1213 5.12132C12.6839 4.55871 13 3.79565 13 3C13 2.20435 12.6839 1.44129 12.1213 0.87868C11.5587 0.316071 10.7956 0 10 0C9.20435 0 8.44129 0.316071 7.87868 0.87868C7.31607 1.44129 7 2.20435 7 3C7 3.79565 7.31607 4.55871 7.87868 5.12132C8.44129 5.68393 9.20435 6 10 6Z" fill="#DDE2FF"/>
<path d="M19.5 3.49911L19.5009 3.5L19.5004 3.50045L16.5004 6.50045L16.5 6.50089L16.4996 6.50045L14.9996 5.00045L14.9994 5L14.9996 4.99955L15 4.99937L15.0004 4.99955L16.1463 6.1464L16.4999 6.50033L16.8536 6.14649L19.4996 3.49949L19.5 3.49911ZM5.00451 11.5C5.00252 11.4999 4.99848 11.4997 4.99265 11.4993C4.9786 11.4983 4.95527 11.4961 4.92595 11.4912C4.86495 11.481 4.79125 11.4616 4.72361 11.4278C4.65792 11.3949 4.60745 11.3535 4.57228 11.3008C4.53919 11.2511 4.5 11.1625 4.5 11C4.5 10.6284 4.70027 9.75683 5.47855 8.97855C6.24218 8.21492 7.60545 7.5 10 7.5C12.3946 7.5 13.7578 8.21492 14.5214 8.97855C15.2997 9.75683 15.5 10.6284 15.5 11C15.5 11.1625 15.4608 11.2511 15.4277 11.3008C15.3926 11.3535 15.3421 11.3949 15.2764 11.4278C15.2088 11.4616 15.1351 11.481 15.0741 11.4912C15.0447 11.4961 15.0214 11.4983 15.0073 11.4993C15.0015 11.4997 14.9975 11.4999 14.9955 11.5H5.00451ZM11.7678 4.76777C11.2989 5.23661 10.663 5.5 10 5.5C9.33696 5.5 8.70107 5.23661 8.23223 4.76777C7.76339 4.29893 7.5 3.66304 7.5 3C7.5 2.33696 7.76339 1.70107 8.23223 1.23223C8.70107 0.763392 9.33696 0.5 10 0.5C10.663 0.5 11.2989 0.763392 11.7678 1.23223C12.2366 1.70107 12.5 2.33696 12.5 3C12.5 3.66304 12.2366 4.29893 11.7678 4.76777Z" stroke="black"/>
</g>
<defs>
<filter id="filter0_d_6464_6046" x="0" y="0" width="24.001" height="20" filterUnits="userSpaceOnUse" color-interpolation-filters="sRGB">
<feFlood flood-opacity="0" result="BackgroundImageFix"/>
<feColorMatrix in="SourceAlpha" type="matrix" values="0 0 0 0 0 0 0 0 0 0 0 0 0 0 0 0 0 0 127 0" result="hardAlpha"/>
<feOffset dy="4"/>
<feGaussianBlur stdDeviation="2"/>
<feComposite in2="hardAlpha" operator="out"/>
<feColorMatrix type="matrix" values="0 0 0 0 0 0 0 0 0 0 0 0 0 0 0 0 0 0 0.25 0"/>
<feBlend mode="normal" in2="BackgroundImageFix" result="effect1_dropShadow_6464_6046"/>
<feBlend mode="normal" in="SourceGraphic" in2="effect1_dropShadow_6464_6046" result="shape"/>
</filter>
</defs>
</svg>
