<svg width="16" height="16" viewBox="0 0 16 16" fill="none" xmlns="http://www.w3.org/2000/svg">
<path fill-rule="evenodd" clip-rule="evenodd" d="M3.99902 8.00014C3.99902 7.86754 4.0517 7.74036 4.14547 7.64659C4.23924 7.55282 4.36642 7.50014 4.49902 7.50014H10.292L8.14502 5.35414C8.05114 5.26026 7.99839 5.13292 7.99839 5.00014C7.99839 4.86737 8.05114 4.74003 8.14502 4.64614C8.23891 4.55226 8.36625 4.49951 8.49902 4.49951C8.6318 4.49951 8.75914 4.55226 8.85302 4.64614L11.853 7.64614C11.8996 7.69259 11.9365 7.74776 11.9617 7.80851C11.9869 7.86926 11.9999 7.93438 11.9999 8.00014C11.9999 8.06591 11.9869 8.13103 11.9617 8.19178C11.9365 8.25252 11.8996 8.3077 11.853 8.35414L8.85302 11.3541C8.75914 11.448 8.6318 11.5008 8.49902 11.5008C8.36625 11.5008 8.23891 11.448 8.14502 11.3541C8.05114 11.2603 7.99839 11.1329 7.99839 11.0001C7.99839 10.8674 8.05114 10.74 8.14502 10.6461L10.292 8.50014H4.49902C4.36642 8.50014 4.23924 8.44747 4.14547 8.3537C4.0517 8.25993 3.99902 8.13275 3.99902 8.00014Z" fill="#CED4DA"/>
</svg>
