<svg width="16" height="16" viewBox="0 0 16 16" fill="none" xmlns="http://www.w3.org/2000/svg">
<path fill-rule="evenodd" clip-rule="evenodd" d="M3.99902 8.00002C3.99902 7.86741 4.0517 7.74024 4.14547 7.64647C4.23924 7.5527 4.36642 7.50002 4.49902 7.50002H10.292L8.14502 5.35402C8.05114 5.26013 7.99839 5.1328 7.99839 5.00002C7.99839 4.86725 8.05114 4.73991 8.14502 4.64602C8.23891 4.55213 8.36625 4.49939 8.49902 4.49939C8.6318 4.49939 8.75914 4.55213 8.85302 4.64602L11.853 7.64602C11.8996 7.69247 11.9365 7.74764 11.9617 7.80839C11.9869 7.86913 11.9999 7.93425 11.9999 8.00002C11.9999 8.06579 11.9869 8.13091 11.9617 8.19165C11.9365 8.2524 11.8996 8.30758 11.853 8.35402L8.85302 11.354C8.75914 11.4479 8.6318 11.5007 8.49902 11.5007C8.36625 11.5007 8.23891 11.4479 8.14502 11.354C8.05114 11.2601 7.99839 11.1328 7.99839 11C7.99839 10.8672 8.05114 10.7399 8.14502 10.646L10.292 8.50002H4.49902C4.36642 8.50002 4.23924 8.44734 4.14547 8.35358C4.0517 8.25981 3.99902 8.13263 3.99902 8.00002Z" fill="#CED4DA"/>
</svg>
