<svg width="32" height="32" viewBox="0 0 32 32" fill="none" xmlns="http://www.w3.org/2000/svg">
<path d="M25.472 7.94011C25.6085 7.80084 25.7714 7.69021 25.9511 7.61468C26.1309 7.53915 26.324 7.50024 26.519 7.50024C26.714 7.50024 26.907 7.53915 27.0868 7.61468C27.2666 7.69021 27.4295 7.80084 27.566 7.94011C28.138 8.51811 28.146 9.45211 27.586 10.0401L15.76 24.0201C15.6257 24.1676 15.4628 24.2861 15.2811 24.3684C15.0995 24.4507 14.903 24.495 14.7036 24.4988C14.5042 24.5025 14.3061 24.4656 14.1215 24.3901C13.9369 24.3147 13.7697 24.2024 13.63 24.0601L6.43396 16.7681C6.15643 16.4851 6.00098 16.1045 6.00098 15.7081C6.00098 15.3117 6.15643 14.9311 6.43396 14.6481C6.57045 14.5088 6.73336 14.3982 6.91314 14.3227C7.09292 14.2471 7.28596 14.2082 7.48096 14.2082C7.67596 14.2082 7.869 14.2471 8.04878 14.3227C8.22856 14.3982 8.39147 14.5088 8.52796 14.6481L14.632 20.8341L25.432 7.98411C25.4444 7.96866 25.4578 7.95396 25.472 7.94011Z" fill="#219653"/>
</svg>
