<svg width="22" height="41" viewBox="0 0 22 41" fill="none" xmlns="http://www.w3.org/2000/svg">
<mask id="path-1-inside-1_6464_472506" fill="white">
<path d="M11.0001 15.0723L16.0001 20.0723L11.0001 25.0723L9.93945 24.0116L13.8788 20.0723L9.93945 16.1329L11.0001 15.0723Z"/>
</mask>
<path d="M11.0001 15.0723L16.0001 20.0723L11.0001 25.0723L9.93945 24.0116L13.8788 20.0723L9.93945 16.1329L11.0001 15.0723Z" fill="white"/>
<path d="M16.0001 20.0723L17.0608 21.1329L18.1214 20.0723L17.0608 19.0116L16.0001 20.0723ZM11.0001 15.0723L12.0608 14.0116L11.0001 12.9509L9.93945 14.0116L11.0001 15.0723ZM11.0001 25.0723L9.93945 26.1329L11.0001 27.1936L12.0608 26.1329L11.0001 25.0723ZM9.93945 16.1329L8.87879 15.0723L7.81813 16.1329L8.87879 17.1936L9.93945 16.1329ZM9.93945 24.0116L8.87879 22.9509L7.81813 24.0116L8.87879 25.0723L9.93945 24.0116ZM13.8788 20.0723L14.9395 21.1329L16.0001 20.0723L14.9395 19.0116L13.8788 20.0723ZM17.0608 19.0116L12.0608 14.0116L9.93945 16.1329L14.9395 21.1329L17.0608 19.0116ZM12.0608 26.1329L17.0608 21.1329L14.9395 19.0116L9.93945 24.0116L12.0608 26.1329ZM9.93945 14.0116L8.87879 15.0723L11.0001 17.1936L12.0608 16.1329L9.93945 14.0116ZM8.87879 25.0723L9.93945 26.1329L12.0608 24.0116L11.0001 22.9509L8.87879 25.0723ZM12.8181 19.0116L8.87879 22.9509L11.0001 25.0723L14.9395 21.1329L12.8181 19.0116ZM8.87879 17.1936L12.8181 21.1329L14.9395 19.0116L11.0001 15.0723L8.87879 17.1936Z" fill="#CED4DA" mask="url(#path-1-inside-1_6464_472506)"/>
<mask id="path-3-inside-2_6464_472506" fill="white">
<path d="M4.93932 15.0723L9.93932 20.0723L4.93932 25.0723L3.87866 24.0116L7.818 20.0723L3.87866 16.1329L4.93932 15.0723Z"/>
</mask>
<path d="M4.93932 15.0723L9.93932 20.0723L4.93932 25.0723L3.87866 24.0116L7.818 20.0723L3.87866 16.1329L4.93932 15.0723Z" fill="white"/>
<path d="M9.93932 20.0723L11 21.1329L12.0606 20.0723L11 19.0116L9.93932 20.0723ZM4.93932 15.0723L5.99998 14.0116L4.93932 12.9509L3.87866 14.0116L4.93932 15.0723ZM4.93932 25.0723L3.87866 26.1329L4.93932 27.1936L5.99998 26.1329L4.93932 25.0723ZM3.87866 16.1329L2.818 15.0723L1.75734 16.1329L2.818 17.1936L3.87866 16.1329ZM3.87866 24.0116L2.818 22.9509L1.75734 24.0116L2.818 25.0723L3.87866 24.0116ZM7.818 20.0723L8.87866 21.1329L9.93932 20.0723L8.87866 19.0116L7.818 20.0723ZM11 19.0116L5.99998 14.0116L3.87866 16.1329L8.87866 21.1329L11 19.0116ZM5.99998 26.1329L11 21.1329L8.87866 19.0116L3.87866 24.0116L5.99998 26.1329ZM3.87866 14.0116L2.818 15.0723L4.93932 17.1936L5.99998 16.1329L3.87866 14.0116ZM2.818 25.0723L3.87866 26.1329L5.99998 24.0116L4.93932 22.9509L2.818 25.0723ZM6.75734 19.0116L2.818 22.9509L4.93932 25.0723L8.87866 21.1329L6.75734 19.0116ZM2.818 17.1936L6.75734 21.1329L8.87866 19.0116L4.93932 15.0723L2.818 17.1936Z" fill="#CED4DA" mask="url(#path-3-inside-2_6464_472506)"/>
</svg>
