<svg width="22" height="41" viewBox="0 0 22 41" fill="none" xmlns="http://www.w3.org/2000/svg">
<mask id="path-1-inside-1_6464_479006" fill="white">
<path d="M11.0001 15.072L16.0001 20.072L11.0001 25.072L9.93945 24.0114L13.8788 20.072L9.93945 16.1327L11.0001 15.072Z"/>
</mask>
<path d="M11.0001 15.072L16.0001 20.072L11.0001 25.072L9.93945 24.0114L13.8788 20.072L9.93945 16.1327L11.0001 15.072Z" fill="white"/>
<path d="M16.0001 20.072L17.0608 21.1327L18.1214 20.072L17.0608 19.0114L16.0001 20.072ZM11.0001 15.072L12.0608 14.0114L11.0001 12.9507L9.93945 14.0114L11.0001 15.072ZM11.0001 25.072L9.93945 26.1327L11.0001 27.1933L12.0608 26.1327L11.0001 25.072ZM9.93945 16.1327L8.87879 15.072L7.81813 16.1327L8.87879 17.1933L9.93945 16.1327ZM9.93945 24.0114L8.87879 22.9507L7.81813 24.0114L8.87879 25.072L9.93945 24.0114ZM13.8788 20.072L14.9395 21.1327L16.0001 20.072L14.9395 19.0114L13.8788 20.072ZM17.0608 19.0114L12.0608 14.0114L9.93945 16.1327L14.9395 21.1327L17.0608 19.0114ZM12.0608 26.1327L17.0608 21.1327L14.9395 19.0114L9.93945 24.0114L12.0608 26.1327ZM9.93945 14.0114L8.87879 15.072L11.0001 17.1933L12.0608 16.1327L9.93945 14.0114ZM8.87879 25.072L9.93945 26.1327L12.0608 24.0114L11.0001 22.9507L8.87879 25.072ZM12.8181 19.0114L8.87879 22.9507L11.0001 25.072L14.9395 21.1327L12.8181 19.0114ZM8.87879 17.1933L12.8181 21.1327L14.9395 19.0114L11.0001 15.072L8.87879 17.1933Z" fill="#CED4DA" mask="url(#path-1-inside-1_6464_479006)"/>
<mask id="path-3-inside-2_6464_479006" fill="white">
<path d="M4.93908 15.072L9.93908 20.072L4.93908 25.072L3.87842 24.0114L7.81776 20.072L3.87842 16.1327L4.93908 15.072Z"/>
</mask>
<path d="M4.93908 15.072L9.93908 20.072L4.93908 25.072L3.87842 24.0114L7.81776 20.072L3.87842 16.1327L4.93908 15.072Z" fill="white"/>
<path d="M9.93908 20.072L10.9997 21.1327L12.0604 20.072L10.9997 19.0114L9.93908 20.072ZM4.93908 15.072L5.99974 14.0114L4.93908 12.9507L3.87842 14.0114L4.93908 15.072ZM4.93908 25.072L3.87842 26.1327L4.93908 27.1933L5.99974 26.1327L4.93908 25.072ZM3.87842 16.1327L2.81776 15.072L1.7571 16.1327L2.81776 17.1933L3.87842 16.1327ZM3.87842 24.0114L2.81776 22.9507L1.7571 24.0114L2.81776 25.072L3.87842 24.0114ZM7.81776 20.072L8.87842 21.1327L9.93908 20.072L8.87842 19.0114L7.81776 20.072ZM10.9997 19.0114L5.99974 14.0114L3.87842 16.1327L8.87842 21.1327L10.9997 19.0114ZM5.99974 26.1327L10.9997 21.1327L8.87842 19.0114L3.87842 24.0114L5.99974 26.1327ZM3.87842 14.0114L2.81776 15.072L4.93908 17.1933L5.99974 16.1327L3.87842 14.0114ZM2.81776 25.072L3.87842 26.1327L5.99974 24.0114L4.93908 22.9507L2.81776 25.072ZM6.7571 19.0114L2.81776 22.9507L4.93908 25.072L8.87842 21.1327L6.7571 19.0114ZM2.81776 17.1933L6.7571 21.1327L8.87842 19.0114L4.93908 15.072L2.81776 17.1933Z" fill="#CED4DA" mask="url(#path-3-inside-2_6464_479006)"/>
</svg>
