<svg width="14" height="14" viewBox="0 0 14 14" fill="none" xmlns="http://www.w3.org/2000/svg">
<path d="M6.99951 6.99902C7.69571 6.99902 8.36338 6.72246 8.85567 6.23018C9.34795 5.7379 9.62451 5.07022 9.62451 4.37402C9.62451 3.67783 9.34795 3.01015 8.85567 2.51787C8.36338 2.02559 7.69571 1.74902 6.99951 1.74902C6.30332 1.74902 5.63564 2.02559 5.14336 2.51787C4.65107 3.01015 4.37451 3.67783 4.37451 4.37402C4.37451 5.07022 4.65107 5.7379 5.14336 6.23018C5.63564 6.72246 6.30332 6.99902 6.99951 6.99902V6.99902ZM8.74951 4.37402C8.74951 4.83815 8.56514 5.28327 8.23695 5.61146C7.90876 5.93965 7.46364 6.12402 6.99951 6.12402C6.53538 6.12402 6.09026 5.93965 5.76207 5.61146C5.43389 5.28327 5.24951 4.83815 5.24951 4.37402C5.24951 3.90989 5.43389 3.46478 5.76207 3.13659C6.09026 2.8084 6.53538 2.62402 6.99951 2.62402C7.46364 2.62402 7.90876 2.8084 8.23695 3.13659C8.56514 3.46478 8.74951 3.90989 8.74951 4.37402V4.37402ZM12.2495 11.374C12.2495 12.249 11.3745 12.249 11.3745 12.249H2.62451C2.62451 12.249 1.74951 12.249 1.74951 11.374C1.74951 10.499 2.62451 7.87402 6.99951 7.87402C11.3745 7.87402 12.2495 10.499 12.2495 11.374ZM11.3745 11.3705C11.3736 11.1553 11.2398 10.5078 10.6465 9.91452C10.076 9.34402 9.00239 8.74902 6.99951 8.74902C4.99576 8.74902 3.92301 9.34402 3.35251 9.91452C2.75926 10.5078 2.62626 11.1553 2.62451 11.3705H11.3745Z" fill="#6C757D"/>
</svg>
