<svg width="59" height="33" viewBox="0 0 59 33" fill="none" xmlns="http://www.w3.org/2000/svg">
<g clip-path="url(#clip0_6416_417534)">
<path d="M44.5 33C45.4614 33 46.3834 32.6181 47.0633 31.9383C47.7431 31.2584 48.125 30.3364 48.125 29.375H40.875C40.875 30.3364 41.2569 31.2584 41.9367 31.9383C42.6166 32.6181 43.5386 33 44.5 33ZM46.3034 5.99194C46.3287 5.73992 46.3009 5.48539 46.2218 5.24478C46.1427 5.00416 46.014 4.7828 45.8441 4.59497C45.6742 4.40713 45.4668 4.257 45.2353 4.15425C45.0038 4.0515 44.7533 3.99841 44.5 3.99841C44.2467 3.99841 43.9962 4.0515 43.7647 4.15425C43.5332 4.257 43.3258 4.40713 43.1559 4.59497C42.986 4.7828 42.8573 5.00416 42.7782 5.24478C42.6991 5.48539 42.6713 5.73992 42.6966 5.99194C40.6479 6.40863 38.8063 7.52053 37.4834 9.13935C36.1605 10.7582 35.4378 12.7844 35.4375 14.875C35.4375 16.8651 34.5312 25.75 31.8125 27.5625H57.1875C54.4688 25.75 53.5625 16.8651 53.5625 14.875C53.5625 10.4887 50.445 6.8275 46.3034 5.99194Z" fill="#C5C7CD"/>
</g>
<defs>
<clipPath id="clip0_6416_417534">
<rect width="29" height="29" fill="white" transform="translate(30 4)"/>
</clipPath>
</defs>
</svg>
