<svg width="14" height="14" viewBox="0 0 14 14" fill="none" xmlns="http://www.w3.org/2000/svg">
<path d="M3.49951 9.43258C3.62901 10.8912 4.82339 11.9263 6.64164 12.0602V13.1242H7.55426V12.0602C9.54051 11.9036 10.7725 10.802 10.7725 9.17271C10.7725 7.78146 9.94389 6.97646 8.18601 6.52321L7.55426 6.35958V3.03283C8.53601 3.12908 9.19839 3.65758 9.36551 4.44683H10.6518C10.5065 3.04683 9.30426 2.04233 7.55426 1.93121V0.874207H6.64164V1.95308C4.94501 2.15433 3.78039 3.24108 3.78039 4.71458C3.78039 5.98683 4.62564 6.88721 6.10876 7.26696L6.64251 7.40871V10.9358C5.63714 10.7871 4.94501 10.2358 4.77789 9.43258H3.49951V9.43258ZM6.46664 6.07608C5.55401 5.84596 5.06664 5.35421 5.06664 4.66208C5.06664 3.83608 5.68264 3.22621 6.64164 3.06258V6.12071L6.46664 6.07696V6.07608ZM7.85876 7.71408C8.98489 7.99671 9.47926 8.46571 9.47926 9.26196C9.47926 10.2218 8.75651 10.8615 7.55426 10.9586V7.63796L7.85876 7.71321V7.71408Z" fill="#6C757D"/>
</svg>
