<svg width="14" height="15" viewBox="0 0 14 15" fill="none" xmlns="http://www.w3.org/2000/svg">
<g clip-path="url(#clip0_6464_478941)">
<path d="M13.9995 7.49915C13.9995 9.35566 13.262 11.1361 11.9493 12.4489C10.6365 13.7616 8.85603 14.4991 6.99951 14.4991C5.143 14.4991 3.36252 13.7616 2.04976 12.4489C0.73701 11.1361 -0.000488281 9.35566 -0.000488281 7.49915C-0.000488281 5.64263 0.73701 3.86215 2.04976 2.5494C3.36252 1.23664 5.143 0.499146 6.99951 0.499146C8.85603 0.499146 10.6365 1.23664 11.9493 2.5494C13.262 3.86215 13.9995 5.64263 13.9995 7.49915V7.49915ZM4.68426 4.5644C4.60211 4.48224 4.49069 4.43609 4.37451 4.43609C4.25833 4.43609 4.14691 4.48224 4.06476 4.5644C3.98261 4.64655 3.93646 4.75797 3.93646 4.87415C3.93646 4.99032 3.98261 5.10174 4.06476 5.1839L6.38089 7.49915L4.06476 9.8144C4.02408 9.85507 3.99182 9.90336 3.9698 9.95651C3.94779 10.0097 3.93646 10.0666 3.93646 10.1241C3.93646 10.1817 3.94779 10.2386 3.9698 10.2918C3.99182 10.3449 4.02408 10.3932 4.06476 10.4339C4.14691 10.516 4.25833 10.5622 4.37451 10.5622C4.43204 10.5622 4.489 10.5509 4.54215 10.5289C4.59529 10.5068 4.64358 10.4746 4.68426 10.4339L6.99951 8.11777L9.31476 10.4339C9.35544 10.4746 9.40373 10.5068 9.45688 10.5289C9.51002 10.5509 9.56699 10.5622 9.62451 10.5622C9.68204 10.5622 9.739 10.5509 9.79215 10.5289C9.84529 10.5068 9.89358 10.4746 9.93426 10.4339C9.97494 10.3932 10.0072 10.3449 10.0292 10.2918C10.0512 10.2386 10.0626 10.1817 10.0626 10.1241C10.0626 10.0666 10.0512 10.0097 10.0292 9.95651C10.0072 9.90336 9.97494 9.85507 9.93426 9.8144L7.61814 7.49915L9.93426 5.1839C9.97494 5.14322 10.0072 5.09493 10.0292 5.04178C10.0512 4.98863 10.0626 4.93167 10.0626 4.87415C10.0626 4.81662 10.0512 4.75966 10.0292 4.70651C10.0072 4.65336 9.97494 4.60507 9.93426 4.5644C9.89358 4.52372 9.84529 4.49145 9.79215 4.46944C9.739 4.44742 9.68204 4.43609 9.62451 4.43609C9.56699 4.43609 9.51002 4.44742 9.45688 4.46944C9.40373 4.49145 9.35544 4.52372 9.31476 4.5644L6.99951 6.88052L4.68426 4.5644Z" fill="#6C757D"/>
</g>
<defs>
<clipPath id="clip0_6464_478941">
<rect width="14" height="14" fill="white" transform="translate(0 0.5)"/>
</clipPath>
</defs>
</svg>
