<svg width="12" height="12" viewBox="0 0 12 12" fill="none" xmlns="http://www.w3.org/2000/svg">
<g clip-path="url(#clip0_6464_476220)">
<path d="M5.99963 11.2491C4.60725 11.2491 3.27189 10.696 2.28732 9.71146C1.30276 8.72689 0.749634 7.39153 0.749634 5.99915C0.749634 4.60676 1.30276 3.2714 2.28732 2.28683C3.27189 1.30227 4.60725 0.749146 5.99963 0.749146C7.39202 0.749146 8.72738 1.30227 9.71194 2.28683C10.6965 3.2714 11.2496 4.60676 11.2496 5.99915C11.2496 7.39153 10.6965 8.72689 9.71194 9.71146C8.72738 10.696 7.39202 11.2491 5.99963 11.2491ZM5.99963 11.9991C7.59093 11.9991 9.11706 11.367 10.2423 10.2418C11.3675 9.11657 11.9996 7.59044 11.9996 5.99915C11.9996 4.40785 11.3675 2.88172 10.2423 1.7565C9.11706 0.631287 7.59093 -0.000854492 5.99963 -0.000854492C4.40833 -0.000854492 2.88221 0.631287 1.75699 1.7565C0.631775 2.88172 -0.000366211 4.40785 -0.000366211 5.99915C-0.000366211 7.59044 0.631775 9.11657 1.75699 10.2418C2.88221 11.367 4.40833 11.9991 5.99963 11.9991Z" fill="#6C757D"/>
<path d="M6.69713 4.94015L4.97963 5.1554L4.91813 5.4404L5.25563 5.50265C5.47613 5.55515 5.51963 5.63465 5.47163 5.8544L4.91813 8.4554C4.77263 9.12815 4.99688 9.44465 5.52413 9.44465C5.93288 9.44465 6.40763 9.25565 6.62288 8.99615L6.68888 8.68415C6.53888 8.81615 6.31988 8.86865 6.17438 8.86865C5.96813 8.86865 5.89313 8.7239 5.94638 8.4689L6.69713 4.94015ZM6.74963 3.37415C6.74963 3.57306 6.67062 3.76382 6.52996 3.90448C6.38931 4.04513 6.19855 4.12415 5.99963 4.12415C5.80072 4.12415 5.60996 4.04513 5.4693 3.90448C5.32865 3.76382 5.24963 3.57306 5.24963 3.37415C5.24963 3.17523 5.32865 2.98447 5.4693 2.84382C5.60996 2.70316 5.80072 2.62415 5.99963 2.62415C6.19855 2.62415 6.38931 2.70316 6.52996 2.84382C6.67062 2.98447 6.74963 3.17523 6.74963 3.37415Z" fill="#6C757D"/>
</g>
<defs>
<clipPath id="clip0_6464_476220">
<rect width="12" height="12" fill="white"/>
</clipPath>
</defs>
</svg>
