<svg width="14" height="14" viewBox="0 0 14 14" fill="none" xmlns="http://www.w3.org/2000/svg">
<g clip-path="url(#clip0_6464_87402)">
<path d="M6.99951 13.1251C5.37506 13.1251 3.81714 12.4798 2.66848 11.3312C1.51982 10.1825 0.874512 8.62457 0.874512 7.00012C0.874512 5.37567 1.51982 3.81775 2.66848 2.66909C3.81714 1.52043 5.37506 0.875122 6.99951 0.875122C8.62396 0.875122 10.1819 1.52043 11.3305 2.66909C12.4792 3.81775 13.1245 5.37567 13.1245 7.00012C13.1245 8.62457 12.4792 10.1825 11.3305 11.3312C10.1819 12.4798 8.62396 13.1251 6.99951 13.1251ZM6.99951 14.0001C8.85603 14.0001 10.6365 13.2626 11.9493 11.9499C13.262 10.6371 13.9995 8.85664 13.9995 7.00012C13.9995 5.14361 13.262 3.36313 11.9493 2.05037C10.6365 0.73762 8.85603 0.00012207 6.99951 0.00012207C5.143 0.00012207 3.36252 0.73762 2.04976 2.05037C0.73701 3.36313 -0.000488281 5.14361 -0.000488281 7.00012C-0.000488281 8.85664 0.73701 10.6371 2.04976 11.9499C3.36252 13.2626 5.143 14.0001 6.99951 14.0001Z" fill="#6C757D"/>
<path d="M7.81326 5.76462L5.80951 6.01575L5.73776 6.34825L6.13151 6.42087C6.38876 6.48212 6.43951 6.57487 6.38351 6.83125L5.73776 9.86575C5.56801 10.6506 5.82964 11.0199 6.44476 11.0199C6.92164 11.0199 7.47551 10.7994 7.72664 10.4966L7.80364 10.1326C7.62864 10.2866 7.37314 10.3479 7.20339 10.3479C6.96276 10.3479 6.87526 10.179 6.93739 9.8815L7.81326 5.76462ZM7.87451 3.93762C7.87451 4.16969 7.78232 4.39225 7.61823 4.55634C7.45414 4.72043 7.23158 4.81262 6.99951 4.81262C6.76745 4.81262 6.54489 4.72043 6.38079 4.55634C6.2167 4.39225 6.12451 4.16969 6.12451 3.93762C6.12451 3.70556 6.2167 3.483 6.38079 3.3189C6.54489 3.15481 6.76745 3.06262 6.99951 3.06262C7.23158 3.06262 7.45414 3.15481 7.61823 3.3189C7.78232 3.483 7.87451 3.70556 7.87451 3.93762Z" fill="#6C757D"/>
</g>
<defs>
<clipPath id="clip0_6464_87402">
<rect width="14" height="14" fill="white" transform="translate(0 0.000976562)"/>
</clipPath>
</defs>
</svg>
