<svg width="14" height="14" viewBox="0 0 14 14" fill="none" xmlns="http://www.w3.org/2000/svg">
<path d="M6.99963 6.99915C7.69583 6.99915 8.36351 6.72258 8.85579 6.2303C9.34807 5.73802 9.62463 5.07034 9.62463 4.37415C9.62463 3.67795 9.34807 3.01027 8.85579 2.51799C8.36351 2.02571 7.69583 1.74915 6.99963 1.74915C6.30344 1.74915 5.63576 2.02571 5.14348 2.51799C4.6512 3.01027 4.37463 3.67795 4.37463 4.37415C4.37463 5.07034 4.6512 5.73802 5.14348 6.2303C5.63576 6.72258 6.30344 6.99915 6.99963 6.99915V6.99915ZM8.74963 4.37415C8.74963 4.83827 8.56526 5.28339 8.23707 5.61158C7.90888 5.93977 7.46376 6.12415 6.99963 6.12415C6.5355 6.12415 6.09039 5.93977 5.7622 5.61158C5.43401 5.28339 5.24963 4.83827 5.24963 4.37415C5.24963 3.91002 5.43401 3.4649 5.7622 3.13671C6.09039 2.80852 6.5355 2.62415 6.99963 2.62415C7.46376 2.62415 7.90888 2.80852 8.23707 3.13671C8.56526 3.4649 8.74963 3.91002 8.74963 4.37415V4.37415ZM12.2496 11.3741C12.2496 12.2491 11.3746 12.2491 11.3746 12.2491H2.62463C2.62463 12.2491 1.74963 12.2491 1.74963 11.3741C1.74963 10.4991 2.62463 7.87415 6.99963 7.87415C11.3746 7.87415 12.2496 10.4991 12.2496 11.3741ZM11.3746 11.3706C11.3738 11.1554 11.2399 10.5079 10.6466 9.91465C10.0761 9.34415 9.00251 8.74915 6.99963 8.74915C4.99588 8.74915 3.92313 9.34415 3.35263 9.91465C2.75938 10.5079 2.62638 11.1554 2.62463 11.3706H11.3746Z" fill="#6C757D"/>
</svg>
