<svg width="16" height="17" viewBox="0 0 16 17" fill="none" xmlns="http://www.w3.org/2000/svg">
<g clip-path="url(#clip0_6464_470132)">
<path d="M13.9995 1.57126C14.2647 1.57126 14.5191 1.67662 14.7066 1.86415C14.8942 2.05169 14.9995 2.30604 14.9995 2.57126V14.5713C14.9995 14.8365 14.8942 15.0908 14.7066 15.2784C14.5191 15.4659 14.2647 15.5713 13.9995 15.5713H1.99951C1.7343 15.5713 1.47994 15.4659 1.2924 15.2784C1.10487 15.0908 0.999512 14.8365 0.999512 14.5713V2.57126C0.999512 2.30604 1.10487 2.05169 1.2924 1.86415C1.47994 1.67662 1.7343 1.57126 1.99951 1.57126H13.9995ZM1.99951 0.571259C1.46908 0.571259 0.960371 0.781972 0.585298 1.15705C0.210225 1.53212 -0.000488281 2.04083 -0.000488281 2.57126V14.5713C-0.000488281 15.1017 0.210225 15.6104 0.585298 15.9855C0.960371 16.3605 1.46908 16.5713 1.99951 16.5713H13.9995C14.5299 16.5713 15.0387 16.3605 15.4137 15.9855C15.7888 15.6104 15.9995 15.1017 15.9995 14.5713V2.57126C15.9995 2.04083 15.7888 1.53212 15.4137 1.15705C15.0387 0.781972 14.5299 0.571259 13.9995 0.571259H1.99951Z" fill="white"/>
<path d="M7.99951 4.57126C8.13212 4.57126 8.2593 4.62394 8.35307 4.71771C8.44683 4.81147 8.49951 4.93865 8.49951 5.07126V8.07126H11.4995C11.6321 8.07126 11.7593 8.12394 11.8531 8.21771C11.9468 8.31147 11.9995 8.43865 11.9995 8.57126C11.9995 8.70387 11.9468 8.83104 11.8531 8.92481C11.7593 9.01858 11.6321 9.07126 11.4995 9.07126H8.49951V12.0713C8.49951 12.2039 8.44683 12.331 8.35307 12.4248C8.2593 12.5186 8.13212 12.5713 7.99951 12.5713C7.8669 12.5713 7.73973 12.5186 7.64596 12.4248C7.55219 12.331 7.49951 12.2039 7.49951 12.0713V9.07126H4.49951C4.3669 9.07126 4.23973 9.01858 4.14596 8.92481C4.05219 8.83104 3.99951 8.70387 3.99951 8.57126C3.99951 8.43865 4.05219 8.31147 4.14596 8.21771C4.23973 8.12394 4.3669 8.07126 4.49951 8.07126H7.49951V5.07126C7.49951 4.93865 7.55219 4.81147 7.64596 4.71771C7.73973 4.62394 7.8669 4.57126 7.99951 4.57126Z" fill="white"/>
</g>
<defs>
<clipPath id="clip0_6464_470132">
<rect width="16" height="16" fill="white" transform="translate(0 0.572083)"/>
</clipPath>
</defs>
</svg>
