<svg width="9" height="9" viewBox="0 0 9 9" fill="none" xmlns="http://www.w3.org/2000/svg">
<path fill-rule="evenodd" clip-rule="evenodd" d="M4.32258 2.57198C4.34581 2.5487 4.37339 2.53023 4.40377 2.51763C4.43414 2.50502 4.4667 2.49854 4.49958 2.49854C4.53247 2.49854 4.56503 2.50502 4.5954 2.51763C4.62577 2.53023 4.65336 2.5487 4.67658 2.57198L7.67658 5.57198C7.72353 5.61893 7.7499 5.68259 7.7499 5.74898C7.7499 5.81537 7.72353 5.87904 7.67658 5.92598C7.62964 5.97293 7.56597 5.9993 7.49958 5.9993C7.4332 5.9993 7.36953 5.97293 7.32258 5.92598L4.49958 3.10248L1.67658 5.92598C1.62964 5.97293 1.56597 5.9993 1.49958 5.9993C1.4332 5.9993 1.36953 5.97293 1.32258 5.92598C1.27564 5.87904 1.24927 5.81537 1.24927 5.74898C1.24927 5.68259 1.27564 5.61893 1.32258 5.57198L4.32258 2.57198Z" fill="#6C757D"/>
</svg>
