<svg width="14" height="14" viewBox="0 0 14 14" fill="none" xmlns="http://www.w3.org/2000/svg">
<g clip-path="url(#clip0_6442_221159)">
<path d="M9.49701 6.25177C9.53775 6.29241 9.57007 6.34069 9.59213 6.39384C9.61419 6.447 9.62554 6.50398 9.62554 6.56152C9.62554 6.61907 9.61419 6.67605 9.59213 6.7292C9.57007 6.78235 9.53775 6.83063 9.49701 6.87127L6.87201 9.49627C6.83137 9.53702 6.78309 9.56934 6.72994 9.5914C6.67678 9.61345 6.6198 9.62481 6.56226 9.62481C6.50471 9.62481 6.44773 9.61345 6.39458 9.5914C6.34142 9.56934 6.29315 9.53702 6.25251 9.49627L4.94001 8.18377C4.89933 8.1431 4.86706 8.09481 4.84505 8.04166C4.82303 7.98851 4.8117 7.93155 4.8117 7.87402C4.8117 7.8165 4.82303 7.75953 4.84505 7.70639C4.86706 7.65324 4.89933 7.60495 4.94001 7.56427C5.02216 7.48212 5.13358 7.43597 5.24976 7.43597C5.30728 7.43597 5.36424 7.4473 5.41739 7.46932C5.47054 7.49133 5.51883 7.5236 5.55951 7.56427L6.56226 8.5679L8.87751 6.25177C8.91815 6.21103 8.96642 6.17871 9.01958 6.15665C9.07273 6.13459 9.12971 6.12324 9.18726 6.12324C9.2448 6.12324 9.30178 6.13459 9.35493 6.15665C9.40809 6.17871 9.45637 6.21103 9.49701 6.25177Z" fill="#6C757D"/>
<path d="M3.06226 -0.000976562C3.17829 -0.000976562 3.28957 0.0451171 3.37161 0.127164C3.45366 0.209211 3.49976 0.320491 3.49976 0.436523V0.874023H10.4998V0.436523C10.4998 0.320491 10.5458 0.209211 10.6279 0.127164C10.7099 0.0451171 10.8212 -0.000976562 10.9373 -0.000976562C11.0533 -0.000976562 11.1646 0.0451171 11.2466 0.127164C11.3287 0.209211 11.3748 0.320491 11.3748 0.436523V0.874023H12.2498C12.7139 0.874023 13.159 1.0584 13.4872 1.38659C13.8154 1.71478 13.9998 2.15989 13.9998 2.62402V12.249C13.9998 12.7132 13.8154 13.1583 13.4872 13.4865C13.159 13.8146 12.7139 13.999 12.2498 13.999H1.74976C1.28563 13.999 0.840508 13.8146 0.512319 13.4865C0.18413 13.1583 -0.000244141 12.7132 -0.000244141 12.249V2.62402C-0.000244141 2.15989 0.18413 1.71478 0.512319 1.38659C0.840508 1.0584 1.28563 0.874023 1.74976 0.874023H2.62476V0.436523C2.62476 0.320491 2.67085 0.209211 2.7529 0.127164C2.83494 0.0451171 2.94622 -0.000976562 3.06226 -0.000976562ZM0.874756 3.49902V12.249C0.874756 12.4811 0.966943 12.7036 1.13104 12.8677C1.29513 13.0318 1.51769 13.124 1.74976 13.124H12.2498C12.4818 13.124 12.7044 13.0318 12.8685 12.8677C13.0326 12.7036 13.1248 12.4811 13.1248 12.249V3.49902H0.874756Z" fill="#6C757D"/>
</g>
<defs>
<clipPath id="clip0_6442_221159">
<rect width="14" height="14" fill="white"/>
</clipPath>
</defs>
</svg>
