<svg width="14" height="14" viewBox="0 0 14 14" fill="none" xmlns="http://www.w3.org/2000/svg">
<path d="M6.99976 6.99915C7.69595 6.99915 8.36363 6.72258 8.85591 6.2303C9.34819 5.73802 9.62476 5.07034 9.62476 4.37415C9.62476 3.67795 9.34819 3.01027 8.85591 2.51799C8.36363 2.02571 7.69595 1.74915 6.99976 1.74915C6.30356 1.74915 5.63588 2.02571 5.1436 2.51799C4.65132 3.01027 4.37476 3.67795 4.37476 4.37415C4.37476 5.07034 4.65132 5.73802 5.1436 6.2303C5.63588 6.72258 6.30356 6.99915 6.99976 6.99915V6.99915ZM8.74976 4.37415C8.74976 4.83827 8.56538 5.28339 8.23719 5.61158C7.909 5.93977 7.46388 6.12415 6.99976 6.12415C6.53563 6.12415 6.09051 5.93977 5.76232 5.61158C5.43413 5.28339 5.24976 4.83827 5.24976 4.37415C5.24976 3.91002 5.43413 3.4649 5.76232 3.13671C6.09051 2.80852 6.53563 2.62415 6.99976 2.62415C7.46388 2.62415 7.909 2.80852 8.23719 3.13671C8.56538 3.4649 8.74976 3.91002 8.74976 4.37415V4.37415ZM12.2498 11.3741C12.2498 12.2491 11.3748 12.2491 11.3748 12.2491H2.62476C2.62476 12.2491 1.74976 12.2491 1.74976 11.3741C1.74976 10.4991 2.62476 7.87415 6.99976 7.87415C11.3748 7.87415 12.2498 10.4991 12.2498 11.3741ZM11.3748 11.3706C11.3739 11.1554 11.24 10.5079 10.6468 9.91465C10.0763 9.34415 9.00263 8.74915 6.99976 8.74915C4.99601 8.74915 3.92326 9.34415 3.35276 9.91465C2.75951 10.5079 2.62651 11.1554 2.62476 11.3706H11.3748Z" fill="#6C757D"/>
</svg>
