<svg width="14" height="14" viewBox="0 0 14 14" fill="none" xmlns="http://www.w3.org/2000/svg">
<path d="M3.49963 9.43252C3.62913 10.8911 4.82351 11.9263 6.64176 12.0601V13.1241H7.55438V12.0601C9.54063 11.9035 10.7726 10.8019 10.7726 9.17265C10.7726 7.7814 9.94401 6.9764 8.18613 6.52315L7.55438 6.35952V3.03277C8.53613 3.12902 9.19851 3.65752 9.36563 4.44677H10.6519C10.5066 3.04677 9.30438 2.04227 7.55438 1.93115V0.874146H6.64176V1.95302C4.94513 2.15427 3.78051 3.24102 3.78051 4.71452C3.78051 5.98677 4.62576 6.88715 6.10888 7.2669L6.64263 7.40865V10.9358C5.63726 10.787 4.94513 10.2358 4.77801 9.43252H3.49963V9.43252ZM6.46676 6.07602C5.55413 5.8459 5.06676 5.35415 5.06676 4.66202C5.06676 3.83602 5.68276 3.22615 6.64176 3.06252V6.12065L6.46676 6.0769V6.07602ZM7.85888 7.71402C8.98501 7.99665 9.47938 8.46565 9.47938 9.2619C9.47938 10.2218 8.75663 10.8614 7.55438 10.9585V7.6379L7.85888 7.71315V7.71402Z" fill="#6C757D"/>
</svg>
