<svg width="15" height="14" viewBox="0 0 15 14" fill="none" xmlns="http://www.w3.org/2000/svg">
<g clip-path="url(#clip0_6464_477418)">
<path d="M7.9978 13.1251C6.37335 13.1251 4.81543 12.4798 3.66677 11.3312C2.51811 10.1825 1.8728 8.62457 1.8728 7.00012C1.8728 5.37567 2.51811 3.81775 3.66677 2.66909C4.81543 1.52043 6.37335 0.875122 7.9978 0.875122C9.62225 0.875122 11.1802 1.52043 12.3288 2.66909C13.4775 3.81775 14.1228 5.37567 14.1228 7.00012C14.1228 8.62457 13.4775 10.1825 12.3288 11.3312C11.1802 12.4798 9.62225 13.1251 7.9978 13.1251ZM7.9978 14.0001C9.85432 14.0001 11.6348 13.2626 12.9476 11.9499C14.2603 10.6371 14.9978 8.85664 14.9978 7.00012C14.9978 5.14361 14.2603 3.36313 12.9476 2.05037C11.6348 0.73762 9.85432 0.00012207 7.9978 0.00012207C6.14129 0.00012207 4.36081 0.73762 3.04806 2.05037C1.7353 3.36313 0.997803 5.14361 0.997803 7.00012C0.997803 8.85664 1.7353 10.6371 3.04806 11.9499C4.36081 13.2626 6.14129 14.0001 7.9978 14.0001Z" fill="#6C757D"/>
<path d="M8.81155 5.76462L6.8078 6.01575L6.73605 6.34825L7.1298 6.42087C7.38705 6.48212 7.4378 6.57487 7.3818 6.83125L6.73605 9.86575C6.5663 10.6506 6.82793 11.0199 7.44305 11.0199C7.91993 11.0199 8.4738 10.7994 8.72493 10.4966L8.80193 10.1326C8.62693 10.2866 8.37143 10.3479 8.20168 10.3479C7.96105 10.3479 7.87355 10.179 7.93568 9.8815L8.81155 5.76462ZM8.8728 3.93762C8.8728 4.16969 8.78062 4.39225 8.61652 4.55634C8.45243 4.72043 8.22987 4.81262 7.9978 4.81262C7.76574 4.81262 7.54318 4.72043 7.37908 4.55634C7.21499 4.39225 7.1228 4.16969 7.1228 3.93762C7.1228 3.70556 7.21499 3.483 7.37908 3.3189C7.54318 3.15481 7.76574 3.06262 7.9978 3.06262C8.22987 3.06262 8.45243 3.15481 8.61652 3.3189C8.78062 3.483 8.8728 3.70556 8.8728 3.93762Z" fill="#6C757D"/>
</g>
<defs>
<clipPath id="clip0_6464_477418">
<rect width="14" height="14" fill="white" transform="translate(0.998047 0.000976562)"/>
</clipPath>
</defs>
</svg>
