<svg width="59" height="33" viewBox="0 0 59 33" fill="none" xmlns="http://www.w3.org/2000/svg">
<g clip-path="url(#clip0_6435_416564)">
<path d="M44.5 33.0001C45.4614 33.0001 46.3834 32.6182 47.0633 31.9384C47.7431 31.2586 48.125 30.3365 48.125 29.3751H40.875C40.875 30.3365 41.2569 31.2586 41.9367 31.9384C42.6166 32.6182 43.5386 33.0001 44.5 33.0001ZM46.3034 5.99206C46.3287 5.74004 46.3009 5.48551 46.2218 5.2449C46.1427 5.00428 46.014 4.78292 45.8441 4.59509C45.6742 4.40726 45.4668 4.25712 45.2353 4.15437C45.0038 4.05162 44.7533 3.99854 44.5 3.99854C44.2467 3.99854 43.9962 4.05162 43.7647 4.15437C43.5332 4.25712 43.3258 4.40726 43.1559 4.59509C42.986 4.78292 42.8573 5.00428 42.7782 5.2449C42.6991 5.48551 42.6713 5.74004 42.6966 5.99206C40.6479 6.40875 38.8063 7.52065 37.4834 9.13947C36.1605 10.7583 35.4378 12.7845 35.4375 14.8751C35.4375 16.8652 34.5312 25.7501 31.8125 27.5626H57.1875C54.4688 25.7501 53.5625 16.8652 53.5625 14.8751C53.5625 10.4889 50.445 6.82762 46.3034 5.99206Z" fill="#C5C7CD"/>
</g>
<defs>
<clipPath id="clip0_6435_416564">
<rect width="29" height="29" fill="white" transform="translate(30 4)"/>
</clipPath>
</defs>
</svg>
