<svg width="16" height="17" viewBox="0 0 16 17" fill="none" xmlns="http://www.w3.org/2000/svg">
<g clip-path="url(#clip0_6464_476053)">
<path d="M13.9996 1.57123C14.2649 1.57123 14.5192 1.67658 14.7067 1.86412C14.8943 2.05166 14.9996 2.30601 14.9996 2.57123V14.5712C14.9996 14.8364 14.8943 15.0908 14.7067 15.2783C14.5192 15.4659 14.2649 15.5712 13.9996 15.5712H1.99963C1.73442 15.5712 1.48006 15.4659 1.29253 15.2783C1.10499 15.0908 0.999634 14.8364 0.999634 14.5712V2.57123C0.999634 2.30601 1.10499 2.05166 1.29253 1.86412C1.48006 1.67658 1.73442 1.57123 1.99963 1.57123H13.9996ZM1.99963 0.571228C1.4692 0.571228 0.960493 0.781942 0.58542 1.15701C0.210348 1.53209 -0.000366211 2.0408 -0.000366211 2.57123V14.5712C-0.000366211 15.1017 0.210348 15.6104 0.58542 15.9854C0.960493 16.3605 1.4692 16.5712 1.99963 16.5712H13.9996C14.5301 16.5712 15.0388 16.3605 15.4138 15.9854C15.7889 15.6104 15.9996 15.1017 15.9996 14.5712V2.57123C15.9996 2.0408 15.7889 1.53209 15.4138 1.15701C15.0388 0.781942 14.5301 0.571228 13.9996 0.571228H1.99963Z" fill="white"/>
<path d="M7.99963 4.57123C8.13224 4.57123 8.25942 4.62391 8.35319 4.71767C8.44696 4.81144 8.49963 4.93862 8.49963 5.07123V8.07123H11.4996C11.6322 8.07123 11.7594 8.12391 11.8532 8.21767C11.947 8.31144 11.9996 8.43862 11.9996 8.57123C11.9996 8.70384 11.947 8.83101 11.8532 8.92478C11.7594 9.01855 11.6322 9.07123 11.4996 9.07123H8.49963V12.0712C8.49963 12.2038 8.44696 12.331 8.35319 12.4248C8.25942 12.5185 8.13224 12.5712 7.99963 12.5712C7.86703 12.5712 7.73985 12.5185 7.64608 12.4248C7.55231 12.331 7.49963 12.2038 7.49963 12.0712V9.07123H4.49963C4.36703 9.07123 4.23985 9.01855 4.14608 8.92478C4.05231 8.83101 3.99963 8.70384 3.99963 8.57123C3.99963 8.43862 4.05231 8.31144 4.14608 8.21767C4.23985 8.12391 4.36703 8.07123 4.49963 8.07123H7.49963V5.07123C7.49963 4.93862 7.55231 4.81144 7.64608 4.71767C7.73985 4.62391 7.86703 4.57123 7.99963 4.57123Z" fill="white"/>
</g>
<defs>
<clipPath id="clip0_6464_476053">
<rect width="16" height="16" fill="white" transform="translate(0 0.572021)"/>
</clipPath>
</defs>
</svg>
