<svg width="20" height="20" viewBox="0 0 20 20" fill="none" xmlns="http://www.w3.org/2000/svg">
<path fill-rule="evenodd" clip-rule="evenodd" d="M2.05715 5.80668C2.11521 5.74847 2.18418 5.7023 2.26011 5.67079C2.33604 5.63928 2.41744 5.62306 2.49965 5.62306C2.58186 5.62306 2.66326 5.63928 2.73919 5.67079C2.81513 5.7023 2.8841 5.74847 2.94215 5.80668L9.99965 12.8654L17.0572 5.80668C17.1153 5.74857 17.1842 5.70247 17.2602 5.67102C17.3361 5.63958 17.4175 5.62339 17.4997 5.62339C17.5818 5.62339 17.6632 5.63958 17.7391 5.67102C17.8151 5.70247 17.884 5.74857 17.9422 5.80668C18.0003 5.86479 18.0464 5.93378 18.0778 6.0097C18.1093 6.08562 18.1254 6.167 18.1254 6.24918C18.1254 6.33136 18.1093 6.41273 18.0778 6.48866C18.0464 6.56458 18.0003 6.63357 17.9422 6.69168L10.4422 14.1917C10.3841 14.2499 10.3151 14.2961 10.2392 14.3276C10.1633 14.3591 10.0819 14.3753 9.99965 14.3753C9.91744 14.3753 9.83604 14.3591 9.76011 14.3276C9.68418 14.2961 9.61521 14.2499 9.55715 14.1917L2.05715 6.69168C1.99895 6.63362 1.95277 6.56465 1.92126 6.48872C1.88975 6.41279 1.87354 6.33139 1.87354 6.24918C1.87354 6.16697 1.88975 6.08557 1.92126 6.00964C1.95277 5.93371 1.99895 5.86474 2.05715 5.80668Z" fill="#212529"/>
</svg>
