<svg width="16" height="17" viewBox="0 0 16 17" fill="none" xmlns="http://www.w3.org/2000/svg">
<g clip-path="url(#clip0_6464_472441)">
<path d="M7.99951 15.501C6.143 15.501 4.36252 14.7635 3.04976 13.4507C1.73701 12.138 0.999512 10.3575 0.999512 8.50098C0.999512 6.64446 1.73701 4.86398 3.04976 3.55123C4.36252 2.23847 6.143 1.50098 7.99951 1.50098C9.85603 1.50098 11.6365 2.23847 12.9493 3.55123C14.262 4.86398 14.9995 6.64446 14.9995 8.50098C14.9995 10.3575 14.262 12.138 12.9493 13.4507C11.6365 14.7635 9.85603 15.501 7.99951 15.501ZM7.99951 16.501C10.1212 16.501 12.1561 15.6581 13.6564 14.1578C15.1567 12.6575 15.9995 10.6227 15.9995 8.50098C15.9995 6.37924 15.1567 4.34441 13.6564 2.84412C12.1561 1.34383 10.1212 0.500977 7.99951 0.500977C5.87778 0.500977 3.84295 1.34383 2.34266 2.84412C0.842367 4.34441 -0.000488281 6.37924 -0.000488281 8.50098C-0.000488281 10.6227 0.842367 12.6575 2.34266 14.1578C3.84295 15.6581 5.87778 16.501 7.99951 16.501Z" fill="white"/>
<path d="M7.99951 4.50098C8.13212 4.50098 8.2593 4.55366 8.35307 4.64742C8.44683 4.74119 8.49951 4.86837 8.49951 5.00098V8.00098H11.4995C11.6321 8.00098 11.7593 8.05366 11.8531 8.14742C11.9468 8.24119 11.9995 8.36837 11.9995 8.50098C11.9995 8.63358 11.9468 8.76076 11.8531 8.85453C11.7593 8.9483 11.6321 9.00098 11.4995 9.00098H8.49951V12.001C8.49951 12.1336 8.44683 12.2608 8.35307 12.3545C8.2593 12.4483 8.13212 12.501 7.99951 12.501C7.8669 12.501 7.73973 12.4483 7.64596 12.3545C7.55219 12.2608 7.49951 12.1336 7.49951 12.001V9.00098H4.49951C4.3669 9.00098 4.23973 8.9483 4.14596 8.85453C4.05219 8.76076 3.99951 8.63358 3.99951 8.50098C3.99951 8.36837 4.05219 8.24119 4.14596 8.14742C4.23973 8.05366 4.3669 8.00098 4.49951 8.00098H7.49951V5.00098C7.49951 4.86837 7.55219 4.74119 7.64596 4.64742C7.73973 4.55366 7.8669 4.50098 7.99951 4.50098Z" fill="white"/>
</g>
<defs>
<clipPath id="clip0_6464_472441">
<rect width="16" height="16" fill="white" transform="translate(0 0.501953)"/>
</clipPath>
</defs>
</svg>
