<svg width="14" height="14" viewBox="0 0 14 14" fill="none" xmlns="http://www.w3.org/2000/svg">
<g clip-path="url(#clip0_6464_21684)">
<path d="M12.2496 3.93668V12.2492C12.2496 12.7133 12.0653 13.1584 11.7371 13.4866C11.4089 13.8148 10.9638 13.9992 10.4996 13.9992H3.49963C3.0355 13.9992 2.59039 13.8148 2.2622 13.4866C1.93401 13.1584 1.74963 12.7133 1.74963 12.2492V1.74918C1.74963 1.28505 1.93401 0.839928 2.2622 0.511739C2.59039 0.183551 3.0355 -0.000823975 3.49963 -0.000823975H8.31213L12.2496 3.93668ZM9.62463 3.93668C9.27654 3.93668 8.9427 3.7984 8.69656 3.55225C8.45041 3.30611 8.31213 2.97227 8.31213 2.62418V0.874176H3.49963C3.26757 0.874176 3.04501 0.966363 2.88092 1.13046C2.71682 1.29455 2.62463 1.51711 2.62463 1.74918V12.2492C2.62463 12.4812 2.71682 12.7038 2.88092 12.8679C3.04501 13.032 3.26757 13.1242 3.49963 13.1242H10.4996C10.7317 13.1242 10.9543 13.032 11.1184 12.8679C11.2824 12.7038 11.3746 12.4812 11.3746 12.2492V3.93668H9.62463Z" fill="#0D6EFD"/>
</g>
<defs>
<clipPath id="clip0_6464_21684">
<rect width="14" height="14" fill="white"/>
</clipPath>
</defs>
</svg>
