<svg width="14" height="14" viewBox="0 0 14 14" fill="none" xmlns="http://www.w3.org/2000/svg">
<g clip-path="url(#clip0_6464_87415)">
<path d="M6.99951 13.1241C5.37506 13.1241 3.81714 12.4788 2.66848 11.3302C1.51982 10.1815 0.874512 8.6236 0.874512 6.99915C0.874512 5.37469 1.51982 3.81678 2.66848 2.66812C3.81714 1.51946 5.37506 0.874146 6.99951 0.874146C8.62396 0.874146 10.1819 1.51946 11.3305 2.66812C12.4792 3.81678 13.1245 5.37469 13.1245 6.99915C13.1245 8.6236 12.4792 10.1815 11.3305 11.3302C10.1819 12.4788 8.62396 13.1241 6.99951 13.1241ZM6.99951 13.9991C8.85603 13.9991 10.6365 13.2616 11.9493 11.9489C13.262 10.6361 13.9995 8.85566 13.9995 6.99915C13.9995 5.14263 13.262 3.36215 11.9493 2.0494C10.6365 0.736643 8.85603 -0.000854492 6.99951 -0.000854492C5.143 -0.000854492 3.36252 0.736643 2.04976 2.0494C0.73701 3.36215 -0.000488281 5.14263 -0.000488281 6.99915C-0.000488281 8.85566 0.73701 10.6361 2.04976 11.9489C3.36252 13.2616 5.143 13.9991 6.99951 13.9991Z" fill="#6C757D"/>
<path d="M7.81326 5.76365L5.80951 6.01477L5.73776 6.34727L6.13151 6.4199C6.38876 6.48115 6.43951 6.5739 6.38351 6.83027L5.73776 9.86477C5.56801 10.6496 5.82964 11.0189 6.44476 11.0189C6.92164 11.0189 7.47551 10.7984 7.72664 10.4956L7.80364 10.1316C7.62864 10.2856 7.37314 10.3469 7.20339 10.3469C6.96276 10.3469 6.87526 10.178 6.93739 9.88052L7.81326 5.76365ZM7.87451 3.93665C7.87451 4.16871 7.78232 4.39127 7.61823 4.55536C7.45414 4.71946 7.23158 4.81165 6.99951 4.81165C6.76745 4.81165 6.54489 4.71946 6.38079 4.55536C6.2167 4.39127 6.12451 4.16871 6.12451 3.93665C6.12451 3.70458 6.2167 3.48202 6.38079 3.31793C6.54489 3.15383 6.76745 3.06165 6.99951 3.06165C7.23158 3.06165 7.45414 3.15383 7.61823 3.31793C7.78232 3.48202 7.87451 3.70458 7.87451 3.93665Z" fill="#6C757D"/>
</g>
<defs>
<clipPath id="clip0_6464_87415">
<rect width="14" height="14" fill="white"/>
</clipPath>
</defs>
</svg>
