<svg width="16" height="17" viewBox="0 0 16 17" fill="none" xmlns="http://www.w3.org/2000/svg">
<g clip-path="url(#clip0_6464_472625)">
<path d="M13.9995 1.57129C14.2647 1.57129 14.5191 1.67665 14.7066 1.86418C14.8942 2.05172 14.9995 2.30607 14.9995 2.57129V14.5713C14.9995 14.8365 14.8942 15.0909 14.7066 15.2784C14.5191 15.4659 14.2647 15.5713 13.9995 15.5713H1.99951C1.7343 15.5713 1.47994 15.4659 1.2924 15.2784C1.10487 15.0909 0.999512 14.8365 0.999512 14.5713V2.57129C0.999512 2.30607 1.10487 2.05172 1.2924 1.86418C1.47994 1.67665 1.7343 1.57129 1.99951 1.57129H13.9995ZM1.99951 0.571289C1.46908 0.571289 0.960371 0.782003 0.585298 1.15708C0.210225 1.53215 -0.000488281 2.04086 -0.000488281 2.57129V14.5713C-0.000488281 15.1017 0.210225 15.6104 0.585298 15.9855C0.960371 16.3606 1.46908 16.5713 1.99951 16.5713H13.9995C14.5299 16.5713 15.0387 16.3606 15.4137 15.9855C15.7888 15.6104 15.9995 15.1017 15.9995 14.5713V2.57129C15.9995 2.04086 15.7888 1.53215 15.4137 1.15708C15.0387 0.782003 14.5299 0.571289 13.9995 0.571289H1.99951Z" fill="white"/>
<path d="M7.99951 4.57129C8.13212 4.57129 8.2593 4.62397 8.35307 4.71774C8.44683 4.8115 8.49951 4.93868 8.49951 5.07129V8.07129H11.4995C11.6321 8.07129 11.7593 8.12397 11.8531 8.21774C11.9468 8.3115 11.9995 8.43868 11.9995 8.57129C11.9995 8.7039 11.9468 8.83107 11.8531 8.92484C11.7593 9.01861 11.6321 9.07129 11.4995 9.07129H8.49951V12.0713C8.49951 12.2039 8.44683 12.3311 8.35307 12.4248C8.2593 12.5186 8.13212 12.5713 7.99951 12.5713C7.8669 12.5713 7.73973 12.5186 7.64596 12.4248C7.55219 12.3311 7.49951 12.2039 7.49951 12.0713V9.07129H4.49951C4.3669 9.07129 4.23973 9.01861 4.14596 8.92484C4.05219 8.83107 3.99951 8.7039 3.99951 8.57129C3.99951 8.43868 4.05219 8.3115 4.14596 8.21774C4.23973 8.12397 4.3669 8.07129 4.49951 8.07129H7.49951V5.07129C7.49951 4.93868 7.55219 4.8115 7.64596 4.71774C7.73973 4.62397 7.8669 4.57129 7.99951 4.57129Z" fill="white"/>
</g>
<defs>
<clipPath id="clip0_6464_472625">
<rect width="16" height="16" fill="white" transform="translate(0 0.572266)"/>
</clipPath>
</defs>
</svg>
