<svg width="14" height="14" viewBox="0 0 14 14" fill="none" xmlns="http://www.w3.org/2000/svg">
<g clip-path="url(#clip0_6464_482377)">
<path d="M6.99965 13.124C5.3752 13.124 3.81728 12.4787 2.66862 11.3301C1.51996 10.1814 0.87465 8.62347 0.87465 6.99902C0.87465 5.37457 1.51996 3.81665 2.66862 2.66799C3.81728 1.51933 5.3752 0.874023 6.99965 0.874023C8.6241 0.874023 10.182 1.51933 11.3307 2.66799C12.4793 3.81665 13.1247 5.37457 13.1247 6.99902C13.1247 8.62347 12.4793 10.1814 11.3307 11.3301C10.182 12.4787 8.6241 13.124 6.99965 13.124ZM6.99965 13.999C8.85617 13.999 10.6366 13.2615 11.9494 11.9488C13.2622 10.636 13.9997 8.85554 13.9997 6.99902C13.9997 5.14251 13.2622 3.36203 11.9494 2.04928C10.6366 0.736521 8.85617 -0.000976562 6.99965 -0.000976562C5.14313 -0.000976562 3.36266 0.736521 2.0499 2.04928C0.737148 3.36203 -0.000349998 5.14251 -0.000349998 6.99902C-0.000349998 8.85554 0.737148 10.636 2.0499 11.9488C3.36266 13.2615 5.14313 13.999 6.99965 13.999Z" fill="#6C757D"/>
<path d="M7.8134 5.76352L5.80965 6.01465L5.7379 6.34715L6.13165 6.41977C6.3889 6.48102 6.43965 6.57377 6.38365 6.83015L5.7379 9.86465C5.56815 10.6495 5.82978 11.0188 6.4449 11.0188C6.92178 11.0188 7.47565 10.7983 7.72678 10.4955L7.80377 10.1315C7.62877 10.2855 7.37327 10.3468 7.20352 10.3468C6.9629 10.3468 6.8754 10.1779 6.93752 9.8804L7.8134 5.76352ZM7.87465 3.93652C7.87465 4.16859 7.78246 4.39115 7.61837 4.55524C7.45427 4.71934 7.23171 4.81152 6.99965 4.81152C6.76759 4.81152 6.54503 4.71934 6.38093 4.55524C6.21684 4.39115 6.12465 4.16859 6.12465 3.93652C6.12465 3.70446 6.21684 3.4819 6.38093 3.3178C6.54503 3.15371 6.76759 3.06152 6.99965 3.06152C7.23171 3.06152 7.45427 3.15371 7.61837 3.3178C7.78246 3.4819 7.87465 3.70446 7.87465 3.93652Z" fill="#6C757D"/>
</g>
<defs>
<clipPath id="clip0_6464_482377">
<rect width="14" height="14" fill="white"/>
</clipPath>
</defs>
</svg>
