<svg width="17" height="16" viewBox="0 0 17 16" fill="none" xmlns="http://www.w3.org/2000/svg">
<g clip-path="url(#clip0_6464_482413)">
<path d="M8.49965 14.999C6.64313 14.999 4.86266 14.2615 3.5499 12.9488C2.23715 11.636 1.49965 9.85554 1.49965 7.99902C1.49965 6.14251 2.23715 4.36203 3.5499 3.04928C4.86266 1.73652 6.64313 0.999023 8.49965 0.999023C10.3562 0.999023 12.1366 1.73652 13.4494 3.04928C14.7622 4.36203 15.4996 6.14251 15.4996 7.99902C15.4996 9.85554 14.7622 11.636 13.4494 12.9488C12.1366 14.2615 10.3562 14.999 8.49965 14.999ZM8.49965 15.999C10.6214 15.999 12.6562 15.1562 14.1565 13.6559C15.6568 12.1556 16.4996 10.1208 16.4996 7.99902C16.4996 5.87729 15.6568 3.84246 14.1565 2.34217C12.6562 0.841878 10.6214 -0.000976562 8.49965 -0.000976562C6.37792 -0.000976562 4.34309 0.841878 2.84279 2.34217C1.3425 3.84246 0.499649 5.87729 0.499649 7.99902C0.499649 10.1208 1.3425 12.1556 2.84279 13.6559C4.34309 15.1562 6.37792 15.999 8.49965 15.999Z" fill="white"/>
<path d="M8.49965 3.99902C8.63226 3.99902 8.75943 4.0517 8.8532 4.14547C8.94697 4.23924 8.99965 4.36642 8.99965 4.49902V7.49902H11.9996C12.1323 7.49902 12.2594 7.5517 12.3532 7.64547C12.447 7.73924 12.4996 7.86642 12.4996 7.99902C12.4996 8.13163 12.447 8.25881 12.3532 8.35258C12.2594 8.44635 12.1323 8.49902 11.9996 8.49902H8.99965V11.499C8.99965 11.6316 8.94697 11.7588 8.8532 11.8526C8.75943 11.9463 8.63226 11.999 8.49965 11.999C8.36704 11.999 8.23986 11.9463 8.1461 11.8526C8.05233 11.7588 7.99965 11.6316 7.99965 11.499V8.49902H4.99965C4.86704 8.49902 4.73986 8.44635 4.6461 8.35258C4.55233 8.25881 4.49965 8.13163 4.49965 7.99902C4.49965 7.86642 4.55233 7.73924 4.6461 7.64547C4.73986 7.5517 4.86704 7.49902 4.99965 7.49902H7.99965V4.49902C7.99965 4.36642 8.05233 4.23924 8.1461 4.14547C8.23986 4.0517 8.36704 3.99902 8.49965 3.99902Z" fill="white"/>
</g>
<defs>
<clipPath id="clip0_6464_482413">
<rect width="16" height="16" fill="white" transform="translate(0.5)"/>
</clipPath>
</defs>
</svg>
