<svg width="9" height="17" viewBox="0 0 9 17" fill="none" xmlns="http://www.w3.org/2000/svg">
<g clip-path="url(#clip0_6464_476280)">
<path d="M6.99963 1.49915C7.26485 1.49915 7.5192 1.6045 7.70674 1.79204C7.89428 1.97958 7.99963 2.23393 7.99963 2.49915V14.4991C7.99963 14.7644 7.89428 15.0187 7.70674 15.2063C7.5192 15.3938 7.26485 15.4991 6.99963 15.4991H-5.00037C-5.26558 15.4991 -5.51994 15.3938 -5.70747 15.2063C-5.89501 15.0187 -6.00037 14.7644 -6.00037 14.4991V2.49915C-6.00037 2.23393 -5.89501 1.97958 -5.70747 1.79204C-5.51994 1.6045 -5.26558 1.49915 -5.00037 1.49915H6.99963ZM-5.00037 0.499146C-5.5308 0.499146 -6.03951 0.709859 -6.41458 1.08493C-6.78965 1.46 -7.00037 1.96871 -7.00037 2.49915V14.4991C-7.00037 15.0296 -6.78965 15.5383 -6.41458 15.9134C-6.03951 16.2884 -5.5308 16.4991 -5.00037 16.4991H6.99963C7.53007 16.4991 8.03877 16.2884 8.41385 15.9134C8.78892 15.5383 8.99963 15.0296 8.99963 14.4991V2.49915C8.99963 1.96871 8.78892 1.46 8.41385 1.08493C8.03877 0.709859 7.53007 0.499146 6.99963 0.499146H-5.00037Z" fill="white"/>
<path d="M0.999634 4.49915C1.13224 4.49915 1.25942 4.55182 1.35319 4.64559C1.44696 4.73936 1.49963 4.86654 1.49963 4.99915V7.99915H4.49963C4.63224 7.99915 4.75942 8.05182 4.85319 8.14559C4.94696 8.23936 4.99963 8.36654 4.99963 8.49915C4.99963 8.63175 4.94696 8.75893 4.85319 8.8527C4.75942 8.94647 4.63224 8.99915 4.49963 8.99915H1.49963V11.9991C1.49963 12.1318 1.44696 12.2589 1.35319 12.3527C1.25942 12.4465 1.13224 12.4991 0.999634 12.4991C0.867026 12.4991 0.739849 12.4465 0.64608 12.3527C0.552312 12.2589 0.499634 12.1318 0.499634 11.9991V8.99915H-2.50037C-2.63297 8.99915 -2.76015 8.94647 -2.85392 8.8527C-2.94769 8.75893 -3.00037 8.63175 -3.00037 8.49915C-3.00037 8.36654 -2.94769 8.23936 -2.85392 8.14559C-2.76015 8.05182 -2.63297 7.99915 -2.50037 7.99915H0.499634V4.99915C0.499634 4.86654 0.552312 4.73936 0.64608 4.64559C0.739849 4.55182 0.867026 4.49915 0.999634 4.49915Z" fill="white"/>
</g>
<defs>
<clipPath id="clip0_6464_476280">
<rect width="16" height="16" fill="white" transform="translate(-7 0.5)"/>
</clipPath>
</defs>
</svg>
