<svg width="10" height="10" viewBox="0 0 10 10" fill="none" xmlns="http://www.w3.org/2000/svg">
<path d="M4.52883 7.16172L1.53133 3.73547C1.17758 3.33234 1.46508 2.69922 2.00196 2.69922H7.99696C8.11711 2.69912 8.23475 2.73365 8.33578 2.79868C8.43681 2.86372 8.51695 2.95649 8.56661 3.0659C8.61627 3.17531 8.63334 3.29672 8.61578 3.41558C8.59822 3.53444 8.54676 3.64572 8.46758 3.73609L5.47008 7.16109C5.41142 7.22822 5.33907 7.28203 5.2579 7.31889C5.17673 7.35576 5.08861 7.37483 4.99946 7.37483C4.91031 7.37483 4.82219 7.35576 4.74101 7.31889C4.65984 7.28203 4.5875 7.22822 4.52883 7.16109V7.16172Z" fill="white"/>
</svg>
