<svg width="14" height="14" viewBox="0 0 14 14" fill="none" xmlns="http://www.w3.org/2000/svg">
<g clip-path="url(#clip0_6464_481613)">
<path d="M13.9996 6.99902C13.9996 8.85554 13.2621 10.636 11.9494 11.9488C10.6366 13.2615 8.85615 13.999 6.99963 13.999C5.14312 13.999 3.36264 13.2615 2.04989 11.9488C0.737132 10.636 -0.000366211 8.85554 -0.000366211 6.99902C-0.000366211 5.14251 0.737132 3.36203 2.04989 2.04928C3.36264 0.736521 5.14312 -0.000976562 6.99963 -0.000976562C8.85615 -0.000976562 10.6366 0.736521 11.9494 2.04928C13.2621 3.36203 13.9996 5.14251 13.9996 6.99902V6.99902ZM4.68438 4.06427C4.60223 3.98212 4.49081 3.93597 4.37463 3.93597C4.25846 3.93597 4.14703 3.98212 4.06488 4.06427C3.98273 4.14642 3.93658 4.25784 3.93658 4.37402C3.93658 4.4902 3.98273 4.60162 4.06488 4.68377L6.38101 6.99902L4.06488 9.31427C4.02421 9.35495 3.99194 9.40324 3.96993 9.45639C3.94791 9.50953 3.93658 9.5665 3.93658 9.62402C3.93658 9.68155 3.94791 9.73851 3.96993 9.79166C3.99194 9.84481 4.02421 9.8931 4.06488 9.93377C4.14703 10.0159 4.25846 10.0621 4.37463 10.0621C4.43216 10.0621 4.48912 10.0507 4.54227 10.0287C4.59542 10.0067 4.64371 9.97445 4.68438 9.93377L6.99963 7.61765L9.31488 9.93377C9.35556 9.97445 9.40385 10.0067 9.457 10.0287C9.51015 10.0507 9.56711 10.0621 9.62463 10.0621C9.68216 10.0621 9.73912 10.0507 9.79227 10.0287C9.84542 10.0067 9.89371 9.97445 9.93438 9.93377C9.97506 9.8931 10.0073 9.84481 10.0293 9.79166C10.0514 9.73851 10.0627 9.68155 10.0627 9.62402C10.0627 9.5665 10.0514 9.50953 10.0293 9.45639C10.0073 9.40324 9.97506 9.35495 9.93438 9.31427L7.61826 6.99902L9.93438 4.68377C9.97506 4.6431 10.0073 4.59481 10.0293 4.54166C10.0514 4.48851 10.0627 4.43155 10.0627 4.37402C10.0627 4.3165 10.0514 4.25953 10.0293 4.20639C10.0073 4.15324 9.97506 4.10495 9.93438 4.06427C9.89371 4.0236 9.84542 3.99133 9.79227 3.96932C9.73912 3.9473 9.68216 3.93597 9.62463 3.93597C9.56711 3.93597 9.51015 3.9473 9.457 3.96932C9.40385 3.99133 9.35556 4.0236 9.31488 4.06427L6.99963 6.3804L4.68438 4.06427Z" fill="#6C757D"/>
</g>
<defs>
<clipPath id="clip0_6464_481613">
<rect width="14" height="14" fill="white"/>
</clipPath>
</defs>
</svg>
