<svg width="14" height="14" viewBox="0 0 14 14" fill="none" xmlns="http://www.w3.org/2000/svg">
<g clip-path="url(#clip0_6464_233793)">
<path d="M9.49688 6.2519C9.53763 6.29254 9.56995 6.34081 9.59201 6.39397C9.61406 6.44712 9.62542 6.5041 9.62542 6.56165C9.62542 6.61919 9.61406 6.67617 9.59201 6.72932C9.56995 6.78248 9.53763 6.83076 9.49688 6.8714L6.87188 9.4964C6.83124 9.53714 6.78297 9.56946 6.72981 9.59152C6.67666 9.61357 6.61968 9.62493 6.56213 9.62493C6.50459 9.62493 6.44761 9.61357 6.39445 9.59152C6.3413 9.56946 6.29302 9.53714 6.25238 9.4964L4.93988 8.1839C4.89921 8.14322 4.86694 8.09493 4.84493 8.04178C4.82291 7.98863 4.81158 7.93167 4.81158 7.87415C4.81158 7.81662 4.82291 7.75966 4.84493 7.70651C4.86694 7.65336 4.89921 7.60507 4.93988 7.5644C5.02203 7.48224 5.13345 7.43609 5.24963 7.43609C5.30716 7.43609 5.36412 7.44742 5.41727 7.46944C5.47042 7.49145 5.51871 7.52372 5.55938 7.5644L6.56213 8.56802L8.87738 6.2519C8.91802 6.21115 8.9663 6.17883 9.01945 6.15677C9.07261 6.13472 9.12959 6.12336 9.18713 6.12336C9.24468 6.12336 9.30166 6.13472 9.35481 6.15677C9.40796 6.17883 9.45624 6.21115 9.49688 6.2519Z" fill="#6C757D"/>
<path d="M3.06213 -0.000854492C3.17817 -0.000854492 3.28945 0.0452391 3.37149 0.127286C3.45354 0.209333 3.49963 0.320613 3.49963 0.436646V0.874146H10.4996V0.436646C10.4996 0.320613 10.5457 0.209333 10.6278 0.127286C10.7098 0.0452391 10.8211 -0.000854492 10.9371 -0.000854492C11.0532 -0.000854492 11.1644 0.0452391 11.2465 0.127286C11.3285 0.209333 11.3746 0.320613 11.3746 0.436646V0.874146H12.2496C12.7138 0.874146 13.1589 1.05852 13.4871 1.38671C13.8153 1.7149 13.9996 2.16002 13.9996 2.62415V12.2491C13.9996 12.7133 13.8153 13.1584 13.4871 13.4866C13.1589 13.8148 12.7138 13.9991 12.2496 13.9991H1.74963C1.2855 13.9991 0.840386 13.8148 0.512197 13.4866C0.184008 13.1584 -0.000366211 12.7133 -0.000366211 12.2491V2.62415C-0.000366211 2.16002 0.184008 1.7149 0.512197 1.38671C0.840386 1.05852 1.2855 0.874146 1.74963 0.874146H2.62463V0.436646C2.62463 0.320613 2.67073 0.209333 2.75277 0.127286C2.83482 0.0452391 2.9461 -0.000854492 3.06213 -0.000854492ZM0.874634 3.49915V12.2491C0.874634 12.4812 0.966821 12.7038 1.13092 12.8679C1.29501 13.032 1.51757 13.1241 1.74963 13.1241H12.2496C12.4817 13.1241 12.7043 13.032 12.8684 12.8679C13.0324 12.7038 13.1246 12.4812 13.1246 12.2491V3.49915H0.874634Z" fill="#6C757D"/>
</g>
<defs>
<clipPath id="clip0_6464_233793">
<rect width="14" height="14" fill="white"/>
</clipPath>
</defs>
</svg>
