<svg width="9" height="17" viewBox="0 0 9 17" fill="none" xmlns="http://www.w3.org/2000/svg">
<g clip-path="url(#clip0_6464_476291)">
<path d="M7.99963 15.4991C6.14312 15.4991 4.36264 14.7616 3.04989 13.4489C1.73713 12.1361 0.999634 10.3557 0.999634 8.49915C0.999634 6.64263 1.73713 4.86215 3.04989 3.5494C4.36264 2.23664 6.14312 1.49915 7.99963 1.49915C9.85615 1.49915 11.6366 2.23664 12.9494 3.5494C14.2621 4.86215 14.9996 6.64263 14.9996 8.49915C14.9996 10.3557 14.2621 12.1361 12.9494 13.4489C11.6366 14.7616 9.85615 15.4991 7.99963 15.4991ZM7.99963 16.4991C10.1214 16.4991 12.1562 15.6563 13.6565 14.156C15.1568 12.6557 15.9996 10.6209 15.9996 8.49915C15.9996 6.37741 15.1568 4.34258 13.6565 2.84229C12.1562 1.342 10.1214 0.499146 7.99963 0.499146C5.8779 0.499146 3.84307 1.342 2.34278 2.84229C0.842489 4.34258 -0.000366211 6.37741 -0.000366211 8.49915C-0.000366211 10.6209 0.842489 12.6557 2.34278 14.156C3.84307 15.6563 5.8779 16.4991 7.99963 16.4991Z" fill="white"/>
<path d="M7.99963 4.49915C8.13224 4.49915 8.25942 4.55182 8.35319 4.64559C8.44696 4.73936 8.49963 4.86654 8.49963 4.99915V7.99915H11.4996C11.6322 7.99915 11.7594 8.05182 11.8532 8.14559C11.947 8.23936 11.9996 8.36654 11.9996 8.49915C11.9996 8.63175 11.947 8.75893 11.8532 8.8527C11.7594 8.94647 11.6322 8.99915 11.4996 8.99915H8.49963V11.9991C8.49963 12.1318 8.44696 12.2589 8.35319 12.3527C8.25942 12.4465 8.13224 12.4991 7.99963 12.4991C7.86703 12.4991 7.73985 12.4465 7.64608 12.3527C7.55231 12.2589 7.49963 12.1318 7.49963 11.9991V8.99915H4.49963C4.36703 8.99915 4.23985 8.94647 4.14608 8.8527C4.05231 8.75893 3.99963 8.63175 3.99963 8.49915C3.99963 8.36654 4.05231 8.23936 4.14608 8.14559C4.23985 8.05182 4.36703 7.99915 4.49963 7.99915H7.49963V4.99915C7.49963 4.86654 7.55231 4.73936 7.64608 4.64559C7.73985 4.55182 7.86703 4.49915 7.99963 4.49915Z" fill="white"/>
</g>
<defs>
<clipPath id="clip0_6464_476291">
<rect width="16" height="16" fill="white" transform="translate(0 0.5)"/>
</clipPath>
</defs>
</svg>
