<svg width="16" height="17" viewBox="0 0 16 17" fill="none" xmlns="http://www.w3.org/2000/svg">
<g clip-path="url(#clip0_6464_474489)">
<path d="M7.99976 15.5713C6.14324 15.5713 4.36276 14.8338 3.05001 13.521C1.73725 12.2083 0.999756 10.4278 0.999756 8.57129C0.999756 6.71477 1.73725 4.9343 3.05001 3.62154C4.36276 2.30879 6.14324 1.57129 7.99976 1.57129C9.85627 1.57129 11.6367 2.30879 12.9495 3.62154C14.2623 4.9343 14.9998 6.71477 14.9998 8.57129C14.9998 10.4278 14.2623 12.2083 12.9495 13.521C11.6367 14.8338 9.85627 15.5713 7.99976 15.5713ZM7.99976 16.5713C10.1215 16.5713 12.1563 15.7284 13.6566 14.2281C15.1569 12.7279 15.9998 10.693 15.9998 8.57129C15.9998 6.44956 15.1569 4.41473 13.6566 2.91443C12.1563 1.41414 10.1215 0.571289 7.99976 0.571289C5.87802 0.571289 3.84319 1.41414 2.3429 2.91443C0.842611 4.41473 -0.000244141 6.44956 -0.000244141 8.57129C-0.000244141 10.693 0.842611 12.7279 2.3429 14.2281C3.84319 15.7284 5.87802 16.5713 7.99976 16.5713Z" fill="white"/>
<path d="M7.99976 4.57129C8.13236 4.57129 8.25954 4.62397 8.35331 4.71774C8.44708 4.8115 8.49976 4.93868 8.49976 5.07129V8.07129H11.4998C11.6324 8.07129 11.7595 8.12397 11.8533 8.21774C11.9471 8.3115 11.9998 8.43868 11.9998 8.57129C11.9998 8.7039 11.9471 8.83107 11.8533 8.92484C11.7595 9.01861 11.6324 9.07129 11.4998 9.07129H8.49976V12.0713C8.49976 12.2039 8.44708 12.3311 8.35331 12.4248C8.25954 12.5186 8.13236 12.5713 7.99976 12.5713C7.86715 12.5713 7.73997 12.5186 7.6462 12.4248C7.55243 12.3311 7.49976 12.2039 7.49976 12.0713V9.07129H4.49976C4.36715 9.07129 4.23997 9.01861 4.1462 8.92484C4.05243 8.83107 3.99976 8.7039 3.99976 8.57129C3.99976 8.43868 4.05243 8.3115 4.1462 8.21774C4.23997 8.12397 4.36715 8.07129 4.49976 8.07129H7.49976V5.07129C7.49976 4.93868 7.55243 4.8115 7.6462 4.71774C7.73997 4.62397 7.86715 4.57129 7.99976 4.57129Z" fill="white"/>
</g>
<defs>
<clipPath id="clip0_6464_474489">
<rect width="16" height="16" fill="white" transform="translate(0 0.572266)"/>
</clipPath>
</defs>
</svg>
