<svg width="14" height="14" viewBox="0 0 14 14" fill="none" xmlns="http://www.w3.org/2000/svg">
<g clip-path="url(#clip0_6464_482896)">
<path d="M13.9998 6.99902C13.9998 8.85554 13.2623 10.636 11.9495 11.9488C10.6367 13.2615 8.85627 13.999 6.99976 13.999C5.14324 13.999 3.36276 13.2615 2.05001 11.9488C0.737254 10.636 -0.000244141 8.85554 -0.000244141 6.99902C-0.000244141 5.14251 0.737254 3.36203 2.05001 2.04928C3.36276 0.736521 5.14324 -0.000976562 6.99976 -0.000976562C8.85627 -0.000976562 10.6367 0.736521 11.9495 2.04928C13.2623 3.36203 13.9998 5.14251 13.9998 6.99902V6.99902ZM4.68451 4.06427C4.60236 3.98212 4.49093 3.93597 4.37476 3.93597C4.25858 3.93597 4.14716 3.98212 4.06501 4.06427C3.98285 4.14642 3.9367 4.25784 3.9367 4.37402C3.9367 4.4902 3.98285 4.60162 4.06501 4.68377L6.38113 6.99902L4.06501 9.31427C4.02433 9.35495 3.99206 9.40324 3.97005 9.45639C3.94803 9.50953 3.9367 9.5665 3.9367 9.62402C3.9367 9.68155 3.94803 9.73851 3.97005 9.79166C3.99206 9.84481 4.02433 9.8931 4.06501 9.93377C4.14716 10.0159 4.25858 10.0621 4.37476 10.0621C4.43228 10.0621 4.48924 10.0507 4.54239 10.0287C4.59554 10.0067 4.64383 9.97445 4.68451 9.93377L6.99976 7.61765L9.31501 9.93377C9.35568 9.97445 9.40397 10.0067 9.45712 10.0287C9.51027 10.0507 9.56723 10.0621 9.62476 10.0621C9.68228 10.0621 9.73924 10.0507 9.79239 10.0287C9.84554 10.0067 9.89383 9.97445 9.93451 9.93377C9.97518 9.8931 10.0074 9.84481 10.0295 9.79166C10.0515 9.73851 10.0628 9.68155 10.0628 9.62402C10.0628 9.5665 10.0515 9.50953 10.0295 9.45639C10.0074 9.40324 9.97518 9.35495 9.93451 9.31427L7.61838 6.99902L9.93451 4.68377C9.97518 4.6431 10.0074 4.59481 10.0295 4.54166C10.0515 4.48851 10.0628 4.43155 10.0628 4.37402C10.0628 4.3165 10.0515 4.25953 10.0295 4.20639C10.0074 4.15324 9.97518 4.10495 9.93451 4.06427C9.89383 4.0236 9.84554 3.99133 9.79239 3.96932C9.73924 3.9473 9.68228 3.93597 9.62476 3.93597C9.56723 3.93597 9.51027 3.9473 9.45712 3.96932C9.40397 3.99133 9.35568 4.0236 9.31501 4.06427L6.99976 6.3804L4.68451 4.06427Z" fill="#6C757D"/>
</g>
<defs>
<clipPath id="clip0_6464_482896">
<rect width="14" height="14" fill="white"/>
</clipPath>
</defs>
</svg>
