<svg width="14" height="15" viewBox="0 0 14 15" fill="none" xmlns="http://www.w3.org/2000/svg">
<g clip-path="url(#clip0_6464_475838)">
<path d="M13.9996 7.49915C13.9996 9.35566 13.2621 11.1361 11.9494 12.4489C10.6366 13.7616 8.85615 14.4991 6.99963 14.4991C5.14312 14.4991 3.36264 13.7616 2.04989 12.4489C0.737132 11.1361 -0.000366211 9.35566 -0.000366211 7.49915C-0.000366211 5.64263 0.737132 3.86215 2.04989 2.5494C3.36264 1.23664 5.14312 0.499146 6.99963 0.499146C8.85615 0.499146 10.6366 1.23664 11.9494 2.5494C13.2621 3.86215 13.9996 5.64263 13.9996 7.49915V7.49915ZM4.68438 4.5644C4.60223 4.48224 4.49081 4.43609 4.37463 4.43609C4.25846 4.43609 4.14703 4.48224 4.06488 4.5644C3.98273 4.64655 3.93658 4.75797 3.93658 4.87415C3.93658 4.99032 3.98273 5.10174 4.06488 5.1839L6.38101 7.49915L4.06488 9.8144C4.02421 9.85507 3.99194 9.90336 3.96993 9.95651C3.94791 10.0097 3.93658 10.0666 3.93658 10.1241C3.93658 10.1817 3.94791 10.2386 3.96993 10.2918C3.99194 10.3449 4.02421 10.3932 4.06488 10.4339C4.14703 10.516 4.25846 10.5622 4.37463 10.5622C4.43216 10.5622 4.48912 10.5509 4.54227 10.5289C4.59542 10.5068 4.64371 10.4746 4.68438 10.4339L6.99963 8.11777L9.31488 10.4339C9.35556 10.4746 9.40385 10.5068 9.457 10.5289C9.51015 10.5509 9.56711 10.5622 9.62463 10.5622C9.68216 10.5622 9.73912 10.5509 9.79227 10.5289C9.84542 10.5068 9.89371 10.4746 9.93438 10.4339C9.97506 10.3932 10.0073 10.3449 10.0293 10.2918C10.0514 10.2386 10.0627 10.1817 10.0627 10.1241C10.0627 10.0666 10.0514 10.0097 10.0293 9.95651C10.0073 9.90336 9.97506 9.85507 9.93438 9.8144L7.61826 7.49915L9.93438 5.1839C9.97506 5.14322 10.0073 5.09493 10.0293 5.04178C10.0514 4.98863 10.0627 4.93167 10.0627 4.87415C10.0627 4.81662 10.0514 4.75966 10.0293 4.70651C10.0073 4.65336 9.97506 4.60507 9.93438 4.5644C9.89371 4.52372 9.84542 4.49145 9.79227 4.46944C9.73912 4.44742 9.68216 4.43609 9.62463 4.43609C9.56711 4.43609 9.51015 4.44742 9.457 4.46944C9.40385 4.49145 9.35556 4.52372 9.31488 4.5644L6.99963 6.88052L4.68438 4.5644Z" fill="#6C757D"/>
</g>
<defs>
<clipPath id="clip0_6464_475838">
<rect width="14" height="14" fill="white" transform="translate(0 0.5)"/>
</clipPath>
</defs>
</svg>
