<svg width="20" height="20" viewBox="0 0 20 20" fill="none" xmlns="http://www.w3.org/2000/svg">
<path d="M9.99951 9.99921C10.9941 9.99921 11.9479 9.60412 12.6512 8.90086C13.3544 8.1976 13.7495 7.24377 13.7495 6.24921C13.7495 5.25464 13.3544 4.30082 12.6512 3.59756C11.9479 2.89429 10.9941 2.49921 9.99951 2.49921C9.00495 2.49921 8.05112 2.89429 7.34786 3.59756C6.6446 4.30082 6.24951 5.25464 6.24951 6.24921C6.24951 7.24377 6.6446 8.1976 7.34786 8.90086C8.05112 9.60412 9.00495 9.99921 9.99951 9.99921ZM12.4995 6.24921C12.4995 6.91225 12.2361 7.54813 11.7673 8.01697C11.2984 8.48581 10.6626 8.74921 9.99951 8.74921C9.33647 8.74921 8.70059 8.48581 8.23174 8.01697C7.7629 7.54813 7.49951 6.91225 7.49951 6.24921C7.49951 5.58617 7.7629 4.95028 8.23174 4.48144C8.70059 4.0126 9.33647 3.74921 9.99951 3.74921C10.6626 3.74921 11.2984 4.0126 11.7673 4.48144C12.2361 4.95028 12.4995 5.58617 12.4995 6.24921ZM17.4995 16.2492C17.4995 17.4992 16.2495 17.4992 16.2495 17.4992H3.74951C3.74951 17.4992 2.49951 17.4992 2.49951 16.2492C2.49951 14.9992 3.74951 11.2492 9.99951 11.2492C16.2495 11.2492 17.4995 14.9992 17.4995 16.2492ZM16.2495 16.2442C16.2483 15.9367 16.057 15.0117 15.2095 14.1642C14.3945 13.3492 12.8608 12.4992 9.99951 12.4992C7.13701 12.4992 5.60451 13.3492 4.78951 14.1642C3.94201 15.0117 3.75201 15.9367 3.74951 16.2442H16.2495Z" fill="white"/>
</svg>
