<svg width="10" height="10" viewBox="0 0 10 10" fill="none" xmlns="http://www.w3.org/2000/svg">
<path d="M4.52883 7.16169L1.53133 3.73544C1.17758 3.33231 1.46508 2.69919 2.00196 2.69919H7.99696C8.11711 2.69909 8.23475 2.73362 8.33578 2.79865C8.43681 2.86368 8.51695 2.95646 8.56661 3.06587C8.61627 3.17528 8.63334 3.29669 8.61578 3.41555C8.59822 3.53441 8.54676 3.64569 8.46758 3.73606L5.47008 7.16106C5.41142 7.22819 5.33907 7.282 5.2579 7.31886C5.17673 7.35573 5.08861 7.3748 4.99946 7.3748C4.91031 7.3748 4.82219 7.35573 4.74101 7.31886C4.65984 7.282 4.5875 7.22819 4.52883 7.16106V7.16169Z" fill="white"/>
</svg>
