<svg width="16" height="17" viewBox="0 0 16 17" fill="none" xmlns="http://www.w3.org/2000/svg">
<g clip-path="url(#clip0_6464_477596)">
<path d="M7.99976 15.5712C6.14324 15.5712 4.36276 14.8337 3.05001 13.521C1.73725 12.2082 0.999756 10.4277 0.999756 8.57123C0.999756 6.71471 1.73725 4.93424 3.05001 3.62148C4.36276 2.30873 6.14324 1.57123 7.99976 1.57123C9.85627 1.57123 11.6367 2.30873 12.9495 3.62148C14.2623 4.93424 14.9998 6.71471 14.9998 8.57123C14.9998 10.4277 14.2623 12.2082 12.9495 13.521C11.6367 14.8337 9.85627 15.5712 7.99976 15.5712ZM7.99976 16.5712C10.1215 16.5712 12.1563 15.7284 13.6566 14.2281C15.1569 12.7278 15.9998 10.693 15.9998 8.57123C15.9998 6.4495 15.1569 4.41466 13.6566 2.91437C12.1563 1.41408 10.1215 0.571228 7.99976 0.571228C5.87802 0.571228 3.84319 1.41408 2.3429 2.91437C0.842611 4.41466 -0.000244141 6.4495 -0.000244141 8.57123C-0.000244141 10.693 0.842611 12.7278 2.3429 14.2281C3.84319 15.7284 5.87802 16.5712 7.99976 16.5712Z" fill="white"/>
<path d="M7.99976 4.57123C8.13236 4.57123 8.25954 4.62391 8.35331 4.71767C8.44708 4.81144 8.49976 4.93862 8.49976 5.07123V8.07123H11.4998C11.6324 8.07123 11.7595 8.12391 11.8533 8.21767C11.9471 8.31144 11.9998 8.43862 11.9998 8.57123C11.9998 8.70384 11.9471 8.83101 11.8533 8.92478C11.7595 9.01855 11.6324 9.07123 11.4998 9.07123H8.49976V12.0712C8.49976 12.2038 8.44708 12.331 8.35331 12.4248C8.25954 12.5185 8.13236 12.5712 7.99976 12.5712C7.86715 12.5712 7.73997 12.5185 7.6462 12.4248C7.55243 12.331 7.49976 12.2038 7.49976 12.0712V9.07123H4.49976C4.36715 9.07123 4.23997 9.01855 4.1462 8.92478C4.05243 8.83101 3.99976 8.70384 3.99976 8.57123C3.99976 8.43862 4.05243 8.31144 4.1462 8.21767C4.23997 8.12391 4.36715 8.07123 4.49976 8.07123H7.49976V5.07123C7.49976 4.93862 7.55243 4.81144 7.6462 4.71767C7.73997 4.62391 7.86715 4.57123 7.99976 4.57123Z" fill="white"/>
</g>
<defs>
<clipPath id="clip0_6464_477596">
<rect width="16" height="16" fill="white" transform="translate(0 0.572021)"/>
</clipPath>
</defs>
</svg>
