<svg width="16" height="17" viewBox="0 0 16 17" fill="none" xmlns="http://www.w3.org/2000/svg">
<g clip-path="url(#clip0_6442_361394)">
<path d="M7.99976 15.501C6.14324 15.501 4.36276 14.7635 3.05001 13.4507C1.73725 12.138 0.999756 10.3575 0.999756 8.50098C0.999756 6.64446 1.73725 4.86398 3.05001 3.55123C4.36276 2.23847 6.14324 1.50098 7.99976 1.50098C9.85627 1.50098 11.6367 2.23847 12.9495 3.55123C14.2623 4.86398 14.9998 6.64446 14.9998 8.50098C14.9998 10.3575 14.2623 12.138 12.9495 13.4507C11.6367 14.7635 9.85627 15.501 7.99976 15.501ZM7.99976 16.501C10.1215 16.501 12.1563 15.6581 13.6566 14.1578C15.1569 12.6575 15.9998 10.6227 15.9998 8.50098C15.9998 6.37924 15.1569 4.34441 13.6566 2.84412C12.1563 1.34383 10.1215 0.500977 7.99976 0.500977C5.87802 0.500977 3.84319 1.34383 2.3429 2.84412C0.842611 4.34441 -0.000244141 6.37924 -0.000244141 8.50098C-0.000244141 10.6227 0.842611 12.6575 2.3429 14.1578C3.84319 15.6581 5.87802 16.501 7.99976 16.501Z" fill="white"/>
<path d="M7.99976 4.50098C8.13236 4.50098 8.25954 4.55366 8.35331 4.64742C8.44708 4.74119 8.49976 4.86837 8.49976 5.00098V8.00098H11.4998C11.6324 8.00098 11.7595 8.05366 11.8533 8.14742C11.9471 8.24119 11.9998 8.36837 11.9998 8.50098C11.9998 8.63358 11.9471 8.76076 11.8533 8.85453C11.7595 8.9483 11.6324 9.00098 11.4998 9.00098H8.49976V12.001C8.49976 12.1336 8.44708 12.2608 8.35331 12.3545C8.25954 12.4483 8.13236 12.501 7.99976 12.501C7.86715 12.501 7.73997 12.4483 7.6462 12.3545C7.55243 12.2608 7.49976 12.1336 7.49976 12.001V9.00098H4.49976C4.36715 9.00098 4.23997 8.9483 4.1462 8.85453C4.05243 8.76076 3.99976 8.63358 3.99976 8.50098C3.99976 8.36837 4.05243 8.24119 4.1462 8.14742C4.23997 8.05366 4.36715 8.00098 4.49976 8.00098H7.49976V5.00098C7.49976 4.86837 7.55243 4.74119 7.6462 4.64742C7.73997 4.55366 7.86715 4.50098 7.99976 4.50098Z" fill="white"/>
</g>
<defs>
<clipPath id="clip0_6442_361394">
<rect width="16" height="16" fill="white" transform="translate(0 0.501953)"/>
</clipPath>
</defs>
</svg>
