<svg width="14" height="14" viewBox="0 0 14 14" fill="none" xmlns="http://www.w3.org/2000/svg">
<g clip-path="url(#clip0_6464_237836)">
<path d="M6.99963 3.06171C6.99963 2.94567 6.95354 2.83439 6.87149 2.75235C6.78945 2.6703 6.67817 2.62421 6.56213 2.62421C6.4461 2.62421 6.33482 2.6703 6.25277 2.75235C6.17073 2.83439 6.12463 2.94567 6.12463 3.06171V7.87421C6.12466 7.95132 6.14507 8.02706 6.18379 8.09375C6.22251 8.16044 6.27817 8.21571 6.34513 8.25396L9.40763 10.004C9.50813 10.0583 9.62589 10.0711 9.73575 10.0398C9.8456 10.0084 9.93882 9.93532 9.9955 9.83613C10.0522 9.73694 10.0678 9.61952 10.0391 9.50896C10.0103 9.3984 9.93945 9.30347 9.84163 9.24446L6.99963 7.62046V3.06171Z" fill="#6C757D"/>
<path d="M6.99963 13.9992C8.85615 13.9992 10.6366 13.2617 11.9494 11.949C13.2621 10.6362 13.9996 8.85572 13.9996 6.99921C13.9996 5.14269 13.2621 3.36221 11.9494 2.04946C10.6366 0.736705 8.85615 -0.000793457 6.99963 -0.000793457C5.14312 -0.000793457 3.36264 0.736705 2.04989 2.04946C0.737132 3.36221 -0.000366211 5.14269 -0.000366211 6.99921C-0.000366211 8.85572 0.737132 10.6362 2.04989 11.949C3.36264 13.2617 5.14312 13.9992 6.99963 13.9992ZM13.1246 6.99921C13.1246 8.62366 12.4793 10.1816 11.3307 11.3302C10.182 12.4789 8.62409 13.1242 6.99963 13.1242C5.37518 13.1242 3.81727 12.4789 2.6686 11.3302C1.51994 10.1816 0.874634 8.62366 0.874634 6.99921C0.874634 5.37476 1.51994 3.81684 2.6686 2.66818C3.81727 1.51952 5.37518 0.874207 6.99963 0.874207C8.62409 0.874207 10.182 1.51952 11.3307 2.66818C12.4793 3.81684 13.1246 5.37476 13.1246 6.99921Z" fill="#6C757D"/>
</g>
<defs>
<clipPath id="clip0_6464_237836">
<rect width="14" height="14" fill="white"/>
</clipPath>
</defs>
</svg>
