<svg width="14" height="14" viewBox="0 0 14 14" fill="none" xmlns="http://www.w3.org/2000/svg">
<g clip-path="url(#clip0_6464_237932)">
<path d="M6.99951 3.06171C6.99951 2.94567 6.95342 2.83439 6.87137 2.75235C6.78932 2.6703 6.67804 2.62421 6.56201 2.62421C6.44598 2.62421 6.3347 2.6703 6.25265 2.75235C6.17061 2.83439 6.12451 2.94567 6.12451 3.06171V7.87421C6.12454 7.95132 6.14494 8.02706 6.18367 8.09375C6.22239 8.16044 6.27805 8.21571 6.34501 8.25396L9.40751 10.004C9.50801 10.0583 9.62577 10.0711 9.73562 10.0398C9.84547 10.0084 9.9387 9.93532 9.99538 9.83613C10.0521 9.73694 10.0677 9.61952 10.0389 9.50896C10.0102 9.3984 9.93933 9.30347 9.84151 9.24446L6.99951 7.62046V3.06171Z" fill="#6C757D"/>
<path d="M6.99951 13.9992C8.85603 13.9992 10.6365 13.2617 11.9493 11.949C13.262 10.6362 13.9995 8.85572 13.9995 6.99921C13.9995 5.14269 13.262 3.36221 11.9493 2.04946C10.6365 0.736705 8.85603 -0.000793457 6.99951 -0.000793457C5.143 -0.000793457 3.36252 0.736705 2.04976 2.04946C0.73701 3.36221 -0.000488281 5.14269 -0.000488281 6.99921C-0.000488281 8.85572 0.73701 10.6362 2.04976 11.949C3.36252 13.2617 5.143 13.9992 6.99951 13.9992ZM13.1245 6.99921C13.1245 8.62366 12.4792 10.1816 11.3305 11.3302C10.1819 12.4789 8.62396 13.1242 6.99951 13.1242C5.37506 13.1242 3.81714 12.4789 2.66848 11.3302C1.51982 10.1816 0.874512 8.62366 0.874512 6.99921C0.874512 5.37476 1.51982 3.81684 2.66848 2.66818C3.81714 1.51952 5.37506 0.874207 6.99951 0.874207C8.62396 0.874207 10.1819 1.51952 11.3305 2.66818C12.4792 3.81684 13.1245 5.37476 13.1245 6.99921Z" fill="#6C757D"/>
</g>
<defs>
<clipPath id="clip0_6464_237932">
<rect width="14" height="14" fill="white"/>
</clipPath>
</defs>
</svg>
