<svg width="16" height="19" viewBox="0 0 16 19" fill="none" xmlns="http://www.w3.org/2000/svg">
<g clip-path="url(#clip0_6441_422871)">
<g clip-path="url(#clip1_6441_422871)" filter="url(#filter0_d_6441_422871)">
<path fill-rule="evenodd" clip-rule="evenodd" d="M6.00004 14.8438C6.00004 15.0012 6.05272 15.1522 6.14649 15.2636C6.24025 15.3749 6.36743 15.4375 6.50004 15.4375H14.5C14.6326 15.4375 14.7598 15.3749 14.8536 15.2636C14.9474 15.1522 15 15.0012 15 14.8438V4.15625C15 3.99878 14.9474 3.84776 14.8536 3.73641C14.7598 3.62506 14.6326 3.5625 14.5 3.5625H6.50004C6.36743 3.5625 6.24025 3.62506 6.14649 3.73641C6.05272 3.84776 6.00004 3.99878 6.00004 4.15625V6.53125C6.00004 6.68872 5.94736 6.83975 5.85359 6.95109C5.75982 7.06244 5.63265 7.125 5.50004 7.125C5.36743 7.125 5.24025 7.06244 5.14649 6.95109C5.05272 6.83975 5.00004 6.68872 5.00004 6.53125V4.15625C5.00004 3.68383 5.15807 3.23077 5.43938 2.89672C5.72068 2.56267 6.10221 2.375 6.50004 2.375H14.5C14.8979 2.375 15.2794 2.56267 15.5607 2.89672C15.842 3.23077 16 3.68383 16 4.15625V14.8438C16 15.3162 15.842 15.7692 15.5607 16.1033C15.2794 16.4373 14.8979 16.625 14.5 16.625H6.50004C6.10221 16.625 5.72068 16.4373 5.43938 16.1033C5.15807 15.7692 5.00004 15.3162 5.00004 14.8438V12.4688C5.00004 12.3113 5.05272 12.1603 5.14649 12.0489C5.24025 11.9376 5.36743 11.875 5.50004 11.875C5.63265 11.875 5.75982 11.9376 5.85359 12.0489C5.94736 12.1603 6.00004 12.3113 6.00004 12.4688V14.8438Z" fill="#9FA2B4"/>
<path fill-rule="evenodd" clip-rule="evenodd" d="M0.146039 9.92037C0.0994761 9.86522 0.0625332 9.7997 0.0373268 9.72756C0.0121203 9.65543 -0.000854492 9.5781 -0.000854492 9.5C-0.000854492 9.4219 0.0121203 9.34457 0.0373268 9.27244C0.0625332 9.2003 0.0994761 9.13478 0.146039 9.07963L3.14604 5.51712C3.19253 5.46192 3.24772 5.41813 3.30846 5.38825C3.3692 5.35838 3.4343 5.343 3.50004 5.343C3.56578 5.343 3.63088 5.35838 3.69162 5.38825C3.75236 5.41813 3.80755 5.46192 3.85404 5.51712C3.90053 5.57233 3.9374 5.63787 3.96256 5.70999C3.98772 5.78212 4.00067 5.85943 4.00067 5.9375C4.00067 6.01557 3.98772 6.09288 3.96256 6.16501C3.9374 6.23713 3.90053 6.30267 3.85404 6.35788L1.70704 8.90625H10.5C10.6326 8.90625 10.7598 8.96881 10.8536 9.08016C10.9474 9.1915 11 9.34253 11 9.5C11 9.65747 10.9474 9.8085 10.8536 9.91985C10.7598 10.0312 10.6326 10.0938 10.5 10.0938H1.70704L3.85404 12.6421C3.90053 12.6973 3.9374 12.7629 3.96256 12.835C3.98772 12.9071 4.00067 12.9844 4.00067 13.0625C4.00067 13.1406 3.98772 13.2179 3.96256 13.29C3.9374 13.3621 3.90053 13.4277 3.85404 13.4829C3.80755 13.5381 3.75236 13.5819 3.69162 13.6117C3.63088 13.6416 3.56578 13.657 3.50004 13.657C3.4343 13.657 3.3692 13.6416 3.30846 13.6117C3.24772 13.5819 3.19253 13.5381 3.14604 13.4829L0.146039 9.92037Z" fill="#9FA2B4"/>
</g>
</g>
<defs>
<filter id="filter0_d_6441_422871" x="-4" y="0" width="24" height="27" filterUnits="userSpaceOnUse" color-interpolation-filters="sRGB">
<feFlood flood-opacity="0" result="BackgroundImageFix"/>
<feColorMatrix in="SourceAlpha" type="matrix" values="0 0 0 0 0 0 0 0 0 0 0 0 0 0 0 0 0 0 127 0" result="hardAlpha"/>
<feOffset dy="4"/>
<feGaussianBlur stdDeviation="2"/>
<feComposite in2="hardAlpha" operator="out"/>
<feColorMatrix type="matrix" values="0 0 0 0 0 0 0 0 0 0 0 0 0 0 0 0 0 0 0.25 0"/>
<feBlend mode="normal" in2="BackgroundImageFix" result="effect1_dropShadow_6441_422871"/>
<feBlend mode="normal" in="SourceGraphic" in2="effect1_dropShadow_6441_422871" result="shape"/>
</filter>
<clipPath id="clip0_6441_422871">
<rect width="16" height="19" fill="white"/>
</clipPath>
<clipPath id="clip1_6441_422871">
<rect width="16" height="19" fill="white"/>
</clipPath>
</defs>
</svg>
